<svg width="151" height="166" viewBox="0 0 151 166" fill="none" xmlns="http://www.w3.org/2000/svg">
<path d="M118.648 42.0296C115.898 41.8567 107.589 40.0339 107.589 40.0339C107.589 40.0339 107.202 37.2833 104.066 36.918C100.931 36.5527 99.1713 37.553 99.1713 37.553L93.7087 35.1797C93.7087 35.1797 99.2145 33.9019 101.091 32.9513C102.967 32.0007 106.386 29.2209 105.252 26.2906C105.088 25.8311 104.883 25.3686 104.639 24.903C104.244 24.8317 103.61 24.7419 103.494 24.6923C103.265 24.5526 103.125 23.7703 103.254 23.6585C103.34 23.584 103.692 23.6925 103.924 23.7918C102.657 22.0691 100.625 20.8963 96.53 21.0249C90.6311 21.1758 69.572 28.3109 69.572 28.3109C69.572 28.3109 68.7219 25.8492 65.6472 25.7323C62.5694 25.6557 61.8237 26.491 61.8237 26.491C61.8237 26.491 61.2726 26.367 60.3297 26.1314C59.773 24.0173 58.0778 17.9981 57.6158 17.7592C57.0742 17.5141 55.4934 17.7568 55.4934 17.7568C55.3122 18.0269 55.2787 23.0999 55.2665 24.8043C52.2849 24.0043 48.8685 23.1299 46.481 22.4166C41.2312 20.9126 11.7711 10.9099 11.7711 10.9099C10.2803 10.5099 10.2615 10.752 11.7209 11.5557C13.1804 12.3593 30.9279 19.5034 30.9279 19.5034L30.0136 20.4475L34.3929 22.3305C34.0578 23.0354 33.7688 23.6626 33.9155 23.8364C34.102 24.0133 34.7828 23.4977 35.4458 22.6965L43.8921 26.3572C43.4408 27.0124 43.1978 27.562 43.3477 27.6955C43.5373 27.832 44.1291 27.4313 44.7428 26.7481L50.3217 29.171L51.1533 28.2611L53.8186 29.5238L53.0908 30.6448L55.4104 31.7182L55.3659 34.354L53.3046 36.143C53.3046 36.143 36.2909 31.4109 34.8546 31.34C33.4183 31.269 33.2613 31.7441 34.8715 32.1534C36.4817 32.5626 52.0677 37.6305 52.0677 37.6305C52.0677 37.6305 51.2665 38.6646 51.6511 39.3847C52.0357 40.1048 56.3291 42.0624 58.3196 42.217C60.2702 42.3685 63.7787 43.0876 65.5889 42.9846C67.3991 42.8815 70.6757 41.4306 71.4016 41.3652C72.1307 41.2594 76.8899 41.3448 77.708 41.1241C78.5262 40.9034 79.1819 40.7107 79.1819 40.7107L89.9974 41.713C89.678 42.2161 89.5272 42.6104 89.6802 42.7035C89.83 42.8369 90.4218 42.4363 91.0324 41.7934L96.1615 42.2729C96.1615 42.2729 96.3433 45.0888 98.7099 45.5568C101.076 46.0248 104.949 45.148 105.722 44.4772C106.538 43.7691 106.83 43.1015 106.83 43.1015L108.818 43.2964L109.275 42.5605C109.275 42.5605 117.923 43.1103 119.259 42.9298C120.677 42.7151 121.395 42.243 118.648 42.0296ZM101.01 23.1594C101.099 23.0445 102.131 23.1652 102.559 23.3203C102.988 23.4754 103.164 24.3012 103.072 24.4565C102.98 24.6117 101.327 24.2397 101.094 24.1404C100.861 24.0412 100.921 23.2743 101.01 23.1594ZM100.459 23.0354C100.768 23.1812 100.782 24.035 100.573 24.1406C100.239 24.3177 98.5368 24.0637 98.5221 23.7377C98.544 23.4551 99.7915 22.8618 100.459 23.0354ZM66.0478 32.9504C64.5382 32.7925 63.417 31.2437 63.5916 29.5113C63.7661 27.7788 65.1497 26.4651 66.6991 26.6261C68.2087 26.7839 69.33 28.3327 69.1554 30.0652C68.9808 31.7976 67.5972 33.1113 66.0478 32.9504ZM73.3497 29.1728L73.3037 29.2504C73.224 29.2442 73.1077 29.1946 73.0281 29.1884L73.0773 29.0704C73.0836 28.9897 73.1664 28.9555 73.246 28.9617C73.3623 29.0113 73.3958 29.0951 73.3497 29.1728ZM73.9196 29.0546L73.8149 29.3713C73.7353 29.3651 73.619 29.3155 73.5394 29.3093L73.6472 28.9522C73.6535 28.8715 73.7362 28.8373 73.8158 28.8435C73.8923 28.8901 73.9259 28.9739 73.9196 29.0546ZM74.4496 28.9333L74.2863 29.4891C74.2067 29.4829 74.0904 29.4333 74.0108 29.4271C74.0108 29.4271 74.0108 29.4271 74.0139 29.3868L74.1772 28.831C74.1835 28.7503 74.2663 28.7161 74.3459 28.7223C74.4224 28.7688 74.4957 28.8557 74.4496 28.9333ZM75.0656 28.7376L74.9023 29.2933C74.896 29.3741 74.8133 29.4082 74.7336 29.4021C74.654 29.3959 74.6205 29.3121 74.6268 29.2313L74.7901 28.6756C74.7963 28.5948 74.8791 28.5607 74.9587 28.5668C75.0383 28.573 75.0719 28.6568 75.0656 28.7376ZM75.6292 28.7001L75.4659 29.2559C75.4596 29.3366 75.3768 29.3708 75.2972 29.3646C75.2176 29.3584 75.1841 29.2746 75.1903 29.1939L75.3537 28.6381C75.3599 28.5574 75.4427 28.5232 75.5223 28.5294C75.6019 28.5356 75.6354 28.6194 75.6292 28.7001ZM76.2053 28.5012L76.042 29.057C76.0357 29.1377 75.953 29.1719 75.8734 29.1657C75.7937 29.1595 75.7602 29.0757 75.7665 28.995L75.9298 28.4392C75.936 28.3585 76.0188 28.3243 76.0984 28.3305C76.178 28.3367 76.2116 28.4205 76.2053 28.5012ZM76.8275 28.2247L76.6244 28.7774C76.6181 28.8581 76.5354 28.8923 76.4558 28.8861C76.3761 28.8799 76.3426 28.7961 76.3489 28.7154L76.5122 28.1596C76.5184 28.0789 76.6012 28.0447 76.6808 28.0509C76.8002 28.0602 76.8338 28.144 76.8275 28.2247ZM77.4372 28.1096L77.2739 28.6654C77.2676 28.7461 77.1849 28.7803 77.1052 28.7741C77.0256 28.768 76.9921 28.6841 76.9983 28.6034L77.1617 28.0476C77.1679 27.9669 77.2507 27.9327 77.3303 27.9389C77.4497 27.9482 77.4833 28.032 77.4372 28.1096ZM78.05 27.9542L77.85 28.4665C77.8437 28.5473 77.761 28.5814 77.6814 28.5753C77.6018 28.5691 77.5682 28.4853 77.5745 28.4045L77.7378 27.8488C77.7441 27.768 77.8268 27.7339 77.9064 27.74C78.0227 27.7897 78.0563 27.8735 78.05 27.9542ZM78.5863 27.7522L78.423 28.308C78.4167 28.3887 78.334 28.4229 78.2544 28.4167C78.1747 28.4106 78.1412 28.3267 78.1475 28.246L78.3108 27.6902C78.3171 27.6095 78.3998 27.5753 78.4794 27.5815C78.5988 27.5908 78.6324 27.6746 78.5863 27.7522ZM79.2421 27.5595L79.0788 28.1153C79.0725 28.196 78.9897 28.2302 78.9101 28.224C78.8305 28.2179 78.797 28.134 78.8032 28.0533L78.9665 27.4975C78.9728 27.4168 79.0556 27.3826 79.1352 27.3888C79.2148 27.395 79.2483 27.4788 79.2421 27.5595ZM79.8549 27.4041L79.6916 27.9599C79.6853 28.0406 79.6025 28.0748 79.5229 28.0686C79.4433 28.0624 79.4098 27.9786 79.416 27.8979L79.5793 27.3421C79.5856 27.2614 79.6684 27.2272 79.748 27.2334C79.8276 27.2396 79.8611 27.3234 79.8549 27.4041ZM80.4279 27.2456L80.2645 27.8014C80.2583 27.8821 80.1755 27.9163 80.0959 27.9101C80.0163 27.9039 79.9828 27.8201 79.989 27.7394L80.1523 27.1836C80.1586 27.1029 80.2414 27.0687 80.321 27.0749C80.4006 27.0811 80.4341 27.1649 80.4279 27.2456ZM80.961 27.084L80.7977 27.6398C80.7915 27.7205 80.7087 27.7547 80.6291 27.7485C80.5495 27.7423 80.5159 27.6585 80.5222 27.5778L80.6855 27.022C80.6918 26.9413 80.7745 26.9071 80.8542 26.9133C80.9338 26.9194 81.0071 27.0063 80.961 27.084ZM81.577 26.8882L81.4137 27.444C81.4074 27.5247 81.3247 27.5589 81.245 27.5527C81.1654 27.5465 81.1319 27.4627 81.1381 27.382L81.3015 26.8262C81.3077 26.7455 81.3905 26.7113 81.4701 26.7175C81.5497 26.7236 81.6231 26.8106 81.577 26.8882ZM82.1898 26.7328L82.0265 27.2885C82.0202 27.3693 81.9375 27.4034 81.8578 27.3972C81.7782 27.3911 81.7447 27.3073 81.751 27.2265L81.9143 26.6707C81.9205 26.59 82.0033 26.5559 82.0829 26.562C82.1625 26.5682 82.1961 26.652 82.1898 26.7328ZM82.812 26.4562L82.6487 27.012C82.6424 27.0927 82.5597 27.1269 82.4801 27.1207C82.4004 27.1145 82.3669 27.0307 82.3732 26.95L82.5365 26.3942C82.5427 26.3135 82.6255 26.2793 82.7051 26.2855C82.7847 26.2917 82.8183 26.3755 82.812 26.4562ZM87.1142 25.2068L86.9509 25.7626C86.9446 25.8433 86.8618 25.8775 86.7822 25.8713C86.7026 25.8651 86.6691 25.7813 86.6753 25.7006L86.8386 25.1448C86.8449 25.0641 86.9277 25.0299 87.0073 25.0361C87.0838 25.0826 87.1204 25.1261 87.1142 25.2068ZM87.727 25.0513L87.5637 25.6071C87.5574 25.6878 87.4746 25.722 87.395 25.7158C87.3154 25.7097 87.2819 25.6258 87.2881 25.5451L87.4514 24.9893C87.4577 24.9086 87.5405 24.8744 87.6201 24.8806C87.7395 24.8899 87.7731 24.9737 87.727 25.0513ZM88.2968 24.9332L88.1335 25.489C88.1273 25.5697 88.0445 25.6039 87.9649 25.5977C87.8853 25.5915 87.8517 25.5077 87.858 25.427L88.0213 24.8712C88.0276 24.7905 88.1103 24.7563 88.1899 24.7625C88.3094 24.7717 88.3429 24.8556 88.2968 24.9332ZM88.9128 24.7374L88.7495 25.2932C88.7432 25.3739 88.6604 25.4081 88.5808 25.4019C88.5012 25.3957 88.4677 25.3119 88.4739 25.2312L88.6372 24.6754C88.6435 24.5947 88.7263 24.5605 88.8059 24.5667C88.8855 24.5729 88.919 24.6567 88.9128 24.7374ZM89.4826 24.6192L89.3193 25.175C89.3131 25.2557 89.2303 25.2899 89.1507 25.2837C89.0711 25.2775 89.0375 25.1937 89.0438 25.113L89.2071 24.5572C89.2134 24.4765 89.2961 24.4423 89.3757 24.4485C89.4952 24.4578 89.5287 24.5416 89.4826 24.6192ZM90.0986 24.4234L89.9353 24.9792C89.929 25.0599 89.8462 25.0941 89.7666 25.0879C89.687 25.0818 89.6535 24.9979 89.6597 24.9172L89.823 24.3614C89.8293 24.2807 89.9121 24.2465 89.9917 24.2527C90.0713 24.2589 90.1447 24.3458 90.0986 24.4234ZM90.7543 24.2307L90.591 24.7865C90.5847 24.8672 90.502 24.9014 90.4224 24.8952C90.3428 24.8891 90.3092 24.8052 90.3155 24.7245L90.4788 24.1687C90.4851 24.088 90.5678 24.0538 90.6474 24.06C90.7271 24.0662 90.8004 24.1531 90.7543 24.2307ZM103.925 43.891C102.416 43.7332 101.295 42.1843 101.469 40.4519C101.644 38.7195 103.027 37.4058 104.577 37.5667C106.086 37.7246 107.208 39.2734 107.033 41.0058C106.855 42.7786 105.475 44.0519 103.925 43.891Z" fill="#FFC700"/>
<path fill-rule="evenodd" clip-rule="evenodd" d="M150.788 48.2423L148.765 49.1765C147.876 47.2516 146.913 45.3677 145.881 43.5281L147.824 42.4376C148.885 44.328 149.874 46.2641 150.788 48.2423ZM144.414 36.8839L142.562 38.1235C141.384 36.3637 140.139 34.6527 138.829 32.9942L140.578 31.6136C141.923 33.3176 143.203 35.0756 144.414 36.8839ZM136.343 26.6595L134.707 28.1724C133.271 26.6194 131.774 25.1228 130.221 23.6865L131.734 22.0507C133.33 23.5264 134.867 25.0639 136.343 26.6595ZM126.78 17.8156L125.4 19.5645C123.741 18.2553 122.03 17.0098 120.27 15.8316L121.51 13.9801C123.318 15.1907 125.076 16.4704 126.78 17.8156ZM115.956 10.5697L114.866 12.5127C113.026 11.4804 111.142 10.518 109.217 9.62911L110.152 7.60619C112.13 8.51969 114.066 9.50874 115.956 10.5697ZM104.129 5.10902L103.358 7.1994C101.383 6.47067 99.3726 5.81693 97.3288 5.2416L97.9326 3.09678C100.033 3.68811 102.1 4.36004 104.129 5.10902ZM91.5923 1.57983L91.1598 3.76565C89.0992 3.358 87.0103 3.02871 84.8961 2.78103L85.1554 0.567974C87.3278 0.822478 89.4745 1.16087 91.5923 1.57983ZM78.6572 0.0629784L78.5711 2.2895C77.5172 2.24875 76.458 2.22819 75.3938 2.22819C74.3297 2.22819 73.2705 2.24875 72.2165 2.2895L72.1304 0.0629779C73.213 0.0211213 74.301 0 75.3938 0C76.4867 0 77.5746 0.0211214 78.6572 0.0629784ZM65.6322 0.567973L65.8915 2.78103C63.7773 3.02871 61.6884 3.358 59.6278 3.76565L59.1954 1.57983C61.3131 1.16087 63.4598 0.822477 65.6322 0.567973ZM52.855 3.09678L53.4588 5.2416C51.4151 5.81693 49.4042 6.47067 47.4296 7.1994L46.6581 5.10902C48.6876 4.36003 50.7544 3.68811 52.855 3.09678ZM40.6361 7.60619L41.5703 9.62911C39.6455 10.5179 37.7615 11.4804 35.9219 12.5127L34.8314 10.5697C36.7218 9.50874 38.6579 8.51968 40.6361 7.60619ZM19.0533 22.0507L20.5662 23.6865C19.0132 25.1228 17.5167 26.6194 16.0804 28.1724L14.4445 26.6595C15.9202 25.0639 17.4577 23.5264 19.0533 22.0507ZM10.2094 31.6136L11.9583 32.9942C10.6491 34.6527 9.40359 36.3637 8.22543 38.1235L6.37388 36.8839C7.58448 35.0756 8.86425 33.3176 10.2094 31.6136ZM2.96346 42.4376L4.90656 43.5281C3.87417 45.3677 2.91176 47.2516 2.02292 49.1764L0 48.2423C0.913491 46.2641 1.90255 44.328 2.96346 42.4376ZM6.37388 129.116L8.22543 127.877C9.40359 129.636 10.6491 131.347 11.9583 133.006L10.2094 134.386C8.86425 132.682 7.58448 130.924 6.37388 129.116ZM14.4445 139.34L16.0804 137.828C17.5167 139.381 19.0132 140.877 20.5662 142.313L19.0533 143.949C17.4577 142.474 15.9202 140.936 14.4445 139.34ZM24.0074 148.184L25.388 146.435C27.0465 147.745 28.7575 148.99 30.5173 150.168L29.2777 152.02C27.4694 150.809 25.7114 149.53 24.0074 148.184ZM34.8314 155.43L35.9219 153.487C37.7615 154.52 39.6454 155.482 41.5703 156.371L40.6361 158.394C38.6579 157.48 36.7218 156.491 34.8314 155.43ZM46.6581 160.891L47.4296 158.801C49.4042 159.529 51.4151 160.183 53.4588 160.758L52.855 162.903C50.7544 162.312 48.6876 161.64 46.6581 160.891ZM59.1954 164.42L59.6278 162.234C61.6884 162.642 63.7773 162.971 65.8915 163.219L65.6322 165.432C63.4598 165.178 61.3131 164.839 59.1954 164.42ZM72.1304 165.937L72.2165 163.711C73.2704 163.751 74.3297 163.772 75.3938 163.772C76.458 163.772 77.5172 163.751 78.5711 163.711L78.6572 165.937C77.5746 165.979 76.4867 166 75.3938 166C74.301 166 73.213 165.979 72.1304 165.937ZM85.1554 165.432L84.8961 163.219C87.0103 162.971 89.0992 162.642 91.1598 162.234L91.5923 164.42C89.4745 164.839 87.3278 165.178 85.1554 165.432ZM97.9326 162.903L97.3288 160.758C99.3726 160.183 101.383 159.529 103.358 158.801L104.129 160.891C102.1 161.64 100.033 162.312 97.9326 162.903ZM110.152 158.394L109.217 156.371C111.142 155.482 113.026 154.52 114.866 153.487L115.956 155.43C114.066 156.491 112.13 157.48 110.152 158.394ZM121.51 152.02L120.27 150.168C122.03 148.99 123.741 147.745 125.4 146.435L126.78 148.184C125.076 149.53 123.318 150.809 121.51 152.02ZM131.734 143.949L130.221 142.313C131.774 140.877 133.271 139.381 134.707 137.828L136.343 139.34C134.867 140.936 133.33 142.474 131.734 143.949ZM140.578 134.386L138.829 133.006C140.139 131.347 141.384 129.636 142.562 127.877L144.414 129.116C143.203 130.924 141.923 132.682 140.578 134.386Z" fill="#FFC700"/>
</svg>
