<svg width="151" height="166" viewBox="0 0 151 166" fill="none" xmlns="http://www.w3.org/2000/svg">
<path d="M118.648 42.0306C115.898 41.8577 107.589 40.0349 107.589 40.0349C107.589 40.0349 107.202 37.2843 104.066 36.919C100.931 36.5537 99.1713 37.5539 99.1713 37.5539L93.7087 35.1807C93.7087 35.1807 99.2145 33.9029 101.091 32.9523C102.967 32.0017 106.386 29.2219 105.252 26.2915C105.088 25.8321 104.883 25.3696 104.639 24.904C104.244 24.8327 103.61 24.7429 103.494 24.6932C103.265 24.5536 103.125 23.7713 103.254 23.6595C103.34 23.5849 103.692 23.6935 103.924 23.7928C102.657 22.0701 100.625 20.8972 96.53 21.0259C90.6311 21.1768 69.572 28.3119 69.572 28.3119C69.572 28.3119 68.7219 25.8502 65.6472 25.7332C62.5694 25.6566 61.8237 26.492 61.8237 26.492C61.8237 26.492 61.2726 26.368 60.3297 26.1324C59.773 24.0183 58.0778 17.999 57.6158 17.7601C57.0742 17.5151 55.4934 17.7577 55.4934 17.7577C55.3122 18.0279 55.2787 23.1008 55.2665 24.8053C52.2849 24.0053 48.8685 23.1309 46.481 22.4176C41.2312 20.9136 11.7711 10.9109 11.7711 10.9109C10.2803 10.5109 10.2615 10.753 11.7209 11.5566C13.1804 12.3603 30.9279 19.5044 30.9279 19.5044L30.0136 20.4485L34.3929 22.3315C34.0578 23.0364 33.7688 23.6636 33.9155 23.8374C34.102 24.0143 34.7828 23.4987 35.4458 22.6975L43.8921 26.3582C43.4408 27.0134 43.1978 27.563 43.3477 27.6965C43.5373 27.833 44.1291 27.4323 44.7428 26.7491L50.3217 29.172L51.1533 28.262L53.8186 29.5247L53.0908 30.6457L55.4104 31.7192L55.3659 34.355L53.3046 36.1439C53.3046 36.1439 36.2909 31.4119 34.8546 31.3409C33.4183 31.27 33.2613 31.7451 34.8715 32.1543C36.4818 32.5636 52.0677 37.6314 52.0677 37.6314C52.0677 37.6314 51.2665 38.6655 51.6511 39.3857C52.0357 40.1058 56.3291 42.0634 58.3196 42.218C60.2702 42.3695 63.7787 43.0886 65.5889 42.9856C67.3991 42.8825 70.6757 41.4316 71.4016 41.3662C72.1307 41.2604 76.8899 41.3457 77.708 41.125C78.5262 40.9044 79.1819 40.7117 79.1819 40.7117L89.9974 41.714C89.678 42.2171 89.5272 42.6114 89.6802 42.7045C89.83 42.8379 90.4218 42.4372 91.0324 41.7944L96.1615 42.2739C96.1615 42.2739 96.3433 45.0897 98.7099 45.5578C101.076 46.0258 104.949 45.149 105.722 44.4782C106.538 43.77 106.83 43.1025 106.83 43.1025L108.818 43.2974L109.275 42.5615C109.275 42.5615 117.923 43.1112 119.259 42.9307C120.677 42.7161 121.395 42.2439 118.648 42.0306ZM101.01 23.1604C101.099 23.0455 102.131 23.1662 102.559 23.3213C102.988 23.4764 103.164 24.3022 103.072 24.4574C102.98 24.6127 101.327 24.2407 101.094 24.1414C100.861 24.0421 100.921 23.2753 101.01 23.1604ZM100.459 23.0364C100.768 23.1822 100.782 24.036 100.573 24.1416C100.239 24.3186 98.5368 24.0646 98.5221 23.7386C98.544 23.4561 99.7915 22.8627 100.459 23.0364ZM66.0478 32.9513C64.5382 32.7935 63.417 31.2447 63.5916 29.5122C63.7661 27.7798 65.1497 26.4661 66.6991 26.627C68.2087 26.7849 69.33 28.3337 69.1554 30.0661C68.9808 31.7986 67.5972 33.1123 66.0478 32.9513ZM73.3497 29.1737L73.3037 29.2514C73.224 29.2452 73.1077 29.1956 73.0281 29.1894L73.0773 29.0714C73.0836 28.9907 73.1664 28.9565 73.246 28.9627C73.3623 29.0123 73.3958 29.0961 73.3497 29.1737ZM73.9196 29.0556L73.8149 29.3723C73.7353 29.3661 73.619 29.3165 73.5394 29.3103L73.6472 28.9532C73.6535 28.8725 73.7362 28.8383 73.8158 28.8445C73.8923 28.891 73.9259 28.9749 73.9196 29.0556ZM74.4496 28.9343L74.2863 29.4901C74.2067 29.4839 74.0904 29.4343 74.0108 29.4281C74.0108 29.4281 74.0108 29.4281 74.0139 29.3877L74.1772 28.832C74.1835 28.7512 74.2663 28.7171 74.3459 28.7232C74.4224 28.7698 74.4957 28.8567 74.4496 28.9343ZM75.0656 28.7385L74.9023 29.2943C74.896 29.375 74.8133 29.4092 74.7336 29.403C74.654 29.3968 74.6205 29.313 74.6268 29.2323L74.7901 28.6765C74.7963 28.5958 74.8791 28.5616 74.9587 28.5678C75.0383 28.574 75.0719 28.6578 75.0656 28.7385ZM75.6292 28.7011L75.4659 29.2569C75.4596 29.3376 75.3768 29.3718 75.2972 29.3656C75.2176 29.3594 75.1841 29.2756 75.1903 29.1949L75.3537 28.6391C75.3599 28.5584 75.4427 28.5242 75.5223 28.5304C75.6019 28.5366 75.6354 28.6204 75.6292 28.7011ZM76.2053 28.5022L76.042 29.058C76.0357 29.1387 75.953 29.1729 75.8734 29.1667C75.7937 29.1605 75.7602 29.0767 75.7665 28.996L75.9298 28.4402C75.936 28.3595 76.0188 28.3253 76.0984 28.3315C76.178 28.3377 76.2116 28.4215 76.2053 28.5022ZM76.8275 28.2257L76.6244 28.7784C76.6181 28.8591 76.5354 28.8933 76.4558 28.8871C76.3761 28.8809 76.3426 28.7971 76.3489 28.7164L76.5122 28.1606C76.5184 28.0799 76.6012 28.0457 76.6808 28.0519C76.8002 28.0612 76.8338 28.145 76.8275 28.2257ZM77.4372 28.1106L77.2739 28.6664C77.2676 28.7471 77.1849 28.7813 77.1052 28.7751C77.0256 28.7689 76.9921 28.6851 76.9983 28.6044L77.1617 28.0486C77.1679 27.9679 77.2507 27.9337 77.3303 27.9399C77.4497 27.9492 77.4833 28.033 77.4372 28.1106ZM78.05 27.9552L77.85 28.4675C77.8437 28.5482 77.761 28.5824 77.6814 28.5762C77.6018 28.5701 77.5682 28.4862 77.5745 28.4055L77.7378 27.8497C77.7441 27.769 77.8268 27.7348 77.9064 27.741C78.0227 27.7907 78.0563 27.8745 78.05 27.9552ZM78.5863 27.7532L78.423 28.309C78.4167 28.3897 78.334 28.4239 78.2544 28.4177C78.1747 28.4115 78.1412 28.3277 78.1475 28.247L78.3108 27.6912C78.3171 27.6105 78.3998 27.5763 78.4794 27.5825C78.5988 27.5918 78.6324 27.6756 78.5863 27.7532ZM79.2421 27.5605L79.0788 28.1163C79.0725 28.197 78.9897 28.2312 78.9101 28.225C78.8305 28.2188 78.797 28.135 78.8032 28.0543L78.9665 27.4985C78.9728 27.4178 79.0556 27.3836 79.1352 27.3898C79.2148 27.396 79.2483 27.4798 79.2421 27.5605ZM79.8549 27.4051L79.6916 27.9609C79.6853 28.0416 79.6025 28.0758 79.5229 28.0696C79.4433 28.0634 79.4098 27.9796 79.416 27.8989L79.5793 27.3431C79.5856 27.2624 79.6684 27.2282 79.748 27.2344C79.8276 27.2406 79.8611 27.3244 79.8549 27.4051ZM80.4279 27.2466L80.2645 27.8023C80.2583 27.8831 80.1755 27.9172 80.0959 27.9111C80.0163 27.9049 79.9828 27.8211 79.989 27.7403L80.1523 27.1846C80.1586 27.1038 80.2414 27.0697 80.321 27.0758C80.4006 27.082 80.4341 27.1658 80.4279 27.2466ZM80.961 27.085L80.7977 27.6407C80.7915 27.7215 80.7087 27.7556 80.6291 27.7494C80.5495 27.7433 80.5159 27.6594 80.5222 27.5787L80.6855 27.023C80.6918 26.9422 80.7745 26.908 80.8542 26.9142C80.9338 26.9204 81.0071 27.0073 80.961 27.085ZM81.577 26.8892L81.4137 27.4449C81.4074 27.5257 81.3247 27.5598 81.245 27.5537C81.1654 27.5475 81.1319 27.4637 81.1381 27.3829L81.3015 26.8272C81.3077 26.7464 81.3905 26.7123 81.4701 26.7184C81.5497 26.7246 81.6231 26.8115 81.577 26.8892ZM82.1898 26.7337L82.0265 27.2895C82.0202 27.3702 81.9375 27.4044 81.8578 27.3982C81.7782 27.392 81.7447 27.3082 81.751 27.2275L81.9143 26.6717C81.9205 26.591 82.0033 26.5568 82.0829 26.563C82.1625 26.5692 82.1961 26.653 82.1898 26.7337ZM82.812 26.4572L82.6487 27.013C82.6424 27.0937 82.5597 27.1279 82.4801 27.1217C82.4004 27.1155 82.3669 27.0317 82.3732 26.951L82.5365 26.3952C82.5427 26.3145 82.6255 26.2803 82.7051 26.2865C82.7847 26.2927 82.8183 26.3765 82.812 26.4572ZM87.1142 25.2078L86.9509 25.7635C86.9446 25.8443 86.8618 25.8784 86.7822 25.8723C86.7026 25.8661 86.6691 25.7823 86.6753 25.7015L86.8386 25.1458C86.8449 25.065 86.9277 25.0309 87.0073 25.037C87.0838 25.0836 87.1204 25.127 87.1142 25.2078ZM87.727 25.0523L87.5637 25.6081C87.5574 25.6888 87.4746 25.723 87.395 25.7168C87.3154 25.7106 87.2819 25.6268 87.2881 25.5461L87.4514 24.9903C87.4577 24.9096 87.5405 24.8754 87.6201 24.8816C87.7395 24.8909 87.7731 24.9747 87.727 25.0523ZM88.2968 24.9342L88.1335 25.4899C88.1273 25.5707 88.0445 25.6048 87.9649 25.5987C87.8853 25.5925 87.8517 25.5087 87.858 25.4279L88.0213 24.8722C88.0276 24.7914 88.1103 24.7573 88.1899 24.7634C88.3094 24.7727 88.3429 24.8565 88.2968 24.9342ZM88.9128 24.7384L88.7495 25.2941C88.7432 25.3749 88.6604 25.409 88.5808 25.4029C88.5012 25.3967 88.4677 25.3129 88.4739 25.2321L88.6372 24.6764C88.6435 24.5956 88.7263 24.5615 88.8059 24.5677C88.8855 24.5738 88.919 24.6576 88.9128 24.7384ZM89.4826 24.6202L89.3193 25.176C89.3131 25.2567 89.2303 25.2909 89.1507 25.2847C89.0711 25.2785 89.0375 25.1947 89.0438 25.114L89.2071 24.5582C89.2134 24.4775 89.2961 24.4433 89.3757 24.4495C89.4952 24.4588 89.5287 24.5426 89.4826 24.6202ZM90.0986 24.4244L89.9353 24.9802C89.929 25.0609 89.8462 25.0951 89.7666 25.0889C89.687 25.0827 89.6535 24.9989 89.6597 24.9182L89.823 24.3624C89.8293 24.2817 89.9121 24.2475 89.9917 24.2537C90.0713 24.2599 90.1447 24.3468 90.0986 24.4244ZM90.7543 24.2317L90.591 24.7875C90.5847 24.8682 90.502 24.9024 90.4224 24.8962C90.3428 24.89 90.3092 24.8062 90.3155 24.7255L90.4788 24.1697C90.4851 24.089 90.5678 24.0548 90.6474 24.061C90.7271 24.0672 90.8004 24.1541 90.7543 24.2317ZM103.925 43.892C102.416 43.7341 101.295 42.1853 101.469 40.4529C101.644 38.7205 103.027 37.4068 104.577 37.5677C106.086 37.7255 107.208 39.2744 107.033 41.0068C106.855 42.7796 105.475 44.0529 103.925 43.892Z" fill="#FFC700"/>
<path fill-rule="evenodd" clip-rule="evenodd" d="M150.788 48.2423L148.765 49.1765C147.876 47.2516 146.913 45.3677 145.881 43.5281L147.824 42.4376C148.885 44.328 149.874 46.2641 150.788 48.2423ZM144.414 36.8839L142.562 38.1235C141.384 36.3637 140.139 34.6527 138.829 32.9942L140.578 31.6136C141.923 33.3176 143.203 35.0756 144.414 36.8839ZM136.343 26.6595L134.707 28.1724C133.271 26.6194 131.774 25.1228 130.221 23.6865L131.734 22.0507C133.33 23.5264 134.867 25.0639 136.343 26.6595ZM126.78 17.8156L125.4 19.5645C123.741 18.2553 122.03 17.0098 120.27 15.8316L121.51 13.9801C123.318 15.1907 125.076 16.4704 126.78 17.8156ZM115.956 10.5697L114.866 12.5127C113.026 11.4804 111.142 10.518 109.217 9.62911L110.152 7.60619C112.13 8.51969 114.066 9.50874 115.956 10.5697ZM104.129 5.10902L103.358 7.1994C101.383 6.47067 99.3726 5.81693 97.3288 5.2416L97.9326 3.09678C100.033 3.68811 102.1 4.36004 104.129 5.10902ZM91.5923 1.57983L91.1598 3.76565C89.0993 3.358 87.0103 3.02871 84.8961 2.78103L85.1554 0.567974C87.3278 0.822478 89.4745 1.16087 91.5923 1.57983ZM78.6572 0.0629784L78.5711 2.2895C77.5172 2.24875 76.458 2.22819 75.3938 2.22819C74.3297 2.22819 73.2705 2.24875 72.2165 2.2895L72.1304 0.0629779C73.213 0.0211213 74.301 0 75.3938 0C76.4867 0 77.5746 0.0211214 78.6572 0.0629784ZM65.6322 0.567973L65.8915 2.78103C63.7773 3.02871 61.6884 3.358 59.6278 3.76565L59.1954 1.57983C61.3131 1.16087 63.4598 0.822477 65.6322 0.567973ZM52.855 3.09678L53.4588 5.2416C51.4151 5.81693 49.4042 6.47067 47.4296 7.1994L46.6581 5.10902C48.6876 4.36003 50.7544 3.68811 52.855 3.09678ZM40.6361 7.60619L41.5703 9.62911C39.6455 10.5179 37.7615 11.4804 35.9219 12.5127L34.8314 10.5697C36.7218 9.50874 38.6579 8.51968 40.6361 7.60619ZM19.0533 22.0507L20.5662 23.6865C19.0132 25.1228 17.5167 26.6194 16.0804 28.1724L14.4445 26.6595C15.9202 25.0639 17.4577 23.5264 19.0533 22.0507ZM10.2094 31.6136L11.9583 32.9942C10.6491 34.6527 9.40359 36.3637 8.22543 38.1235L6.37388 36.8839C7.58448 35.0756 8.86425 33.3176 10.2094 31.6136ZM2.96346 42.4376L4.90656 43.5281C3.87417 45.3677 2.91176 47.2516 2.02292 49.1764L0 48.2423C0.913491 46.2641 1.90255 44.328 2.96346 42.4376ZM6.37388 129.116L8.22543 127.877C9.40359 129.636 10.6491 131.347 11.9583 133.006L10.2094 134.386C8.86425 132.682 7.58448 130.924 6.37388 129.116ZM14.4445 139.34L16.0804 137.828C17.5167 139.381 19.0132 140.877 20.5662 142.313L19.0533 143.949C17.4577 142.474 15.9202 140.936 14.4445 139.34ZM24.0074 148.184L25.388 146.435C27.0465 147.745 28.7575 148.99 30.5173 150.168L29.2777 152.02C27.4694 150.809 25.7114 149.53 24.0074 148.184ZM34.8314 155.43L35.9219 153.487C37.7615 154.52 39.6454 155.482 41.5703 156.371L40.6361 158.394C38.6579 157.48 36.7218 156.491 34.8314 155.43ZM46.6581 160.891L47.4296 158.801C49.4042 159.529 51.4151 160.183 53.4588 160.758L52.855 162.903C50.7544 162.312 48.6876 161.64 46.6581 160.891ZM59.1954 164.42L59.6278 162.234C61.6884 162.642 63.7773 162.971 65.8915 163.219L65.6322 165.432C63.4598 165.178 61.3131 164.839 59.1954 164.42ZM72.1304 165.937L72.2165 163.711C73.2704 163.751 74.3297 163.772 75.3938 163.772C76.458 163.772 77.5172 163.751 78.5711 163.711L78.6572 165.937C77.5746 165.979 76.4867 166 75.3938 166C74.301 166 73.213 165.979 72.1304 165.937ZM85.1554 165.432L84.8961 163.219C87.0103 162.971 89.0992 162.642 91.1598 162.234L91.5923 164.42C89.4745 164.839 87.3278 165.178 85.1554 165.432ZM97.9326 162.903L97.3288 160.758C99.3726 160.183 101.383 159.529 103.358 158.801L104.129 160.891C102.1 161.64 100.033 162.312 97.9326 162.903ZM110.152 158.394L109.217 156.371C111.142 155.482 113.026 154.52 114.866 153.487L115.956 155.43C114.066 156.491 112.13 157.48 110.152 158.394ZM121.51 152.02L120.27 150.168C122.03 148.99 123.741 147.745 125.4 146.435L126.78 148.184C125.076 149.53 123.318 150.809 121.51 152.02ZM131.734 143.949L130.221 142.313C131.774 140.877 133.271 139.381 134.707 137.828L136.343 139.34C134.867 140.936 133.33 142.474 131.734 143.949ZM140.578 134.386L138.829 133.006C140.139 131.347 141.384 129.636 142.562 127.877L144.414 129.116C143.203 130.924 141.923 132.682 140.578 134.386Z" fill="#FFC700"/>
</svg>
