<svg preserveAspectRatio="none" viewBox="0 0 360 542" fill="none" xmlns="http://www.w3.org/2000/svg">
<path fill-rule="evenodd" clip-rule="evenodd" d="M0 0H360V542H0V0ZM60.5584 409.817C45.4226 409.817 34.8439 420.396 34.8439 439.519C34.8439 458.642 45.4226 469.221 62.5114 469.221C73.0901 469.221 81.2276 461.083 81.2276 451.725H79.1932C79.1932 459.863 71.8695 467.186 64.1389 467.186C55.5945 467.186 49.0845 460.676 49.0845 439.519C49.0845 418.361 55.5945 411.851 62.1045 411.851C73.0901 411.851 76.752 426.092 76.752 426.092H80.007V410.631H77.9726C77.9726 410.631 75.1245 412.258 73.497 415.106C73.497 415.106 68.2076 409.817 60.5584 409.817ZM8.82293 413.479V465.559L3.94043 466.779V468H27.1323V466.779L22.2498 465.559V413.479L27.1323 412.258V411.038H3.94043V412.258L8.82293 413.479ZM106.486 413.072V438.705H115.844C116.658 434.229 119.506 430.568 119.506 430.568H121.947V448.877H119.506C119.506 448.877 116.658 445.215 115.844 440.739H106.486V465.966H125.609C125.609 457.421 130.898 453.353 130.898 453.353H133.339V468H88.1763V466.779L93.0588 465.559V413.479L88.1763 412.258V411.038H131.712V425.685H129.271C129.271 425.685 123.981 421.616 123.981 413.072H106.486ZM140.625 411.038V412.258L145.507 413.479V465.559L140.625 466.779V468H184.161V453.353H181.719C181.719 453.353 176.43 457.421 176.43 465.966H158.934V413.479L163.817 412.258V411.038H140.625ZM198.918 451.318L193.547 464.338L199.65 466.779V468H184.596V466.779L191.106 464.338L213.484 410.224H215.926L239.117 465.559L243.186 466.779V468H233.421C227.318 468 224.063 464.745 222.517 461.083L218.367 451.318H198.918ZM217.553 449.284L208.602 427.882L199.732 449.284H217.553ZM290.765 447.249L264.725 416.734C262.691 414.293 259.843 411.038 253.333 411.038H244.788V412.258L250.484 413.886V464.338L243.974 466.779V468H259.436V466.779L252.926 464.338V424.871L290.765 469.221H293.206V414.699L299.716 412.258V411.038H284.255V412.258L290.765 414.699V447.249ZM305.839 412.258V411.038H326.589C346.119 411.038 356.698 421.616 356.698 439.519C356.698 457.421 346.119 468 326.589 468H305.839V466.779L310.721 465.559V413.479L305.839 412.258ZM342.457 439.519C342.457 419.582 335.947 413.072 326.589 413.072H324.148V465.966H326.589C335.947 465.966 342.457 459.456 342.457 439.519Z" fill="#102E43"/>
</svg>
