<svg preserveAspectRatio="none" viewBox="0 0 1920 905" fill="none" xmlns="http://www.w3.org/2000/svg">
<path fill-rule="evenodd" clip-rule="evenodd" d="M0 0H1920V905H0V0ZM322.979 521.69C242.256 521.69 185.836 578.11 185.836 680.101C185.836 782.09 242.256 838.51 333.396 838.51C389.815 838.51 433.216 795.11 433.216 745.201H422.366C422.366 788.601 383.306 827.661 342.076 827.661C296.506 827.661 261.786 792.94 261.786 680.101C261.786 567.261 296.506 532.54 331.226 532.54C389.815 532.54 409.346 608.49 409.346 608.49H426.706V526.03H415.855C415.855 526.03 400.666 534.71 391.986 549.9C391.986 549.9 363.775 521.69 322.979 521.69ZM47.0576 541.221V818.98L21.0176 825.49V832H144.708V825.49L118.668 818.98V541.221L144.708 534.71V528.2H21.0176V534.71L47.0576 541.221ZM567.926 539.051V675.76H617.835C622.176 651.891 637.365 632.36 637.365 632.36H650.386V730.01H637.365C637.365 730.01 622.176 710.48 617.835 686.61H567.926V821.15H669.915C669.915 775.581 698.125 753.88 698.125 753.88H711.146V832H470.275V825.49L496.315 818.98V541.221L470.275 534.71V528.2H702.466V606.32H689.445C689.445 606.32 661.235 584.62 661.235 539.051H567.926ZM750.002 528.2V534.71L776.042 541.221V818.98L750.002 825.49V832H982.192V753.88H969.172C969.172 753.88 940.962 775.581 940.962 821.15H847.652V541.221L873.692 534.71V528.2H750.002ZM1060.9 743.03L1032.25 812.471L1064.8 825.49V832H984.515V825.49L1019.23 812.471L1138.58 523.86H1151.6L1275.29 818.98L1296.99 825.49V832H1244.91C1212.36 832 1195 814.641 1186.76 795.11L1164.62 743.03H1060.9ZM1160.28 732.181L1112.54 618.038L1065.24 732.181H1160.28ZM1550.75 721.331L1411.87 558.58C1401.02 545.561 1385.83 528.2 1351.11 528.2H1305.54V534.71L1335.92 543.391V812.471L1301.2 825.49V832H1383.66V825.49L1348.94 812.471V601.98L1550.75 838.51H1563.77V547.73L1598.49 534.71V528.2H1516.03V534.71L1550.75 547.73V721.331ZM1631.14 534.71V528.2H1741.81C1845.97 528.2 1902.39 584.62 1902.39 680.101C1902.39 775.581 1845.97 832 1741.81 832H1631.14V825.49L1657.18 818.98V541.221L1631.14 534.71ZM1826.44 680.101C1826.44 573.771 1791.72 539.051 1741.81 539.051H1728.79V821.15H1741.81C1791.72 821.15 1826.44 786.431 1826.44 680.101Z" fill="#102E43"/>
</svg>
