<svg width="719" height="180" viewBox="0 0 719 180" fill="none" xmlns="http://www.w3.org/2000/svg">
<g opacity="0.1">
<path d="M13.6625 10.6242L0.1875 8.17421V4.49922H29.5875C38.2442 4.49922 45.3492 6.45922 50.9025 10.3792C56.4558 14.2992 60.3758 19.2809 62.6625 25.3242L99.6575 119.649L121.218 56.4392L103.088 10.6242L89.6125 8.17421V4.49922H119.013C127.669 4.49922 134.692 6.45922 140.082 10.3792C145.472 14.1359 149.474 19.1175 152.087 25.3242L189.083 119.649L224.363 15.5242L205.988 8.17421V4.49922H251.312V8.17421L231.713 15.5242L176.588 178.449H169.238L125.138 66.4842L87.1625 178.449H79.8125L13.6625 10.6242Z" fill="white"/>
<path d="M329.732 179.674C313.725 179.674 299.678 176.244 287.592 169.384C275.668 162.361 266.44 152.153 259.907 138.759C253.373 125.366 250.107 109.196 250.107 90.2492C250.107 71.3026 253.373 55.1326 259.907 41.7392C266.44 28.3459 275.668 18.2192 287.592 11.3592C299.678 4.33588 313.725 0.824219 329.732 0.824219C345.738 0.824219 359.703 4.33588 371.627 11.3592C383.713 18.2192 393.023 28.3459 399.557 41.7392C406.09 55.1326 409.357 71.3026 409.357 90.2492C409.357 109.196 406.09 125.366 399.557 138.759C393.023 152.153 383.713 162.361 371.627 169.384C359.703 176.244 345.738 179.674 329.732 179.674ZM329.732 174.774C336.102 174.774 341.982 172.079 347.372 166.689C352.925 161.299 357.498 152.316 361.092 139.739C364.685 127.163 366.482 110.666 366.482 90.2492C366.482 69.8326 364.685 53.3359 361.092 40.7592C357.498 28.1826 352.925 19.1992 347.372 13.8092C341.982 8.41921 336.102 5.72421 329.732 5.72421C323.362 5.72421 317.4 8.41921 311.847 13.8092C306.457 19.1992 301.965 28.1826 298.372 40.7592C294.778 53.3359 292.982 69.8326 292.982 90.2492C292.982 110.666 294.778 127.163 298.372 139.739C301.965 152.316 306.457 161.299 311.847 166.689C317.4 172.079 323.362 174.774 329.732 174.774Z" fill="white"/>
<path d="M424.229 10.6242L410.754 8.17421V4.49922H440.154C448.811 4.49922 455.916 6.45922 461.469 10.3792C467.022 14.2992 470.942 19.2809 473.229 25.3242L510.224 119.649L531.784 56.4392L513.654 10.6242L500.179 8.17421V4.49922H529.579C538.236 4.49922 545.259 6.45922 550.649 10.3792C556.039 14.1359 560.041 19.1175 562.654 25.3242L599.649 119.649L634.929 15.5242L616.554 8.17421V4.49922H661.879V8.17421L642.279 15.5242L587.154 178.449H579.804L535.704 66.4842L497.729 178.449H490.379L424.229 10.6242Z" fill="white"/>
<path d="M671.765 28.9992C671.765 20.5059 673.97 13.7276 678.38 8.66422C682.953 3.43755 688.507 0.824219 695.04 0.824219C701.573 0.824219 707.045 3.43755 711.455 8.66422C716.028 13.7276 718.315 20.5059 718.315 28.9992L698.715 123.324H691.365L671.765 28.9992ZM695.04 178.449C690.14 178.449 685.812 176.571 682.055 172.814C678.462 168.894 676.665 164.239 676.665 158.849C676.665 153.459 678.462 148.886 682.055 145.129C685.812 141.209 690.14 139.249 695.04 139.249C699.94 139.249 704.187 141.209 707.78 145.129C711.537 148.886 713.415 153.459 713.415 158.849C713.415 164.239 711.537 168.894 707.78 172.814C704.187 176.571 699.94 178.449 695.04 178.449Z" fill="white"/>
</g>
</svg>
