<svg width="70" height="71" viewBox="0 0 70 71" fill="none" xmlns="http://www.w3.org/2000/svg">
<path d="M10.4234 11.4578L9.78687 10.8213C9.15033 11.4578 8.51378 12.1739 7.95681 12.9696L8.67292 13.5266C9.15033 12.8105 9.78687 12.0943 10.4234 11.4578ZM14.4814 7.79767L13.9244 7.08156C13.2083 7.63853 12.4126 8.27508 11.7761 8.83206L12.4126 9.54817C13.0492 8.91162 13.7653 8.35465 14.4814 7.79767ZM1.59136 41.8528L0.636544 42.0119C0.795681 42.8872 1.03438 43.842 1.35266 44.7173L2.22791 44.5581C1.9892 43.6033 1.7505 42.728 1.59136 41.8528ZM4.21711 20.449L3.34186 20.0512C2.94402 20.9264 2.54618 21.8016 2.22791 22.6769L3.10315 22.9952C3.42143 22.1199 3.81927 21.2447 4.21711 20.449ZM6.92242 15.6749L6.12674 15.1179C5.56976 15.9136 5.09236 16.7093 4.61495 17.505L5.41063 17.9824C5.88804 17.1867 6.44501 16.4706 6.92242 15.6749ZM1.11395 30.952L0.159136 30.8724C0.0795681 31.7477 0 32.7025 0 33.6573H0.954817C0.954817 32.782 1.03438 31.8272 1.11395 30.952ZM0.954817 36.4422H0C0 37.397 0.0795681 38.3518 0.238704 39.2271L1.19352 39.1475C1.03438 38.2722 0.954817 37.3174 0.954817 36.4422ZM24.1091 2.70531L23.8704 1.83007C22.9952 2.14834 22.1199 2.46661 21.2447 2.86445L21.6425 3.7397C22.4382 3.34186 23.2339 3.02359 24.1091 2.70531ZM2.22791 25.5413L1.35266 25.3026C1.11395 26.1779 0.875249 27.1327 0.716112 28.008L1.59136 28.2467C1.7505 27.3714 1.9892 26.4166 2.22791 25.5413ZM19.0963 4.85365L18.6985 4.05797C17.9028 4.53538 17.0276 4.93322 16.2319 5.4902L16.7093 6.28588C17.505 5.7289 18.3007 5.25149 19.0963 4.85365ZM66.5985 19.892C66.2006 19.0168 65.7232 18.2211 65.2458 17.4254L64.4501 17.9028C64.9275 18.6985 65.3254 19.4942 65.7232 20.2899L66.5985 19.892ZM63.734 15.0384C63.177 14.2427 62.6201 13.5266 62.0631 12.8105L61.347 13.3674C61.9039 14.0835 62.4609 14.7997 63.0179 15.5158L63.734 15.0384ZM68.5877 25.1435C68.349 24.2683 68.0307 23.3134 67.7124 22.4382L66.8372 22.836C67.1554 23.7113 67.4737 24.5865 67.7124 25.4618L68.5877 25.1435ZM68.8264 30.7928L69.7812 30.7133C69.7016 29.7585 69.5425 28.8832 69.3038 27.9284L68.4285 28.0875C68.5081 28.9628 68.6672 29.9176 68.8264 30.7928ZM60.1535 10.7417C59.5169 10.1051 58.8008 9.38903 58.0847 8.83206L57.4481 9.54817C58.1642 10.1847 58.8008 10.8213 59.4373 11.4578L60.1535 10.7417ZM51.1623 3.9784C50.3666 3.58056 49.4913 3.10315 48.6161 2.78488L48.2182 3.66013C49.0935 3.9784 49.9687 4.37624 50.7644 4.77408L51.1623 3.9784ZM55.9363 7.00199C55.2202 6.44501 54.4246 5.88804 53.6289 5.41063L53.1515 6.20631C53.9471 6.68372 54.6633 7.24069 55.3794 7.79767L55.9363 7.00199ZM40.5001 0.39784C39.5453 0.238704 38.6701 0.159136 37.7153 0.0795681L37.6357 1.03438C38.5109 1.11395 39.4658 1.19352 40.341 1.35266L40.5001 0.39784ZM34.9304 0.954817V0C33.9756 0 33.0207 0.0795681 32.1455 0.0795681L32.2251 1.03438C33.1003 0.954817 33.9756 0.954817 34.9304 0.954817ZM45.9903 1.7505C45.1151 1.43223 44.1603 1.19352 43.285 0.954817L43.0463 1.83007C43.9216 2.06877 44.7968 2.30747 45.6721 2.62575L45.9903 1.7505ZM29.4402 1.35266L29.281 0.39784C28.3262 0.556976 27.451 0.716113 26.4962 0.954817L26.7349 1.83007C27.6101 1.7505 28.5649 1.51179 29.4402 1.35266ZM37.8744 68.9855L37.954 69.9403C38.9088 69.8608 39.8636 69.7812 40.7388 69.622L40.5797 68.6672C39.7045 68.7468 38.7496 68.9059 37.8744 68.9855ZM57.6868 60.3922L58.3234 61.1083C59.0395 60.4717 59.676 59.8352 60.3126 59.1191L59.676 58.4825C59.0395 59.1986 58.3234 59.8352 57.6868 60.3922ZM53.3106 63.734L53.788 64.5297C54.5837 64.0523 55.3794 63.4953 56.0955 62.9383L55.5385 62.2222C54.8224 62.6996 54.0267 63.2566 53.3106 63.734ZM43.285 68.0307L43.5237 68.9059C44.399 68.6672 45.3538 68.4285 46.229 68.1103L45.9108 67.235C45.0355 67.5533 44.1603 67.8716 43.285 68.0307ZM61.4265 56.4933L62.1427 57.0503C62.6996 56.3342 63.2566 55.5385 63.8136 54.8224L63.0179 54.2654C62.5405 55.0611 61.9835 55.7772 61.4265 56.4933ZM48.4569 66.2802L48.8548 67.1554C49.73 66.7576 50.6053 66.3598 51.401 65.9619L51.0031 65.1662C50.1279 65.5641 49.3322 65.9619 48.4569 66.2802ZM64.5297 51.9579L65.3254 52.4354C65.8028 51.6397 66.2006 50.7644 66.5985 49.9687L65.7232 49.5709C65.4049 50.3666 65.0071 51.1623 64.5297 51.9579ZM68.4285 41.6937L69.3833 41.8528C69.5425 40.898 69.7016 40.0227 69.8608 39.0679L68.8264 38.9883C68.7468 39.9432 68.5877 40.8184 68.4285 41.6937ZM2.22791 47.4226C2.54618 48.2978 2.94402 49.1731 3.34186 50.0483L4.21711 49.6505C3.81927 48.8548 3.42143 47.9795 3.10315 47.1043L2.22791 47.4226ZM32.2251 68.9855L32.1455 69.9403C33.1003 70.0199 34.0551 70.0199 35.0099 70.0199H35.1691V69.0651H35.0099C34.0551 69.0651 33.1799 69.0651 32.2251 68.9855ZM66.9167 47.0247L67.792 47.343C68.1103 46.4677 68.4285 45.5925 68.6672 44.6377L67.792 44.399C67.4737 45.2742 67.235 46.1495 66.9167 47.0247ZM69.9403 33.4981L68.9855 33.5777C68.9855 34.0551 68.9855 34.5325 68.9855 35.0895C68.9855 35.4874 68.9855 35.9648 68.9855 36.3626H69.9403C69.9403 35.9648 69.9403 35.4874 69.9403 35.0895C70.0199 34.5325 70.0199 33.9756 69.9403 33.4981ZM26.5757 68.9855C27.451 69.2242 28.4058 69.3833 29.3606 69.5425L29.5197 68.5877C28.6445 68.4285 27.6897 68.2694 26.8144 68.0307L26.5757 68.9855ZM35.0099 23.5521C28.7241 23.5521 23.5521 28.6445 23.5521 35.0099C23.5521 41.3754 28.6445 46.4677 35.0099 46.4677C41.2958 46.4677 46.4677 41.3754 46.4677 35.0099C46.4677 28.6445 41.2958 23.5521 35.0099 23.5521ZM35.0099 44.5581C29.7585 44.5581 25.4618 40.2614 25.4618 35.0099C25.4618 29.7585 29.7585 25.4618 35.0099 25.4618C40.2614 25.4618 44.5581 29.7585 44.5581 35.0099C44.5581 40.2614 40.2614 44.5581 35.0099 44.5581ZM46.3086 25.8596C47.2634 25.8596 48.0591 25.0639 48.0591 24.1091C48.0591 23.1543 47.2634 22.3586 46.3086 22.3586C45.3538 22.3586 44.5581 23.1543 44.5581 24.1091C44.6377 25.0639 45.3538 25.8596 46.3086 25.8596ZM7.87724 57.1299C8.43421 57.846 9.07076 58.5621 9.78687 59.1986L10.4234 58.5621C9.78687 57.9255 9.15033 57.2094 8.59335 56.4933L7.87724 57.1299ZM4.69452 52.5149C5.17192 53.3106 5.64933 54.1063 6.20631 54.902L7.00199 54.345C6.44501 53.6289 5.9676 52.8332 5.56976 52.0375L4.69452 52.5149ZM53.3902 43.4442V26.5757C53.3902 21.006 48.8548 16.5502 43.3646 16.5502H26.5757C21.006 16.5502 16.5502 21.0855 16.5502 26.5757V43.3646C16.5502 48.9344 21.0855 53.3902 26.5757 53.3902H43.3646C48.9344 53.4697 53.3902 48.9344 53.3902 43.4442ZM18.3802 43.4442V26.5757C18.3802 22.0404 22.0404 18.3802 26.5757 18.3802H43.3646C47.9 18.3802 51.5601 22.0404 51.5601 26.5757V43.3646C51.5601 47.9 47.9 51.5601 43.3646 51.5601H26.5757C22.0404 51.5601 18.3802 47.9 18.3802 43.4442ZM16.3115 64.6093C17.1071 65.0867 17.9028 65.5641 18.7781 66.0415L19.1759 65.2458C18.3802 64.848 17.5845 64.3706 16.7889 63.8932L16.3115 64.6093ZM68.1103 35.0099C68.1103 16.7093 53.231 1.83007 35.0099 1.83007C16.7093 1.83007 1.83007 16.7093 1.83007 35.0099C1.83007 53.3106 16.7093 68.1898 35.0099 68.1898C53.231 68.1898 68.1103 53.3106 68.1103 35.0099ZM2.78488 35.0099C2.78488 17.2663 17.1867 2.78488 35.0099 2.78488C52.7536 2.78488 67.235 17.2663 67.235 35.0099C67.235 52.7536 52.7536 67.235 35.0099 67.235C17.1867 67.235 2.78488 52.7536 2.78488 35.0099ZM21.2447 67.235C22.1199 67.6329 22.9952 67.9511 23.8704 68.2694L24.1887 67.3941C23.3134 67.0759 22.4382 66.7576 21.6425 66.4393L21.2447 67.235ZM11.7761 61.1878C12.4922 61.8244 13.2083 62.3814 13.9244 62.9383L14.4814 62.2222C13.7653 61.6652 13.0492 61.1083 12.333 60.4717L11.7761 61.1878Z" fill="#DE2B7C"/>
</svg>
