<svg width="27" height="27" viewBox="0 0 27 27" fill="none" xmlns="http://www.w3.org/2000/svg">
<path d="M17.1395 14.4415C17.1106 14.428 16.0265 13.91 15.8339 13.8427C15.7552 13.8153 15.671 13.7886 15.5814 13.7886C15.435 13.7886 15.3121 13.8593 15.2163 13.9984C15.108 14.1546 14.7802 14.5264 14.6789 14.6375C14.6657 14.6521 14.6476 14.6696 14.6368 14.6696C14.6271 14.6696 14.4593 14.6026 14.4085 14.5812C13.2457 14.091 12.363 12.9124 12.242 12.7136C12.2247 12.685 12.224 12.672 12.2238 12.672C12.2281 12.6569 12.2672 12.6189 12.2873 12.5993C12.3464 12.5426 12.4104 12.4678 12.4723 12.3956C12.5016 12.3613 12.5309 12.327 12.5597 12.2947C12.6495 12.1933 12.6895 12.1146 12.7358 12.0235L12.7601 11.9761C12.8733 11.758 12.7766 11.5738 12.7454 11.5144C12.7198 11.4647 12.2621 10.3927 12.2134 10.2801C12.0964 10.0084 11.9417 9.88184 11.7268 9.88184C11.7069 9.88184 11.7268 9.88184 11.6432 9.88526C11.5414 9.88942 10.9869 9.96026 10.7418 10.1102C10.4818 10.2692 10.042 10.7762 10.042 11.6678C10.042 12.4702 10.5668 13.2278 10.7921 13.516C10.7977 13.5232 10.808 13.538 10.8229 13.5592C11.6858 14.7819 12.7614 15.6881 13.8519 16.1108C14.9017 16.5177 15.3988 16.5647 15.6814 16.5647C15.6815 16.5647 15.6815 16.5647 15.6815 16.5647C15.8002 16.5647 15.8953 16.5557 15.9792 16.5477L16.0324 16.5428C16.395 16.5116 17.192 16.1108 17.3733 15.622C17.5161 15.237 17.5537 14.8163 17.4587 14.6636C17.3937 14.5598 17.2815 14.5076 17.1395 14.4415Z" fill="white"/>
<path d="M13.7055 6.34375C9.87272 6.34375 6.7545 9.43854 6.7545 13.2425C6.7545 14.4729 7.08376 15.6772 7.70751 16.7313L6.51364 20.253C6.4914 20.3186 6.50794 20.3912 6.55651 20.4407C6.59156 20.4765 6.63912 20.4958 6.68769 20.4958C6.7063 20.4958 6.72504 20.4929 6.74333 20.4871L10.4155 19.3202C11.4204 19.8571 12.5561 20.1405 13.7056 20.1405C17.538 20.1406 20.6559 17.0461 20.6559 13.2425C20.6559 9.43854 17.538 6.34375 13.7055 6.34375ZM13.7055 18.7035C12.624 18.7035 11.5764 18.3912 10.6759 17.8003C10.6456 17.7804 10.6105 17.7702 10.5751 17.7702C10.5564 17.7702 10.5376 17.7731 10.5194 17.7788L8.67986 18.3636L9.27369 16.6116C9.2929 16.5549 9.2833 16.4924 9.24792 16.4441C8.56219 15.5071 8.1997 14.4001 8.1997 13.2425C8.1997 10.231 10.6696 7.78082 13.7055 7.78082C16.741 7.78082 19.2106 10.231 19.2106 13.2425C19.2107 16.2537 16.7411 18.7035 13.7055 18.7035Z" fill="white"/>
<rect x="0.5" y="0.5" width="26" height="26" rx="13" stroke="white"/>
</svg>
