<svg width="36" height="36" viewBox="0 0 36 36" fill="none" xmlns="http://www.w3.org/2000/svg">
<path d="M2.34827 2.49937C-0.472603 5.42885 0.104733 8.54077 0.104733 17.9947C0.104733 25.8455 -1.26532 33.7158 5.90502 35.5686C8.14407 36.1443 27.9829 36.1443 30.219 35.5656C33.2044 34.7955 35.6334 32.3744 35.9654 28.1529C36.0118 27.5637 36.0118 8.4361 35.9639 7.83495C35.6109 3.33829 32.8424 0.746766 29.1944 0.221882C28.3583 0.100755 28.1908 0.0648651 23.9012 0.0573881C8.68551 0.0648651 5.35012 -0.61255 2.34827 2.49937Z" fill="#3B5999"/>
<path d="M23.8654 21.0458V35.9391V35.9996H18.5709V21.0458H15.5454V16.5051L18.629 16.4446V11.7828C18.629 9.36117 20.549 7.36328 22.8763 7.36328H28.6363V11.9645H25.0872C24.389 11.9645 23.8654 12.5699 23.8654 13.2359V16.4446H28.5781L28.1127 21.0458H23.8654Z" fill="white"/>
</svg>
