<svg width="36" height="36" viewBox="0 0 36 36" fill="none" xmlns="http://www.w3.org/2000/svg">
<path d="M2.34827 2.49937C-0.472603 5.42885 0.104733 8.54077 0.104733 17.9947C0.104733 25.8455 -1.26532 33.7158 5.90502 35.5686C8.14407 36.1443 27.9829 36.1443 30.219 35.5656C33.2044 34.7955 35.6334 32.3744 35.9654 28.1529C36.0118 27.5637 36.0118 8.4361 35.9639 7.83495C35.6109 3.33829 32.8424 0.746766 29.1944 0.221882C28.3583 0.100755 28.1908 0.064865 23.9012 0.0573881C8.68551 0.064865 5.35012 -0.61255 2.34827 2.49937Z" fill="url(#paint0_linear)"/>
<path d="M18.0508 4.75302C12.62 4.75302 7.46281 4.27001 5.49299 9.32445C4.67933 11.412 4.79749 14.1232 4.79749 18.0052C4.79749 21.4117 4.6883 24.6134 5.49299 26.6845C7.45832 31.7419 12.6573 31.2574 18.0478 31.2574C23.2483 31.2574 28.6104 31.7988 30.6041 26.6845C31.4193 24.576 31.2996 21.9052 31.2996 18.0052C31.2996 12.8282 31.5853 9.48595 29.074 6.97668C26.5314 4.4345 23.0928 4.75302 18.0448 4.75302H18.0508ZM16.8632 7.14117C28.1916 7.12323 29.6334 5.86411 28.8377 23.3558C28.555 29.5422 23.8436 28.8633 18.0523 28.8633C7.49272 28.8633 7.1891 28.5612 7.1891 17.9992C7.1891 7.31464 8.02669 7.14715 16.8632 7.13818V7.14117ZM25.1254 9.3409C24.2475 9.3409 23.5355 10.0527 23.5355 10.9305C23.5355 11.8083 24.2475 12.5201 25.1254 12.5201C26.0034 12.5201 26.7153 11.8083 26.7153 10.9305C26.7153 10.0527 26.0034 9.3409 25.1254 9.3409ZM18.0508 11.1997C14.2921 11.1997 11.2454 14.2473 11.2454 18.0052C11.2454 21.7632 14.2921 24.8093 18.0508 24.8093C21.8095 24.8093 24.8547 21.7632 24.8547 18.0052C24.8547 14.2473 21.8095 11.1997 18.0508 11.1997ZM18.0508 13.5878C23.8915 13.5878 23.899 22.4226 18.0508 22.4226C12.2116 22.4226 12.2027 13.5878 18.0508 13.5878Z" fill="white"/>
<defs>
<linearGradient id="paint0_linear" x1="2.4171" y1="33.6546" x2="35.7736" y2="4.77931" gradientUnits="userSpaceOnUse">
<stop stop-color="#FFDD55"/>
<stop offset="0.5" stop-color="#FF543E"/>
<stop offset="1" stop-color="#C837AB"/>
</linearGradient>
</defs>
</svg>
