<svg width="36" height="36" viewBox="0 0 36 36" fill="none" xmlns="http://www.w3.org/2000/svg">
<path d="M2.34827 2.49937C-0.472603 5.42885 0.104733 8.54077 0.104733 17.9947C0.104733 25.8455 -1.26532 33.7158 5.90502 35.5686C8.14407 36.1443 27.9829 36.1443 30.219 35.5656C33.2044 34.7955 35.6334 32.3744 35.9654 28.1529C36.0118 27.5637 36.0118 8.4361 35.9639 7.83495C35.6109 3.33829 32.8424 0.746766 29.1944 0.221882C28.3583 0.100755 28.1908 0.064865 23.9012 0.0573881C8.68551 0.064865 5.35012 -0.61255 2.34827 2.49937Z" fill="#4680C2"/>
<path d="M28.1564 22.9724C28.0955 22.8706 27.7193 22.053 25.9087 20.3725C24.0132 18.6128 24.2678 18.8985 26.5509 15.8558C27.9414 14.0028 28.4973 12.8712 28.3233 12.3874C28.1578 11.9262 27.1351 12.0479 27.1351 12.0479L23.7345 12.0677C23.7345 12.0677 23.4827 12.0337 23.2946 12.1455C23.1121 12.2558 22.9947 12.5104 22.9947 12.5104C22.9947 12.5104 22.4558 13.9448 21.7372 15.1641C20.2222 17.7372 19.6154 17.873 19.3678 17.7131C18.7921 17.3411 18.9364 16.2166 18.9364 15.4187C18.9364 12.9249 19.3141 11.8852 18.1994 11.6165C17.8288 11.5273 17.5572 11.4679 16.6109 11.458C15.3972 11.4453 14.3688 11.4623 13.7874 11.7466C13.3999 11.9361 13.1014 12.3591 13.2839 12.3831C13.5088 12.4128 14.018 12.5203 14.2882 12.8881C14.6376 13.362 14.6248 14.4286 14.6248 14.4286C14.6248 14.4286 14.8257 17.3637 14.1566 17.7287C13.6969 17.9791 13.0674 17.4684 11.7165 15.133C11.0248 13.9377 10.5015 12.6151 10.5015 12.6151C10.5015 12.6151 10.401 12.369 10.2214 12.2374C10.0035 12.0776 9.69799 12.0267 9.69799 12.0267L6.46434 12.0465C6.46434 12.0465 5.97916 12.0606 5.80092 12.2714C5.64249 12.4595 5.78819 12.8471 5.78819 12.8471C5.78819 12.8471 8.32023 18.7698 11.1861 21.7559C13.8157 24.493 16.8004 24.3134 16.8004 24.3134H18.1527C18.1527 24.3134 18.5615 24.2681 18.7695 24.0432C18.9618 23.8367 18.9548 23.4491 18.9548 23.4491C18.9548 23.4491 18.9279 21.6343 19.771 21.3669C20.6013 21.1038 21.6679 23.1209 22.7981 23.8975C23.6525 24.4846 24.3017 24.3558 24.3017 24.3558L27.3246 24.3134C27.3246 24.3134 28.9061 24.2158 28.1564 22.9724Z" fill="white"/>
</svg>
