<svg width="148" height="163" viewBox="0 0 148 163" fill="none" xmlns="http://www.w3.org/2000/svg">
<path fill-rule="evenodd" clip-rule="evenodd" d="M117.162 11.6755C115.18 10.4103 113.139 9.22897 111.045 8.13653L111.97 6.36328C114.116 7.48278 116.207 8.69332 118.238 9.98977L117.162 11.6755ZM36.2278 8.13653C34.1335 9.22898 32.0929 10.4103 30.111 11.6755L29.0348 9.98977C31.0656 8.69332 33.1567 7.48278 35.3028 6.36329L36.2278 8.13653ZM128.359 20.2795C126.623 18.6879 124.817 17.171 122.947 15.7339L124.166 14.1481C126.082 15.6205 127.932 17.1746 129.711 18.8053L128.359 20.2795ZM24.3255 15.7339C22.4554 17.171 20.6498 18.6879 18.9138 20.2795L17.5623 18.8053C19.3409 17.1746 21.1908 15.6205 23.1068 14.1481L24.3255 15.7339ZM137.902 30.6888C136.465 28.8187 134.948 27.0131 133.357 25.2771L134.831 23.9256C136.462 25.7042 138.016 27.5541 139.488 29.4701L137.902 30.6888ZM13.9162 25.2771C12.3246 27.0131 10.8077 28.8187 9.37063 30.6888L7.78479 29.4701C9.25719 27.5541 10.8113 25.7042 12.442 23.9256L13.9162 25.2771ZM145.5 42.5911C144.407 40.4968 143.226 38.4562 141.961 36.4743L143.646 35.3981C144.943 37.4289 146.153 39.5199 147.273 41.6661L145.5 42.5911ZM5.31226 36.4743C4.04703 38.4562 2.86569 40.4968 1.77325 42.5911L0 41.6661C1.1195 39.52 2.33004 37.4289 3.62649 35.3981L5.31226 36.4743ZM141.961 123.525C143.226 121.543 144.407 119.503 145.5 117.408L147.273 118.333C146.153 120.48 144.943 122.571 143.646 124.601L141.961 123.525ZM1.77325 117.408C2.86569 119.503 4.04703 121.543 5.31227 123.525L3.62649 124.601C2.33004 122.571 1.1195 120.48 3.8147e-06 118.333L1.77325 117.408ZM9.37063 129.311C10.8077 131.181 12.3246 132.986 13.9162 134.722L12.442 136.074C10.8113 134.295 9.2572 132.445 7.78479 130.529L9.37063 129.311ZM133.357 134.722C134.948 132.986 136.465 131.181 137.902 129.311L139.488 130.529C138.016 132.445 136.462 134.295 134.831 136.074L133.357 134.722ZM18.9138 139.72C20.6498 141.312 22.4554 142.829 24.3255 144.266L23.1068 145.851C21.1908 144.379 19.3409 142.825 17.5623 141.194L18.9138 139.72ZM122.947 144.266C124.818 142.829 126.623 141.312 128.359 139.72L129.711 141.194C127.932 142.825 126.082 144.379 124.166 145.851L122.947 144.266ZM30.111 148.324C32.0929 149.589 34.1335 150.771 36.2278 151.863L35.3028 153.636C33.1567 152.517 31.0656 151.306 29.0348 150.01L30.111 148.324ZM111.045 151.863C113.139 150.771 115.18 149.589 117.162 148.324L118.238 150.01C116.207 151.306 114.116 152.517 111.97 153.636L111.045 151.863ZM42.6309 154.854C44.7986 155.753 47.0137 156.56 49.2715 157.271L48.6706 159.179C46.3566 158.45 44.0864 157.623 41.8648 156.701L42.6309 154.854ZM98.0014 157.271C100.259 156.56 102.474 155.753 104.642 154.854L105.408 156.701C103.187 157.623 100.916 158.45 98.6023 159.179L98.0014 157.271ZM56.0963 159.096C58.3813 159.6 60.7027 160.008 63.0559 160.315L62.7972 162.298C60.3859 161.984 58.007 161.566 55.6652 161.049L56.0963 159.096ZM84.2171 160.315C86.5703 160.008 88.8916 159.6 91.1766 159.096L91.6078 161.049C89.2659 161.566 86.8871 161.984 84.4758 162.298L84.2171 160.315ZM70.099 160.924C71.2718 160.974 72.4511 161 73.6365 161C74.8218 161 76.0011 160.974 77.1739 160.924L77.2598 162.922C76.0584 162.974 74.8504 163 73.6365 163C72.4225 163 71.2146 162.974 70.0132 162.922L70.099 160.924Z" fill="#FFC700"/>
<path d="M96.6367 31.1309C96.6367 24.4259 92.1189 18.5678 85.7481 16.8025C85.3476 7.46967 77.6309 0 68.2012 0C58.5159 0 50.6367 7.87923 50.6367 17.5645C50.6367 20.7209 51.4769 23.7942 53.0723 26.4923L50.7013 35.064L59.2733 32.6933C61.7535 34.1599 64.5513 34.9861 67.4389 35.1107C69.2038 41.4818 75.0623 46 81.7676 46C84.4439 46 87.0466 45.2872 89.3334 43.9329L96.5718 45.9351L94.5696 38.6967C95.9239 36.4099 96.6367 33.8072 96.6367 31.1309ZM59.6987 29.779L54.567 31.1986L55.9866 26.067L55.6631 25.5609C54.1382 23.1751 53.332 20.41 53.332 17.5645C53.332 9.36551 60.0022 2.69531 68.2012 2.69531C76.4001 2.69531 83.0703 9.36551 83.0703 17.5645C83.0703 25.7634 76.4001 32.4336 68.2012 32.4336C65.3557 32.4336 62.5909 31.6275 60.2047 30.1026L59.6987 29.779ZM92.7064 42.0697L88.8986 41.0161L88.39 41.3471C86.4187 42.6277 84.1284 43.3047 81.7676 43.3047C76.4977 43.3047 71.8669 39.8973 70.2262 35.0113C78.296 34.081 84.7177 27.6592 85.6484 19.5891C90.534 21.2301 93.9414 25.861 93.9414 31.1309C93.9414 33.4917 93.2644 35.782 91.9838 37.7533L91.6528 38.2619L92.7064 42.0697Z" fill="#FFC700"/>
<path d="M66.8535 24.3477H69.5488V27.043H66.8535V24.3477Z" fill="#FFC700"/>
<path d="M70.8965 13.4766C70.8965 14.242 70.5848 14.9485 70.0191 15.4661L66.8535 18.3636V21.6523H69.5488V19.5505L71.8388 17.4546C72.9527 16.4351 73.5918 14.9853 73.5918 13.4766C73.5918 10.504 71.1737 8.08594 68.2012 8.08594C65.2286 8.08594 62.8105 10.504 62.8105 13.4766H65.5059C65.5059 11.9903 66.7149 10.7812 68.2012 10.7812C69.6875 10.7812 70.8965 11.9903 70.8965 13.4766Z" fill="#FFC700"/>
</svg>
