<svg width="148" height="168" viewBox="0 0 148 168" fill="none" xmlns="http://www.w3.org/2000/svg">
<path fill-rule="evenodd" clip-rule="evenodd" d="M49.2715 7.72791C47.0137 8.43913 44.7986 9.24659 42.6309 10.1455L41.8648 8.29804C44.0864 7.3768 46.3566 6.54924 48.6706 5.82031L49.2715 7.72791ZM104.642 10.1455C102.474 9.24659 100.259 8.43913 98.0014 7.72791L98.6023 5.82031C100.916 6.54925 103.187 7.3768 105.408 8.29804L104.642 10.1455ZM117.162 16.6754C115.18 15.4101 113.139 14.2288 111.045 13.1363L111.97 11.3631C114.116 12.4826 116.207 13.6931 118.238 14.9896L117.162 16.6754ZM36.2278 13.1364C34.1335 14.2288 32.0929 15.4101 30.111 16.6754L29.0348 14.9896C31.0656 13.6931 33.1567 12.4826 35.3028 11.3631L36.2278 13.1364ZM128.359 25.2793C126.623 23.6877 124.817 22.1708 122.947 20.7337L124.166 19.1479C126.082 20.6203 127.932 22.1744 129.711 23.8051L128.359 25.2793ZM24.3255 20.7337C22.4554 22.1708 20.6498 23.6877 18.9138 25.2793L17.5623 23.8051C19.3409 22.1744 21.1908 20.6203 23.1068 19.1479L24.3255 20.7337ZM137.902 35.6886C136.465 33.8185 134.948 32.0129 133.357 30.2769L134.831 28.9254C136.462 30.704 138.016 32.5539 139.488 34.4699L137.902 35.6886ZM13.9162 30.2769C12.3246 32.0129 10.8077 33.8185 9.37063 35.6886L7.78479 34.4699C9.25719 32.5539 10.8113 30.704 12.442 28.9254L13.9162 30.2769ZM145.5 47.5909C144.407 45.4966 143.226 43.456 141.961 41.4741L143.646 40.3979C144.943 42.4287 146.153 44.5198 147.273 46.6659L145.5 47.5909ZM5.31226 41.4741C4.04703 43.456 2.86569 45.4966 1.77325 47.5909L0 46.6659C1.1195 44.5198 2.33004 42.4287 3.62649 40.3979L5.31226 41.4741ZM141.961 128.525C143.226 126.543 144.407 124.503 145.5 122.408L147.273 123.333C146.153 125.479 144.943 127.57 143.646 129.601L141.961 128.525ZM1.77325 122.408C2.86569 124.503 4.04703 126.543 5.31227 128.525L3.62649 129.601C2.33004 127.57 1.1195 125.479 3.8147e-06 123.333L1.77325 122.408ZM9.37063 134.311C10.8077 136.181 12.3246 137.986 13.9162 139.722L12.442 141.074C10.8113 139.295 9.2572 137.445 7.78479 135.529L9.37063 134.311ZM133.357 139.722C134.948 137.986 136.465 136.181 137.902 134.311L139.488 135.529C138.016 137.445 136.462 139.295 134.831 141.074L133.357 139.722ZM18.9138 144.72C20.6498 146.311 22.4554 147.828 24.3255 149.265L23.1068 150.851C21.1908 149.379 19.3409 147.825 17.5623 146.194L18.9138 144.72ZM122.947 149.265C124.818 147.828 126.623 146.311 128.359 144.72L129.711 146.194C127.932 147.825 126.082 149.379 124.166 150.851L122.947 149.265ZM30.111 153.324C32.0929 154.589 34.1335 155.77 36.2278 156.863L35.3028 158.636C33.1567 157.517 31.0656 156.306 29.0348 155.01L30.111 153.324ZM111.045 156.863C113.139 155.77 115.18 154.589 117.162 153.324L118.238 155.01C116.207 156.306 114.116 157.517 111.97 158.636L111.045 156.863ZM42.6309 159.854C44.7986 160.753 47.0137 161.56 49.2715 162.271L48.6706 164.179C46.3566 163.45 44.0864 162.622 41.8648 161.701L42.6309 159.854ZM98.0014 162.271C100.259 161.56 102.474 160.753 104.642 159.854L105.408 161.701C103.187 162.622 100.916 163.45 98.6023 164.179L98.0014 162.271ZM56.0963 164.096C58.3813 164.6 60.7027 165.008 63.0559 165.315L62.7972 167.298C60.3859 166.984 58.007 166.566 55.6652 166.049L56.0963 164.096ZM84.2171 165.315C86.5703 165.008 88.8916 164.6 91.1766 164.096L91.6078 166.049C89.2659 166.566 86.8871 166.984 84.4758 167.298L84.2171 165.315ZM70.099 165.924C71.2718 165.974 72.4511 166 73.6365 166C74.8218 166 76.0011 165.974 77.1739 165.924L77.2598 167.922C76.0584 167.973 74.8504 168 73.6365 168C72.4225 168 71.2146 167.973 70.0132 167.922L70.099 165.924Z" fill="#FFC700"/>
<path d="M74.5 0C63.1581 0 54 9.15813 54 20.5C54 31.8419 63.1581 41 74.5 41C85.8419 41 95 31.8419 95 20.5C95 9.15813 85.8419 0 74.5 0ZM74.5 39.2564C64.123 39.2564 55.7436 30.8854 55.7436 20.5C55.7436 10.1146 64.123 1.7436 74.5 1.7436C84.877 1.7436 93.2564 10.123 93.2564 20.5C93.2564 30.877 84.877 39.2564 74.5 39.2564Z" fill="#FFC700"/>
<path d="M74.5004 4.35938C65.6046 4.35938 58.3594 11.6046 58.3594 20.5004C58.3594 29.3961 65.6046 36.6414 74.5004 36.6414C83.3961 36.6414 90.6414 29.3961 90.6414 20.5004C90.6414 11.6046 83.3961 4.35938 74.5004 4.35938ZM74.5004 34.8893C66.5611 34.8893 60.1114 28.4312 60.1114 20.5004C60.1114 12.5695 66.5611 6.11144 74.5004 6.11144C82.4397 6.11144 88.8893 12.5695 88.8893 20.5004C88.8893 28.4312 82.4397 34.8893 74.5004 34.8893Z" fill="#FFC700"/>
<path d="M72.0539 15.0068C72.8411 14.482 73.7975 14.2196 74.8471 14.2196C75.8966 14.2196 76.7684 14.3974 77.4625 14.7444C78.1565 15.0914 78.9437 15.6162 79.7308 16.488L81.6522 14.0419C79.9932 12.0359 77.8179 10.9863 74.9317 10.9863C73.0103 10.9863 71.2667 11.5957 69.7855 12.7299C68.3043 13.8641 67.2548 15.43 66.6454 17.3513H63.8522V19.535H66.2052C66.2052 19.7974 66.2052 20.0598 66.2052 20.4915C66.2052 20.9232 66.2052 21.3633 66.2899 21.8034H63.8438V24.0718H66.7215C67.331 25.8154 68.3805 27.2966 69.7771 28.3462C71.2583 29.3957 72.9172 29.912 74.7455 29.912C77.4455 29.912 79.6293 28.9556 81.2882 26.8565L79.3669 24.5881C78.5797 25.3753 77.8857 25.9847 77.1831 26.3317C76.5737 26.6787 75.7019 26.8565 74.737 26.8565C72.8157 26.8565 71.3345 25.9 70.378 24.0633H76.5737V21.795H69.684C69.5993 21.4479 69.5993 21.0078 69.5993 20.5761C69.5993 20.136 69.5993 19.789 69.5993 19.6197H76.5737V17.3513H70.2087C70.5727 16.3102 71.1821 15.5315 72.0539 15.0068Z" fill="#FFC700"/>
</svg>
