<svg width="746" height="216" viewBox="0 0 746 216" fill="none" xmlns="http://www.w3.org/2000/svg">
<g opacity="0.1">
<path d="M164.427 215.651C160.507 212.874 156.996 209.281 153.892 204.871C147.032 195.397 143.602 185.107 143.602 174.001H0.277344V170.326L14.9773 166.651V9.85079L0.277344 6.17578V2.50078H70.1023V6.17578L55.4023 9.85079V167.876H108.077V9.85079L93.3773 6.17578V2.50078H163.202V6.17578L148.502 9.85079V167.876H171.777V215.651H164.427Z" fill="white"/>
<path d="M187.616 170.326L202.316 166.651V9.85079L187.616 6.17578V2.50078H318.691V46.6008H311.341C308.238 44.1508 305.543 41.0474 303.256 37.2908C298.03 28.4708 295.416 18.9158 295.416 8.62579H242.741V85.8008H270.916C272.06 79.5941 274.183 73.7958 277.286 68.4058C278.593 65.9558 280.145 63.5875 281.941 61.3008H289.291V116.426H281.941C280.145 114.139 278.593 111.771 277.286 109.321C274.183 103.931 272.06 98.1325 270.916 91.9258H242.741V167.876H300.316C300.316 157.586 302.93 148.031 308.156 139.211C310.443 135.454 313.138 132.351 316.241 129.901H323.591V174.001H187.616V170.326Z" fill="white"/>
<path d="M371.251 39.2508L338.176 2.50078H370.026L379.826 39.2508H371.251Z" fill="white"/>
<path d="M399.359 174.001V170.326L414.059 166.651V9.85079L399.359 6.17578V2.50078H469.184V6.17578L454.484 9.85079V85.8008H507.159V9.85079L492.459 6.17578V2.50078H562.284V6.17578L547.584 9.85079V166.651L562.284 170.326V174.001H492.459V170.326L507.159 166.651V91.9258H454.484V166.651L469.184 170.326V174.001H399.359Z" fill="white"/>
<path d="M569.548 170.326L589.148 162.976L656.523 0.0507812H663.873L733.698 166.651L745.948 170.326V174.001H716.548C708.055 174.001 701.113 172.122 695.723 168.366C690.333 164.446 686.332 159.382 683.718 153.176L671.223 123.776H612.668L596.498 162.976L614.873 170.326V174.001H569.548V170.326ZM615.118 117.651H668.773L641.823 53.2158L615.118 117.651Z" fill="white"/>
</g>
</svg>
