<svg width="148" height="166" viewBox="0 0 148 166" fill="none" xmlns="http://www.w3.org/2000/svg">
<path fill-rule="evenodd" clip-rule="evenodd" d="M49.2715 5.72791C47.0137 6.43913 44.7986 7.24659 42.6309 8.14549L41.8648 6.29804C44.0864 5.3768 46.3566 4.54924 48.6706 3.82031L49.2715 5.72791ZM104.642 8.14549C102.474 7.24659 100.259 6.43913 98.0014 5.72791L98.6023 3.82031C100.916 4.54925 103.187 5.3768 105.408 6.29804L104.642 8.14549ZM117.162 14.6754C115.18 13.4101 113.139 12.2288 111.045 11.1363L111.97 9.3631C114.116 10.4826 116.207 11.6931 118.238 12.9896L117.162 14.6754ZM36.2278 11.1364C34.1335 12.2288 32.0929 13.4101 30.111 14.6754L29.0348 12.9896C31.0656 11.6931 33.1567 10.4826 35.3028 9.3631L36.2278 11.1364ZM128.359 23.2793C126.623 21.6877 124.817 20.1708 122.947 18.7337L124.166 17.1479C126.082 18.6203 127.932 20.1744 129.711 21.8051L128.359 23.2793ZM24.3255 18.7337C22.4554 20.1708 20.6498 21.6877 18.9138 23.2793L17.5623 21.8051C19.3409 20.1744 21.1908 18.6203 23.1068 17.1479L24.3255 18.7337ZM137.902 33.6886C136.465 31.8185 134.948 30.0129 133.357 28.2769L134.831 26.9254C136.462 28.704 138.016 30.5539 139.488 32.4699L137.902 33.6886ZM13.9162 28.2769C12.3246 30.0129 10.8077 31.8185 9.37063 33.6886L7.78479 32.4699C9.25719 30.5539 10.8113 28.704 12.442 26.9254L13.9162 28.2769ZM145.5 45.5909C144.407 43.4966 143.226 41.456 141.961 39.4741L143.646 38.3979C144.943 40.4287 146.153 42.5198 147.273 44.6659L145.5 45.5909ZM5.31226 39.4741C4.04703 41.456 2.86569 43.4966 1.77325 45.5909L0 44.6659C1.1195 42.5198 2.33004 40.4287 3.62649 38.3979L5.31226 39.4741ZM141.961 126.525C143.226 124.543 144.407 122.503 145.5 120.408L147.273 121.333C146.153 123.479 144.943 125.57 143.646 127.601L141.961 126.525ZM1.77325 120.408C2.86569 122.503 4.04703 124.543 5.31227 126.525L3.62649 127.601C2.33004 125.57 1.1195 123.479 3.8147e-06 121.333L1.77325 120.408ZM9.37063 132.311C10.8077 134.181 12.3246 135.986 13.9162 137.722L12.442 139.074C10.8113 137.295 9.2572 135.445 7.78479 133.529L9.37063 132.311ZM133.357 137.722C134.948 135.986 136.465 134.181 137.902 132.311L139.488 133.529C138.016 135.445 136.462 137.295 134.831 139.074L133.357 137.722ZM18.9138 142.72C20.6498 144.311 22.4554 145.828 24.3255 147.265L23.1068 148.851C21.1908 147.379 19.3409 145.825 17.5623 144.194L18.9138 142.72ZM122.947 147.265C124.818 145.828 126.623 144.311 128.359 142.72L129.711 144.194C127.932 145.825 126.082 147.379 124.166 148.851L122.947 147.265ZM30.111 151.324C32.0929 152.589 34.1335 153.77 36.2278 154.863L35.3028 156.636C33.1567 155.517 31.0656 154.306 29.0348 153.01L30.111 151.324ZM111.045 154.863C113.139 153.77 115.18 152.589 117.162 151.324L118.238 153.01C116.207 154.306 114.116 155.517 111.97 156.636L111.045 154.863ZM42.6309 157.854C44.7986 158.753 47.0137 159.56 49.2715 160.271L48.6706 162.179C46.3566 161.45 44.0864 160.622 41.8648 159.701L42.6309 157.854ZM98.0014 160.271C100.259 159.56 102.474 158.753 104.642 157.854L105.408 159.701C103.187 160.622 100.916 161.45 98.6023 162.179L98.0014 160.271ZM56.0963 162.096C58.3813 162.6 60.7027 163.008 63.0559 163.315L62.7972 165.298C60.3859 164.984 58.007 164.566 55.6652 164.049L56.0963 162.096ZM84.2171 163.315C86.5703 163.008 88.8916 162.6 91.1766 162.096L91.6078 164.049C89.2659 164.566 86.8871 164.984 84.4758 165.298L84.2171 163.315ZM70.099 163.924C71.2718 163.974 72.4511 164 73.6365 164C74.8218 164 76.0011 163.974 77.1739 163.924L77.2598 165.922C76.0584 165.973 74.8504 166 73.6365 166C72.4225 166 71.2146 165.973 70.0132 165.922L70.099 163.924Z" fill="#FFC700"/>
<path d="M73.4482 3.6195C84.238 3.6195 93.0171 12.3986 93.0171 23.1883C93.0171 33.9781 84.238 42.7535 73.4482 42.7535C62.6585 42.7535 53.8812 33.9762 53.8812 23.1865C53.8812 12.3968 62.6585 3.6195 73.4482 3.6195ZM73.4482 0C60.6424 0 50.2617 10.3807 50.2617 23.1865C50.2617 35.9923 60.6424 46.373 73.4482 46.373C86.254 46.373 96.6366 35.9923 96.6366 23.1865C96.6366 10.3807 86.254 0 73.4482 0Z" fill="#FFC700"/>
<path d="M73.4483 32.4063C69.7999 32.4063 66.5405 30.7088 66.5405 32.8026C66.5405 35.2621 69.7727 35.5969 73.4483 35.5969C79.8585 35.5969 84.1711 33.4125 85.9772 27.8584C82.5894 32.6579 78.9916 32.4063 73.4483 32.4063Z" fill="#FFC700"/>
<path d="M89.7363 18.0711C89.7363 25.0332 84.5858 26.6167 81.5924 26.6167C78.5991 26.6167 75.2583 24.9337 75.2583 19.5677C75.2583 16.569 76.983 15.9482 81.5924 15.9482C88.8513 15.9482 89.7363 16.0243 89.7363 18.0711Z" fill="#FFC700"/>
<path d="M57.1602 18.0711C57.1602 25.0332 62.3107 26.6167 65.304 26.6167C68.2974 26.6167 71.6382 24.9337 71.6382 19.5677C71.6382 16.569 69.9135 15.9482 65.304 15.9482C58.0451 15.9482 57.1602 16.0243 57.1602 18.0711Z" fill="#FFC700"/>
<path d="M67.1016 23.0836C67.1016 20.1608 69.9175 17.79 73.3904 17.79C76.8634 17.79 79.6793 20.1608 79.6793 23.0836" stroke="#FFC700" stroke-width="1.7746" stroke-miterlimit="10" stroke-linecap="round" stroke-linejoin="round"/>
<path d="M86.1167 19.5672C86.1167 19.5672 92.1975 19.8477 95.1654 17.79" stroke="#FFC700" stroke-width="2" stroke-miterlimit="10" stroke-linecap="round" stroke-linejoin="round"/>
<path d="M60.7797 19.5672C60.7797 19.5672 54.6989 19.8477 51.731 17.79" stroke="#FFC700" stroke-width="2" stroke-miterlimit="10" stroke-linecap="round" stroke-linejoin="round"/>
</svg>
