<svg width="112" height="112" viewBox="0 0 112 112" fill="none" xmlns="http://www.w3.org/2000/svg">
<circle cx="56" cy="56" r="56" fill="white"/>
<path d="M85.6751 32.4588L83.0359 33.7187C87.5519 39.5203 90.2204 46.7869 90.2204 54.6688C90.2204 56.5441 90.0738 58.3607 89.7805 60.1481C89.7512 60.1188 89.7512 60.0895 89.7219 60.0895C86.7015 55.2841 83.3584 48.8379 81.2177 48.6914C77.6695 48.4277 73.0068 50.8011 73.0068 50.8011C73.0068 50.8011 60.6905 36.8246 56.3211 36.8246C52.245 36.8246 42.04 48.457 42.04 48.457C42.04 48.457 39.0782 45.7613 37.0548 45.8785C34.5622 46.0251 29.1372 54.1414 23.8881 59.8257C23.3016 60.4704 22.8031 60.9978 22.3925 61.408C21.9527 59.2397 21.7181 56.9836 21.7181 54.6981C21.7181 45.5855 25.2957 37.2934 31.1313 31.1695L27.8469 30.5249C22.2459 37.0297 18.8442 45.4683 18.8442 54.6981C18.8442 75.1501 35.5006 91.793 55.9692 91.793C76.4378 91.793 93.0942 75.1501 93.0942 54.6981C93.0942 46.3474 90.3377 38.6705 85.6751 32.4588ZM79.9861 51.3285C81.1004 51.3285 83.1532 54.5223 83.1532 54.5223C83.1532 54.5223 80.8365 53.2331 79.9861 53.028C78.9304 52.7935 75.7047 53.028 75.7047 53.028C75.7047 53.028 77.8454 51.3285 79.9861 51.3285ZM56.6144 40.2528C59.4882 40.2528 67.9923 50.0393 67.9923 50.0393C67.9923 50.0393 58.6084 44.267 55.0602 44.0326C50.984 43.7689 48.0809 46.699 48.0809 46.699C48.0809 46.699 53.9165 40.2528 56.6144 40.2528ZM37.2894 48.6914C39.0489 48.6914 44.298 53.5554 44.298 53.5554C44.298 53.5554 39.5181 51.1527 38.7263 51.3578C38.1985 51.475 38.8436 53.5261 38.8436 53.5261C38.8436 53.5261 36.9962 51.6215 36.1751 51.6215C35.0901 51.6215 31.7471 54.5516 31.7471 54.5516C31.7471 54.5516 35.2954 48.6914 37.2894 48.6914Z" fill="#FFBA01"/>
<path d="M65.5289 6.99617C64.3852 6.76177 63.2122 6.55666 62.0393 6.41016L61.834 7.8752C62.9776 8.0217 64.092 8.22681 65.2063 8.46122L65.5289 6.99617Z" fill="#FF8603"/>
<path d="M94.5017 25.9833C93.8272 25.0164 93.0941 24.0787 92.3316 23.1704L91.188 24.108C91.9211 24.9871 92.6249 25.8954 93.27 26.833L94.5017 25.9833Z" fill="#FF8603"/>
<path d="M84.6778 15.8157C83.7394 15.0832 82.7717 14.4093 81.804 13.7646L81.0122 14.9953C81.9506 15.6106 82.9183 16.2845 83.7981 16.9877L84.6778 15.8157Z" fill="#FF8603"/>
<path d="M88.9003 21.5586L89.956 20.533C89.1349 19.6833 88.2845 18.8629 87.4047 18.0718L86.437 19.1559C87.2874 19.947 88.1085 20.7382 88.9003 21.5586Z" fill="#FF8603"/>
<path d="M78.7541 11.9187C77.7277 11.362 76.672 10.8052 75.587 10.3071L74.9712 11.6257C75.9976 12.0945 77.0239 12.6219 78.021 13.1786L78.7541 11.9187Z" fill="#FF8603"/>
<path d="M72.3322 8.95962C71.2179 8.54941 70.1035 8.1685 68.9599 7.84619L68.5493 9.25263C69.6343 9.57494 70.7487 9.92655 71.8043 10.3368L72.3322 8.95962Z" fill="#FF8603"/>
<path d="M99.9561 66.1255L101.364 66.5357C101.686 65.3929 101.979 64.2502 102.214 63.1075L100.777 62.8145C100.543 63.9279 100.279 65.0413 99.9561 66.1255Z" fill="#FF8603"/>
<path d="M10.4569 61.0854L9.02002 61.3199C9.22529 62.4919 9.45989 63.6346 9.75314 64.7773L11.19 64.4257C10.8968 63.3416 10.6622 62.1989 10.4569 61.0854Z" fill="#FF8603"/>
<path d="M103.123 56.0752L101.657 55.9873C101.598 57.13 101.481 58.2728 101.334 59.4155L102.8 59.6206C102.947 58.4486 103.064 57.2472 103.123 56.0752Z" fill="#FF8603"/>
<path d="M100.865 38.6118C100.484 37.4983 100.073 36.3849 99.6331 35.2715L98.2842 35.8282C98.724 36.883 99.1346 37.9672 99.4865 39.0513L100.865 38.6118Z" fill="#FF8603"/>
<path d="M101.745 52.5298V52.5884L103.211 52.5591V52.5005C103.182 51.3284 103.123 50.1564 103.006 49.0137L101.54 49.1602C101.657 50.2443 101.716 51.387 101.745 52.5298Z" fill="#FF8603"/>
<path d="M101.1 45.732L102.537 45.4975C102.331 44.3255 102.097 43.1828 101.833 42.04L100.396 42.3916C100.689 43.4758 100.924 44.6185 101.1 45.732Z" fill="#FF8603"/>
<path d="M98.1376 32.0483C97.6098 30.9934 97.0233 29.9679 96.4074 28.9424L95.1465 29.7042C95.733 30.6711 96.2902 31.6967 96.818 32.7222L98.1376 32.0483Z" fill="#FF8603"/>
<path d="M11.6301 40.6041L10.2225 40.1938C9.89991 41.3366 9.60667 42.4793 9.37207 43.622L10.809 43.915C11.0436 42.8016 11.3075 41.6882 11.6301 40.6041Z" fill="#FF8603"/>
<path d="M21.5417 22.7306L20.4567 21.7637C19.665 22.6427 18.9025 23.551 18.1987 24.4887L19.3717 25.397C20.0462 24.4887 20.8086 23.5803 21.5417 22.7306Z" fill="#FF8603"/>
<path d="M17.3774 28.1808L16.1458 27.3896C15.5006 28.3859 14.8848 29.3821 14.2983 30.4076L15.5886 31.1109C16.1458 30.1146 16.7323 29.1184 17.3774 28.1808Z" fill="#FF8603"/>
<path d="M14.0348 34.1583L12.6858 33.543C12.1873 34.5978 11.7475 35.7112 11.3369 36.8247L12.7152 37.3228C13.0964 36.2679 13.5656 35.2131 14.0348 34.1583Z" fill="#FF8603"/>
<path d="M8.55098 57.833L10.0172 57.6865C9.89991 56.5438 9.84126 55.401 9.81194 54.2583V54.1704L8.3457 54.1997V54.2876C8.40435 55.4596 8.463 56.661 8.55098 57.833Z" fill="#FF8603"/>
<path d="M10.2224 47.314L8.75616 47.1089C8.60954 48.2809 8.49224 49.453 8.43359 50.625L9.89983 50.7129C9.95848 49.5995 10.0758 48.4274 10.2224 47.314Z" fill="#FF8603"/>
<path d="M44.7667 8.7834L44.4148 7.34766C43.2712 7.64066 42.1275 7.96297 41.0132 8.31458L41.4824 9.72102C42.5674 9.36941 43.6817 9.07641 44.7667 8.7834Z" fill="#FF8603"/>
<path d="M55.7928 7.46504C56.6725 7.46504 57.5523 7.49434 58.4027 7.55294L58.4907 6.0879C57.6109 6.0293 56.7019 6 55.7928 6C55.5289 6 55.2356 6 54.9424 6L54.9717 7.46504C55.265 7.46504 55.5289 7.46504 55.7928 7.46504Z" fill="#FF8603"/>
<path d="M51.5411 7.67012L51.3944 6.20508C50.2215 6.32228 49.0485 6.46879 47.8755 6.64459L48.1101 8.08033C49.2831 7.90453 50.4267 7.75802 51.5411 7.67012Z" fill="#FF8603"/>
<path d="M32.128 14.0285L31.3656 12.7686C30.3686 13.3839 29.3715 14.0285 28.4038 14.7024L29.2542 15.9037C30.1633 15.2298 31.131 14.6145 32.128 14.0285Z" fill="#FF8603"/>
<path d="M38.257 10.9225L37.6998 9.57471C36.6148 10.0142 35.5298 10.5123 34.4741 11.0397L35.1486 12.3583C36.1456 11.8309 37.2013 11.3621 38.257 10.9225Z" fill="#FF8603"/>
<path d="M11.3957 75.1205L10.1641 71.956L7.46623 72.3369L6 68.6157L17.7299 67.5316C18.0231 67.5023 18.3163 67.5609 18.5803 67.7367C18.8442 67.8832 19.0201 68.1176 19.1374 68.4106L20.4277 71.7216C20.545 72.0146 20.545 72.3076 20.457 72.6007C20.3691 72.8937 20.1931 73.1281 19.9585 73.3039L10.5746 80.3947L9.13774 76.6735L11.3957 75.1205ZM13.6831 73.5383L15.9411 72.0146C16.4102 71.7216 16.8501 71.4872 17.1727 71.3114L16.9967 70.8719C16.4396 71.0184 15.9704 71.1063 15.5892 71.1942L12.8913 71.5751L13.6831 73.5383Z" fill="#FF8603"/>
<path d="M18.0231 85.1999C17.8472 85.3464 17.7592 85.4929 17.7592 85.6687C17.7592 85.8445 17.8472 86.0496 18.0524 86.3133L18.4043 86.8114L16.7035 88.5695C16.4396 88.4523 16.117 88.2179 15.7358 87.8076C15.3546 87.4267 15.032 87.0458 14.7681 86.6942C14.2109 85.9324 13.947 85.1999 13.9763 84.4966C14.0056 83.7934 14.3575 83.2074 14.9734 82.7679L23.3016 76.7319L25.5302 79.7792L18.0231 85.1999Z" fill="#FF8603"/>
<path d="M28.0519 95.6016L26.8495 97.5354C26.2044 97.3596 25.5593 97.0959 24.9141 96.7443C24.269 96.3634 23.6238 95.8946 22.9494 95.3086C21.5418 94.1072 20.7793 92.9938 20.662 91.8804C20.5447 90.7963 20.9846 89.6535 22.011 88.4522C22.7734 87.5439 23.5065 86.9285 24.2103 86.6355C24.9141 86.3132 25.6472 86.2839 26.4097 86.5476C27.1721 86.782 28.0225 87.3094 28.9902 88.1299C30.2512 89.214 30.9843 90.1809 31.2189 91.06C31.4242 91.939 31.1896 92.7887 30.4858 93.6384C30.1339 94.078 29.7527 94.3417 29.3715 94.4296C28.9902 94.5468 28.5504 94.4882 28.0519 94.2831C27.5533 94.0779 26.9962 93.697 26.3217 93.111L24.5915 91.646C24.4156 91.9683 24.3569 92.2613 24.4449 92.525C24.5329 92.7887 24.7382 93.0524 25.1194 93.3747C26.0285 94.1366 26.9962 94.8691 28.0519 95.6016ZM26.8789 89.5949C26.7322 89.5363 26.5563 89.5656 26.3803 89.6828C26.2044 89.7707 25.9698 89.9758 25.7059 90.2688L26.6736 91.0893C26.9082 91.2651 27.0548 91.4116 27.1721 91.4702C27.2894 91.5288 27.3774 91.5288 27.4654 91.4995C27.5533 91.4702 27.6706 91.353 27.8173 91.2065C27.9932 91.0014 28.0519 90.7963 27.9932 90.6497C27.9346 90.5032 27.7293 90.2688 27.4067 90.0051C27.2308 89.7707 27.0548 89.6535 26.8789 89.5949Z" fill="#FF8603"/>
<path d="M37.0546 103.513L36.7907 99.7334L33.8289 102.107L30.3979 100.612L34.6207 97.4772L34.1808 92.4961L37.6118 93.9904L37.8171 97.4772L40.515 95.2504L43.9459 96.7447L39.9871 99.792L40.5443 105.008L37.0546 103.513Z" fill="#FF8603"/>
<path d="M56.5264 97.9752L53.0661 97.5943L51.981 106.971L48.0809 106.531L49.1659 97.1547L45.7056 96.7738L46.0281 93.9023L56.8196 95.133L56.5264 97.9752Z" fill="#FF8603"/>
<path d="M66.2036 96.8325L66.3796 100.261L65.4412 100.407C64.7961 100.495 64.0629 100.671 63.2125 100.935L64.0336 106.443L60.2801 107L58.9604 98.1804L61.8929 97.7408L62.4208 98.9715C62.8899 98.3855 63.4178 97.9167 63.9456 97.565C64.5028 97.2134 65.06 97.0083 65.6465 96.9204L66.2036 96.8325Z" fill="#FF8603"/>
<path d="M76.2913 93.7561C77.1124 93.9905 77.7869 94.723 78.3147 95.9536L80.5141 101.023L77.7576 102.224L76.9365 101.228C76.6139 102.458 75.8515 103.337 74.6785 103.836C73.8574 104.187 73.095 104.275 72.3912 104.099C71.6874 103.923 71.1595 103.484 70.837 102.722L70.4851 101.902C70.1918 101.257 70.2211 100.612 70.5437 100.026C70.8663 99.4404 71.4528 98.9716 72.3032 98.5907L74.8838 97.4773L74.8544 97.4187C74.7078 97.1257 74.5612 96.9498 74.3559 96.8912C74.1506 96.8326 73.8867 96.8619 73.5348 97.0378C72.3325 97.5652 71.1302 98.1219 69.9865 98.6786L68.7256 96.6275C69.2828 96.2466 70.0452 95.8071 70.9543 95.3383C71.8633 94.8402 72.6258 94.4593 73.2709 94.1956C74.4732 93.6388 75.4702 93.4923 76.2913 93.7561ZM74.3266 101.052C74.5025 101.081 74.6785 101.052 74.9131 100.964C75.265 100.818 75.6169 100.495 75.9688 100.026L75.5876 99.1474L74.2679 99.7041C74.0627 99.792 73.9454 99.9092 73.8574 100.056C73.7987 100.202 73.7987 100.349 73.8574 100.495L73.9747 100.759C74.0627 100.905 74.1506 101.023 74.3266 101.052Z" fill="#FF8603"/>
<path d="M90.3962 92.6134C90.5135 92.8771 90.5428 93.1408 90.4841 93.3752C90.4255 93.6389 90.2789 93.844 90.0736 94.0198L87.6103 96.1002C87.3757 96.276 87.1411 96.3932 86.8772 96.3932C86.6133 96.4225 86.3787 96.3346 86.1148 96.1881L78.8716 91.7343L81.9507 89.2145L85.9681 92.2911C86.2321 92.4962 86.6719 92.8771 87.2291 93.4045L87.405 93.258C87.1118 92.7892 86.9065 92.4376 86.7892 92.2618L86.5253 91.7929L84.1793 87.3392L87.2291 84.7607L90.3962 92.6134Z" fill="#FF8603"/>
<path d="M98.6365 78.8709L100.719 79.8378C100.631 80.5117 100.455 81.1856 100.161 81.8595C99.8681 82.5335 99.4869 83.2367 98.9884 83.9985C97.9914 85.5222 96.9357 86.4305 95.88 86.6649C94.8243 86.8993 93.622 86.6063 92.3317 85.7566C91.3347 85.1119 90.6309 84.438 90.2497 83.7934C89.8684 83.1195 89.7218 82.4163 89.8684 81.6251C90.0151 80.834 90.4256 79.9257 91.1294 78.8709C92.0385 77.4937 92.9182 76.644 93.7686 76.3217C94.619 75.9994 95.4988 76.1459 96.4078 76.7319C96.877 77.0542 97.1996 77.3765 97.3462 77.7574C97.4928 78.1383 97.4928 78.5779 97.3462 79.076C97.1996 79.5741 96.877 80.1894 96.4078 80.9219L95.1762 82.7972C95.5281 82.9437 95.8213 82.9437 96.0559 82.8558C96.2905 82.7386 96.5545 82.5042 96.8184 82.094C97.4342 81.0391 98.05 79.9843 98.6365 78.8709ZM92.8302 80.7461C92.8009 80.9219 92.8595 81.0684 92.9768 81.2149C93.0941 81.3614 93.3287 81.5665 93.622 81.8009L94.3258 80.7461C94.4724 80.5117 94.5897 80.3359 94.619 80.1894C94.6777 80.0722 94.6484 79.955 94.619 79.8671C94.5604 79.7792 94.4431 79.6913 94.2671 79.5741C94.0325 79.4276 93.8273 79.369 93.6806 79.4569C93.534 79.5448 93.3287 79.7499 93.0941 80.1015C92.9475 80.3945 92.8595 80.5996 92.8302 80.7461Z" fill="#FF8603"/>
<path d="M101.452 70.8134C101.657 70.9013 101.833 70.872 101.98 70.7841C102.126 70.6962 102.244 70.4911 102.361 70.1981L102.566 69.6121L104.971 70.0223C105.029 70.286 105 70.6962 104.883 71.2529C104.766 71.8096 104.648 72.2785 104.502 72.6887C104.179 73.5677 103.739 74.2123 103.123 74.5639C102.508 74.9155 101.862 74.9741 101.129 74.7104L91.4521 71.2822L92.7131 67.7368L101.452 70.8134Z" fill="#FF8603"/>
<path d="M77.6694 17.5444C77.6694 17.5737 77.6988 17.5737 77.6988 17.603C77.6988 17.5737 77.6988 17.5737 77.6694 17.5444Z" fill="#FFBA01"/>
<path d="M77.728 17.603C77.816 17.7202 77.904 17.8081 77.9919 17.9253C77.904 17.8081 77.816 17.6909 77.728 17.603Z" fill="#FFBA01"/>
<path d="M78.2268 18.3062C78.1388 18.189 78.0802 18.0718 77.9922 17.9546C78.0802 18.0718 78.1681 18.189 78.2268 18.3062Z" fill="#FFBA01"/>
<path d="M78.2266 18.3062C78.2266 18.3062 78.2266 18.3355 78.2559 18.3355C78.2559 18.3355 78.2559 18.3062 78.2266 18.3062Z" fill="#FFBA01"/>
<path d="M89.4286 29.9095C87.4052 29.9388 81.2177 29.0891 81.2177 29.0891C81.2177 29.0891 80.7778 27.1259 78.4612 27.038C76.1445 26.9501 74.9129 27.7705 74.9129 27.7705L70.7781 26.3641C70.7781 26.3641 74.737 25.1334 76.0566 24.3423C77.3762 23.5512 79.7222 21.3536 78.7251 19.3026C78.5785 18.9803 78.4025 18.658 78.1973 18.3356C77.904 18.3063 77.4348 18.277 77.3469 18.2477C77.1709 18.1598 77.0243 17.6031 77.1123 17.5152C77.1709 17.4566 77.4348 17.5152 77.6108 17.5738C76.5844 16.4018 75.0302 15.6693 72.0391 15.9916C67.7284 16.4311 52.7142 22.7601 52.7142 22.7601C52.7142 22.7601 51.9517 21.0313 49.6937 21.1192C47.4357 21.2364 46.9372 21.8811 46.9372 21.8811C46.9372 21.8811 46.5267 21.8224 45.8229 21.7052C45.295 20.2109 43.7115 15.9623 43.3596 15.8158C42.9491 15.6693 41.8054 15.933 41.8054 15.933C41.6881 16.1381 41.952 19.8007 42.04 21.0313C39.8113 20.6211 37.2601 20.1816 35.4713 19.8007C31.5418 19.0096 9.40167 13.4424 9.40167 13.4424C8.28733 13.2373 8.28733 13.4131 9.40167 13.9112C10.516 14.4093 23.9174 18.5701 23.9174 18.5701L23.3015 19.3026L26.6152 20.416C26.41 20.9434 26.234 21.4122 26.3513 21.5294C26.4979 21.6466 26.9671 21.2364 27.407 20.6211L33.7998 22.7894C33.5065 23.2875 33.3599 23.6977 33.4772 23.7856C33.6238 23.8735 34.0344 23.5512 34.4449 23.0238L38.6677 24.4595L39.2248 23.7563L41.2482 24.5181L40.779 25.3679L42.5385 26.0125L42.6558 27.917L41.2482 29.3235C41.2482 29.3235 28.5213 26.8622 27.4656 26.8915C26.41 26.9208 26.322 27.2724 27.5243 27.4775C28.7266 27.6826 40.4271 30.4662 40.4271 30.4662C40.4271 30.4662 39.8993 31.2573 40.2219 31.7554C40.5444 32.2535 43.7995 33.4256 45.2657 33.4256C46.7026 33.4256 49.3125 33.7479 50.6321 33.5721C51.9517 33.3963 54.2684 32.1656 54.7962 32.0777C55.3241 31.9605 58.8137 31.7554 59.4002 31.5503C59.9867 31.3452 60.4559 31.1694 60.4559 31.1694L68.4322 31.2866C68.2269 31.6675 68.1389 31.9605 68.2562 32.0191C68.3735 32.107 68.7841 31.7847 69.1946 31.2866L72.9775 31.3452C72.9775 31.3452 73.2707 33.367 75.0302 33.5721C76.7897 33.7772 79.5755 32.9275 80.1034 32.4001C80.6605 31.8433 80.8365 31.3452 80.8365 31.3452L82.3027 31.3745L82.596 30.8178C82.596 30.8178 88.9594 30.7299 89.9271 30.5248C90.9535 30.2904 91.452 29.9095 89.4286 29.9095ZM75.4408 17.2808C75.4994 17.1929 76.2618 17.2222 76.5844 17.3101C76.907 17.398 77.0829 17.984 77.0243 18.1012C76.9656 18.2184 75.734 18.0426 75.5581 17.984C75.3821 17.9254 75.3821 17.3687 75.4408 17.2808ZM75.0302 17.2222C75.2648 17.3101 75.3235 17.9254 75.1768 18.0133C74.9422 18.1598 73.6813 18.0719 73.652 17.8375C73.652 17.6324 74.5317 17.1343 75.0302 17.2222ZM50.3975 26.3055C49.2832 26.2762 48.3741 25.2213 48.4034 23.9614C48.4328 22.7015 49.3712 21.6759 50.5148 21.7052C51.6292 21.7345 52.5382 22.7894 52.5089 24.0493C52.4796 25.3092 51.5412 26.3348 50.3975 26.3055ZM55.5293 23.1703L55.5 23.2289C55.4414 23.2289 55.3534 23.1996 55.2947 23.1996L55.3241 23.1117C55.3241 23.0531 55.3827 23.0238 55.4414 23.0238C55.5293 23.0531 55.5587 23.1117 55.5293 23.1703ZM55.9399 23.0531L55.8812 23.2875C55.8226 23.2875 55.7346 23.2582 55.6759 23.2582L55.7346 22.9945C55.7346 22.9359 55.7932 22.9066 55.8519 22.9066C55.9105 22.9359 55.9399 22.9945 55.9399 23.0531ZM56.3211 22.9359L56.2331 23.3461C56.1745 23.3461 56.0865 23.3168 56.0278 23.3168C56.0278 23.3168 56.0278 23.3168 56.0278 23.2875L56.1158 22.8773C56.1158 22.8187 56.1745 22.7894 56.2331 22.7894C56.2918 22.8187 56.3504 22.8773 56.3211 22.9359ZM56.761 22.7601L56.673 23.1703C56.673 23.2289 56.6143 23.2582 56.5557 23.2582C56.497 23.2582 56.4677 23.1996 56.4677 23.141L56.5557 22.7308C56.5557 22.6722 56.6143 22.6429 56.673 22.6429C56.7316 22.6429 56.761 22.7015 56.761 22.7601ZM57.1715 22.7015L57.0835 23.1117C57.0835 23.1703 57.0249 23.1996 56.9662 23.1996C56.9076 23.1996 56.8783 23.141 56.8783 23.0824L56.9662 22.6722C56.9662 22.6136 57.0249 22.5843 57.0835 22.5843C57.1422 22.5843 57.1715 22.6429 57.1715 22.7015ZM57.5821 22.5257L57.4941 22.9359C57.4941 22.9945 57.4354 23.0238 57.3768 23.0238C57.3181 23.0238 57.2888 22.9652 57.2888 22.9066L57.3768 22.4964C57.3768 22.4378 57.4354 22.4085 57.4941 22.4085C57.5527 22.4085 57.5821 22.4671 57.5821 22.5257ZM58.0219 22.2913L57.9046 22.7015C57.9046 22.7601 57.846 22.7894 57.7873 22.7894C57.7287 22.7894 57.6994 22.7308 57.6994 22.6722L57.7873 22.262C57.7873 22.2034 57.846 22.1741 57.9046 22.1741C57.9926 22.1741 58.0219 22.2327 58.0219 22.2913ZM58.4618 22.1741L58.3738 22.5843C58.3738 22.6429 58.3152 22.6722 58.2565 22.6722C58.1979 22.6722 58.1685 22.6136 58.1685 22.555L58.2565 22.1448C58.2565 22.0862 58.3152 22.0569 58.3738 22.0569C58.4618 22.0569 58.4911 22.1155 58.4618 22.1741ZM58.9017 22.0276L58.7844 22.4085C58.7844 22.4671 58.7257 22.4964 58.6671 22.4964C58.6084 22.4964 58.5791 22.4378 58.5791 22.3792L58.6671 21.969C58.6671 21.9104 58.7257 21.8811 58.7844 21.8811C58.8723 21.9104 58.9017 21.969 58.9017 22.0276ZM59.2829 21.8518L59.1949 22.262C59.1949 22.3206 59.1363 22.3499 59.0776 22.3499C59.019 22.3499 58.9896 22.2913 58.9896 22.2327L59.0776 21.8225C59.0776 21.7638 59.1363 21.7345 59.1949 21.7345C59.2829 21.7345 59.3122 21.7931 59.2829 21.8518ZM59.7521 21.6759L59.6641 22.0862C59.6641 22.1448 59.6055 22.1741 59.5468 22.1741C59.4882 22.1741 59.4588 22.1155 59.4588 22.0569L59.5468 21.6466C59.5468 21.588 59.6055 21.5587 59.6641 21.5587C59.7228 21.5587 59.7521 21.6173 59.7521 21.6759ZM60.1919 21.5294L60.104 21.9397C60.104 21.9983 60.0453 22.0276 59.9867 22.0276C59.928 22.0276 59.8987 21.969 59.8987 21.9104L59.9867 21.5001C59.9867 21.4415 60.0453 21.4122 60.104 21.4122C60.1626 21.4122 60.1919 21.4708 60.1919 21.5294ZM60.6025 21.3829L60.5145 21.7931C60.5145 21.8518 60.4559 21.8811 60.3972 21.8811C60.3386 21.8811 60.3092 21.8225 60.3092 21.7638L60.3972 21.3536C60.3972 21.295 60.4559 21.2657 60.5145 21.2657C60.5732 21.2657 60.6025 21.3243 60.6025 21.3829ZM60.9837 21.2364L60.8957 21.6466C60.8957 21.7052 60.8371 21.7345 60.7784 21.7345C60.7198 21.7345 60.6905 21.6759 60.6905 21.6173L60.7784 21.2071C60.7784 21.1485 60.8371 21.1192 60.8957 21.1192C60.9544 21.1192 61.013 21.1778 60.9837 21.2364ZM61.4236 21.0606L61.3356 21.4708C61.3356 21.5294 61.277 21.5587 61.2183 21.5587C61.1597 21.5587 61.1303 21.5001 61.1303 21.4415L61.2183 21.0313C61.2183 20.9727 61.277 20.9434 61.3356 20.9434C61.3943 20.9434 61.4529 21.002 61.4236 21.0606ZM61.8634 20.9141L61.7755 21.3243C61.7755 21.3829 61.7168 21.4122 61.6582 21.4122C61.5995 21.4122 61.5702 21.3536 61.5702 21.295L61.6582 20.8848C61.6582 20.8262 61.7168 20.7969 61.7755 20.7969C61.8341 20.7969 61.8634 20.8555 61.8634 20.9141ZM62.3033 20.6797L62.2153 21.0899C62.2153 21.1485 62.1567 21.1778 62.098 21.1778C62.0394 21.1778 62.0101 21.1192 62.0101 21.0606L62.098 20.6504C62.098 20.5918 62.1567 20.5625 62.2153 20.5625C62.274 20.5625 62.3033 20.6211 62.3033 20.6797ZM65.3824 19.537L65.2944 19.9472C65.2944 20.0058 65.2358 20.0351 65.1771 20.0351C65.1185 20.0351 65.0892 19.9765 65.0892 19.9179L65.1771 19.5077C65.1771 19.4491 65.2358 19.4198 65.2944 19.4198C65.3531 19.4491 65.3824 19.4784 65.3824 19.537ZM65.8223 19.3905L65.7343 19.8007C65.7343 19.8593 65.6757 19.8886 65.617 19.8886C65.5584 19.8886 65.529 19.83 65.529 19.7714L65.617 19.3612C65.617 19.3026 65.6757 19.2733 65.7343 19.2733C65.8223 19.2733 65.8516 19.3319 65.8223 19.3905ZM66.2328 19.2733L66.1448 19.6835C66.1448 19.7421 66.0862 19.7714 66.0275 19.7714C65.9689 19.7714 65.9396 19.7128 65.9396 19.6542L66.0275 19.244C66.0275 19.1854 66.0862 19.1561 66.1448 19.1561C66.2328 19.1561 66.2621 19.2147 66.2328 19.2733ZM66.6727 19.0975L66.5847 19.5077C66.5847 19.5663 66.5261 19.5956 66.4674 19.5956C66.4088 19.5956 66.3794 19.537 66.3794 19.4784L66.4674 19.0682C66.4674 19.0096 66.5261 18.9803 66.5847 18.9803C66.6434 18.9803 66.6727 19.0389 66.6727 19.0975ZM67.0832 18.9803L66.9953 19.3905C66.9953 19.4491 66.9366 19.4784 66.878 19.4784C66.8193 19.4784 66.79 19.4198 66.79 19.3612L66.878 18.951C66.878 18.8924 66.9366 18.8631 66.9953 18.8631C67.0832 18.8631 67.1126 18.9217 67.0832 18.9803ZM67.5231 18.8045L67.4351 19.2147C67.4351 19.2733 67.3765 19.3026 67.3178 19.3026C67.2592 19.3026 67.2299 19.244 67.2299 19.1854L67.3178 18.7752C67.3178 18.7166 67.3765 18.6873 67.4351 18.6873C67.4938 18.6873 67.5524 18.7459 67.5231 18.8045ZM67.9923 18.6287L67.9043 19.0389C67.9043 19.0975 67.8457 19.1268 67.787 19.1268C67.7284 19.1268 67.6991 19.0682 67.6991 19.0096L67.787 18.5994C67.787 18.5408 67.8457 18.5115 67.9043 18.5115C67.963 18.5115 68.0216 18.5701 67.9923 18.6287ZM78.7544 32.0777C77.6401 32.0484 76.731 30.9936 76.7604 29.7337C76.7897 28.4737 77.7281 27.4482 78.8717 27.4775C79.9861 27.5068 80.8951 28.5616 80.8658 29.8216C80.8365 31.1108 79.8981 32.107 78.7544 32.0777Z" fill="#FFBA01"/>
</svg>
