<svg width="127" height="69" viewBox="0 0 127 69" fill="none" xmlns="http://www.w3.org/2000/svg">
<path d="M117.4 13.6001V17.6001H122.4V64.5001H4V17.6001H9V13.6001H0V68.5001H126.4V13.6001H117.4Z" fill="#FFBA01"/>
<path d="M33.6 25.7001H28.7V20.8001H18.9V25.7001H14V10.9001C14 9.5001 14.3 8.3001 14.8 7.1001C15.3 5.9001 16 4.9001 16.9 4.0001C17.8 3.1001 18.8 2.4001 20 1.9001C21.2 1.4001 22.5 1.1001 23.8 1.1001C25.2 1.1001 26.4 1.4001 27.6 1.9001C28.8 2.4001 29.8 3.1001 30.7 4.0001C31.6 4.9001 32.3 5.9001 32.8 7.1001C33.3 8.3001 33.6 9.6001 33.6 10.9001V25.7001ZM28.7 15.9001V11.0001C28.7 10.3001 28.6 9.7001 28.3 9.1001C28 8.5001 27.7 8.0001 27.2 7.5001C26.8 7.1001 26.2 6.7001 25.6 6.4001C25 6.1001 24.4 6.0001 23.8 6.0001C23.1 6.0001 22.5 6.1001 21.9 6.4001C21.3 6.7001 20.7 7.0001 20.3 7.4001C19.9 7.8001 19.5 8.4001 19.2 9.0001C18.9 9.6001 18.8 10.2001 18.8 10.9001V15.8001H28.7V15.9001Z" fill="white"/>
<path d="M42.1004 25.7H37.4004V0H42.1004V25.7Z" fill="white"/>
<path d="M53.0002 21.2001C53.2002 21.3001 53.4002 21.3001 53.5002 21.3001C53.7002 21.3001 53.9002 21.3001 54.0002 21.3001C54.5002 21.3001 54.9002 21.2001 55.3002 21.1001C55.7002 21.0001 56.1002 20.8001 56.5002 20.6001C56.9002 20.4001 57.2002 20.1001 57.5002 19.7001C57.8002 19.4001 58.0002 19.0001 58.2002 18.6001L61.6002 22.0001C61.2002 22.6001 60.7002 23.2001 60.1002 23.7001C59.5002 24.2001 58.9002 24.6001 58.3002 25.0001C57.6002 25.3001 57.0002 25.6001 56.2002 25.8001C55.5002 26.0001 54.7002 26.1001 54.0002 26.1001C52.7002 26.1001 51.5002 25.9001 50.4002 25.4001C49.3002 24.9001 48.3002 24.3001 47.4002 23.4001C46.5002 22.5001 45.9002 21.5001 45.4002 20.3001C44.9002 19.1001 44.7002 17.8001 44.7002 16.4001C44.7002 14.9001 44.9002 13.6001 45.4002 12.4001C45.9002 11.2001 46.6002 10.2001 47.4002 9.3001C48.3002 8.5001 49.2002 7.8001 50.4002 7.3001C51.5002 6.8001 52.8002 6.6001 54.0002 6.6001C54.8002 6.6001 55.5002 6.7001 56.2002 6.9001C56.9002 7.1001 57.6002 7.3001 58.3002 7.7001C59.0002 8.0001 59.6002 8.5001 60.1002 9.0001C60.7002 9.5001 61.2002 10.1001 61.6002 10.7001L53.0002 21.2001ZM55.4002 11.5001C55.2002 11.4001 55.0002 11.4001 54.8002 11.3001C54.6002 11.3001 54.4002 11.3001 54.1002 11.3001C53.5002 11.3001 52.9002 11.4001 52.3002 11.7001C51.7002 12.0001 51.2002 12.3001 50.8002 12.7001C50.4002 13.1001 50.1002 13.7001 49.8002 14.3001C49.6002 14.9001 49.4002 15.6001 49.4002 16.4001C49.4002 16.6001 49.4002 16.8001 49.4002 17.0001C49.4002 17.2001 49.4002 17.4001 49.5002 17.7001C49.6002 18.0001 49.6002 18.1001 49.6002 18.3001C49.7002 18.5001 49.7002 18.7001 49.8002 18.8001L55.4002 11.5001Z" fill="white"/>
<path d="M80.8996 25.7002H75.1996L71.4996 20.1002L67.7996 25.7002H62.0996L68.7996 16.3002L62.0996 7.2002H67.7996L71.4996 12.5002L75.1996 7.2002H80.8996L74.1996 16.3002L80.8996 25.7002Z" fill="white"/>
<path d="M26.5998 56.6H21.6998V36.9H14.2998V32H33.9998V36.9H26.5998V56.6Z" fill="white"/>
<path d="M39.2 56.6002H34.5V38.2002H35.6L37.1 40.4002C37.9 39.7002 38.7 39.2002 39.7 38.8002C40.7 38.4002 41.7 38.2002 42.7 38.2002H46.8V42.9002H42.7C42.2 42.9002 41.7 43.0002 41.3 43.2002C40.9 43.4002 40.5 43.6002 40.2 44.0002C39.9 44.3002 39.6 44.7002 39.4 45.1002C39.2 45.5002 39.1 46.0002 39.1 46.5002V56.6002H39.2Z" fill="white"/>
<path d="M66.4998 56.6H65.3998L63.5998 54.1C63.1998 54.5 62.6998 54.9 62.1998 55.2C61.6998 55.5 61.1998 55.9 60.5998 56.1C59.9998 56.3 59.4998 56.6 58.8998 56.7C58.2998 56.8 57.6998 56.9 57.0998 56.9C55.7998 56.9 54.5998 56.7 53.4998 56.2C52.3998 55.8 51.3998 55.1 50.4998 54.3C49.5998 53.5 48.9998 52.5 48.4998 51.3C47.9998 50.1 47.7998 48.7 47.7998 47.2C47.7998 45.8 47.9998 44.5 48.4998 43.3C48.9998 42.1 49.6998 41.1 50.4998 40.2C51.3998 39.3 52.2998 38.7 53.4998 38.2C54.5998 37.7 55.8998 37.5 57.0998 37.5C57.6998 37.5 58.2998 37.6 58.8998 37.7C59.4998 37.8 60.0998 38.1 60.5998 38.3C61.0998 38.5 61.6998 38.9 62.1998 39.2C62.6998 39.5 63.1998 39.9 63.5998 40.3L65.3998 38.1H66.4998V56.6ZM61.7998 47.3C61.7998 46.7 61.6998 46 61.3998 45.4C61.1998 44.8 60.7998 44.3 60.3998 43.8C59.9998 43.3 59.4998 43 58.8998 42.7C58.2998 42.4 57.6998 42.3 57.0998 42.3C56.4998 42.3 55.8998 42.4 55.2998 42.6C54.6998 42.8 54.1998 43.1 53.7998 43.6C53.3998 44 53.0998 44.5 52.7998 45.2C52.5998 45.8 52.3998 46.5 52.3998 47.3C52.3998 48.1 52.4998 48.8 52.7998 49.4C52.9998 50 53.3998 50.5 53.7998 51C54.1998 51.4 54.6998 51.7 55.2998 52C55.8998 52.2 56.4998 52.3 57.0998 52.3C57.6998 52.3 58.2998 52.2 58.8998 51.9C59.4998 51.6 59.9998 51.2 60.3998 50.8C60.7998 50.3 61.1998 49.8 61.3998 49.2C61.5998 48.5 61.7998 47.9 61.7998 47.3Z" fill="white"/>
<path d="M75.2998 56.6002L68.2998 38.2002H73.5998L77.5998 49.7002L81.5998 38.2002H86.9998L79.9998 56.6002H75.2998Z" fill="white"/>
<path d="M95.5002 52.1C95.7002 52.2 95.9002 52.2 96.0002 52.2C96.2002 52.2 96.4002 52.2 96.5002 52.2C97.0002 52.2 97.4002 52.1 97.8002 52C98.2002 51.9 98.6002 51.7 99.0002 51.5C99.4002 51.3 99.7002 51 100 50.6C100.3 50.2 100.5 49.9 100.7 49.5L104.1 52.9C103.7 53.5 103.2 54.1 102.6 54.6C102 55.1 101.4 55.5 100.8 55.9C100.1 56.2 99.5002 56.5 98.7002 56.7C98.0002 56.9 97.2002 57 96.5002 57C95.2002 57 94.0002 56.8 92.9002 56.3C91.8002 55.8 90.8002 55.2 89.9002 54.3C89.0002 53.4 88.4002 52.4 87.9002 51.2C87.4002 50 87.2002 48.7 87.2002 47.3C87.2002 45.8 87.4002 44.5 87.9002 43.3C88.4002 42.1 89.1002 41.1 89.9002 40.2C90.8002 39.4 91.7002 38.7 92.9002 38.2C94.0002 37.7 95.3002 37.5 96.5002 37.5C97.3002 37.5 98.0002 37.6 98.7002 37.8C99.4002 38 100.1 38.2 100.8 38.6C101.5 38.9 102.1 39.4 102.6 39.9C103.2 40.4 103.7 41 104.1 41.6L95.5002 52.1ZM97.9002 42.5C97.7002 42.4 97.5002 42.4 97.3002 42.3C97.1002 42.2 96.9002 42.3 96.6002 42.3C96.0002 42.3 95.4002 42.4 94.8002 42.7C94.2002 42.9 93.7002 43.3 93.3002 43.7C92.9002 44.1 92.6002 44.7 92.3002 45.3C92.0002 45.9 92.0002 46.5 92.0002 47.3C92.0002 47.5 92.0002 47.7 92.0002 47.9C92.0002 48.1 92.0002 48.3 92.1002 48.6C92.1002 48.8 92.2002 49 92.2002 49.2C92.3002 49.4 92.3002 49.6 92.4002 49.7L97.9002 42.5Z" fill="white"/>
<path d="M111.4 56.5999H106.7V30.8999H111.4V56.5999Z" fill="white"/>
<path d="M115.6 2.2002C115.6 2.3002 115.6 2.2002 115.6 2.2002C115.5 2.2002 115.5 2.2002 115.5 2.2002L84.3004 8.7002C84.1004 8.7002 83.9004 8.9002 83.9004 9.2002C83.9004 9.4002 84.0004 9.6002 84.2004 9.8002L93.1004 14.5002L94.7004 23.2002V23.3002C94.7004 23.3002 94.7004 23.3002 94.7004 23.4002C94.7004 23.5002 94.7004 23.5002 94.8004 23.5002L94.9004 23.6002C94.9004 23.6002 95.0004 23.6002 95.0004 23.7002H95.1004C95.2004 23.7002 95.4004 23.6002 95.5004 23.5002L101.5 19.5002L107.7 23.6002C107.8 23.7002 107.9 23.7002 108 23.7002C108.1 23.7002 108.1 23.7002 108.2 23.7002C108.4 23.6002 108.5 23.5002 108.5 23.4002L116 3.1002C116 3.0002 116.1 2.9002 116.1 2.8002V2.7002C116.1 2.6002 116.1 2.6002 116 2.5002C116 2.4002 115.9 2.4002 115.9 2.4002C115.9 2.4002 115.8 2.4002 115.8 2.3002C115.8 2.3002 115.7 2.3002 115.6 2.2002C115.7 2.3002 115.7 2.2002 115.6 2.2002ZM95.4004 20.9002L94.2004 14.4002L110 6.3002L97.0004 15.8002C97.0004 15.8002 97.0004 15.8002 96.9004 15.9002V16.0002L95.4004 20.9002ZM96.2004 21.9002L97.7004 17.1002L100 18.6002L100.7 19.0002L98.5004 20.5002L96.2004 21.9002Z" fill="#FFBA01"/>
</svg>
