<svg width="22" height="23" viewBox="0 0 22 23" fill="none" xmlns="http://www.w3.org/2000/svg">
<path d="M16.3306 4.66866C17.1783 4.66866 17.865 3.98652 17.865 3.13726V1.53445C17.865 0.684424 17.1791 0 16.3306 0C15.4821 0 14.7969 0.683664 14.7969 1.53445V3.13802C14.7976 3.98652 15.4828 4.66866 16.3306 4.66866Z" fill="white"/>
<path d="M21.7815 2.65398H18.6929V3.43411C18.6929 4.72168 17.6469 5.77072 16.357 5.77072C15.0657 5.77072 14.0219 4.72168 14.0219 3.43411V2.65398H7.78921V3.43411C7.78921 4.72168 6.74169 5.77072 5.4526 5.77072C4.16351 5.77072 3.11675 4.72244 3.11675 3.43411V2.65398L0 2.61523V22.1209H1.55875H20.2486L21.8051 22.1164L21.7815 2.65398ZM20.2471 20.5675H1.55875V8.10658H20.2486V20.5675H20.2471Z" fill="white"/>
<path d="M5.42746 4.66866C6.2752 4.66866 6.96266 3.98652 6.96266 3.13726V1.53445C6.96266 0.683664 6.2752 0 5.42746 0C4.57971 0 3.89453 0.683664 3.89453 1.53445V3.13802C3.89453 3.98652 4.57895 4.66866 5.42746 4.66866Z" fill="white"/>
<path d="M10.2473 9.77832H7.79297V11.9448H10.2473V9.77832Z" fill="white"/>
<path d="M14.2184 9.77832H11.7617V11.9448H14.2184V9.77832Z" fill="white"/>
<path d="M17.8958 9.77832H15.4414V11.9448H17.8958V9.77832Z" fill="white"/>
<path d="M10.2473 13.377H7.79297V15.5419H10.2473V13.377Z" fill="white"/>
<path d="M14.2184 13.377H11.7617V15.5419H14.2184V13.377Z" fill="white"/>
<path d="M17.8958 13.377H15.4414V15.5419H17.8958V13.377Z" fill="white"/>
<path d="M10.2473 17.0459H7.79297V19.2108H10.2473V17.0459Z" fill="white"/>
<path d="M6.34737 13.377H3.89453V15.5419H6.34737V13.377Z" fill="white"/>
<path d="M6.34737 17.0459H3.89453V19.2108H6.34737V17.0459Z" fill="white"/>
<path d="M14.2184 17.0459H11.7617V19.2108H14.2184V17.0459Z" fill="white"/>
<path d="M17.8958 17.0459H15.4414V19.2108H17.8958V17.0459Z" fill="white"/>
</svg>
