<svg width="18" height="14" viewBox="0 0 18 14" fill="none" xmlns="http://www.w3.org/2000/svg">
<path d="M14.0067 2.49358L13.3161 0H4.66889L3.97832 2.49358H0V13.8499H5.70475C5.26939 13.5945 4.86405 13.2941 4.50375 12.9486H0.900751V3.39487H3.7231L3.40784 4.56655H3.51293C4.06839 3.71032 4.81902 3.00431 5.70475 2.49358H4.90909L5.34445 0.901292H12.6255L13.0609 2.49358H12.2652C13.151 3.00431 13.8866 3.71032 14.457 4.56655H14.5621L14.2619 3.39487H17.0992V12.9486H13.4962C13.1359 13.2941 12.7306 13.5945 12.2952 13.8499H18V2.49358H14.0067Z" fill="#FFC700"/>
<path d="M14.8324 8.15663C14.8324 4.927 12.2052 2.31325 8.99251 2.31325C5.77983 2.31325 3.15264 4.94202 3.15264 8.15663C3.15264 11.3863 5.77983 14 8.99251 14C12.2052 14 14.8324 11.3863 14.8324 8.15663ZM8.99251 13.1137C6.26023 13.1137 4.05339 10.8905 4.05339 8.15663C4.05339 5.42271 6.27524 3.21454 8.99251 3.21454C11.7098 3.21454 13.9316 5.43773 13.9316 8.15663C13.9316 10.8905 11.7248 13.1137 8.99251 13.1137Z" fill="#FFC700"/>
<path d="M8.9925 4.11584C6.75564 4.11584 4.93913 5.93345 4.93913 8.17166C4.93913 10.4099 6.75564 12.2275 8.9925 12.2275C11.2294 12.2275 13.0459 10.4099 13.0459 8.17166C13.0459 5.93345 11.2294 4.11584 8.9925 4.11584ZM9.53295 6.12873C9.2327 6.12873 8.9925 5.88839 8.9925 5.58795C8.9925 5.28752 9.2327 5.04718 9.53295 5.04718C9.8332 5.04718 10.0734 5.28752 10.0734 5.58795C10.0734 5.88839 9.8332 6.12873 9.53295 6.12873ZM11.1693 8.47209C10.6139 8.47209 10.1635 8.02144 10.1635 7.46565C10.1635 6.90985 10.6139 6.4592 11.1693 6.4592C11.7248 6.4592 12.1752 6.90985 12.1752 7.46565C12.1601 8.02144 11.7098 8.47209 11.1693 8.47209Z" fill="#FFC700"/>
</svg>
