<svg width="28" height="28" viewBox="0 0 28 28" fill="none" xmlns="http://www.w3.org/2000/svg">
<path d="M14 0C6.2679 0 0 6.26812 0 14C0 21.7323 6.2679 28 14 28C21.7321 28 28 21.7323 28 14C28 6.26812 21.7321 0 14 0ZM14 7C14.9665 7 15.75 7.78356 15.75 8.75C15.75 9.71688 14.9665 10.5 14 10.5C13.0335 10.5 12.25 9.71688 12.25 8.75C12.25 7.78356 13.0335 7 14 7ZM16.625 21H11.375C10.8918 21 10.5 20.6087 10.5 20.125C10.5 19.6418 10.8918 19.25 11.375 19.25H12.25V14H11.375C10.8918 14 10.5 13.6087 10.5 13.125C10.5 12.6418 10.8918 12.25 11.375 12.25H14.875C15.3582 12.25 15.75 12.6418 15.75 13.125V19.25H16.625C17.1082 19.25 17.5 19.6418 17.5 20.125C17.5 20.6087 17.1082 21 16.625 21Z" fill="#3ADA67"/>
</svg>
