<svg width="80" height="84" viewBox="0 0 80 84" fill="none" xmlns="http://www.w3.org/2000/svg">
<path d="M0.414062 77.1279H5.41406V83.1279H0.414062V77.1279Z" fill="#BF8A00"/>
<path d="M74.4141 0.12793H79.4141V5.12793H74.4141V0.12793Z" fill="#BF8A00"/>
<path d="M0.414062 10.1279C0.414062 4.60508 4.89122 0.12793 10.4141 0.12793H79.4141L0.414062 83.1279V10.1279Z" fill="#FFC700"/>
<path d="M12.2342 39.9751L13.49 38.7193L10.7747 36.004L13.1506 33.6282L15.8659 36.3434L17.1132 35.0961L10.8256 28.8085L9.57831 30.0559L12.056 32.5336L9.68013 34.9094L7.20243 32.4317L5.94661 33.6876L12.2342 39.9751Z" fill="#2E3747"/>
<path d="M20.6587 31.7882C21.8466 30.6003 22.0248 28.5893 20.4466 27.011C18.8683 25.4328 16.8573 25.611 15.6694 26.7989C14.4814 27.9868 14.3032 29.9978 15.8815 31.5761C17.4597 33.1544 19.4708 32.9762 20.6587 31.7882ZM19.6405 30.77C18.9956 31.4149 18.0537 31.2028 17.1543 30.3033C16.2633 29.4124 16.0427 28.462 16.6876 27.8171C17.3325 27.1722 18.2828 27.3929 19.1738 28.2838C20.0732 29.1833 20.2853 30.1251 19.6405 30.77Z" fill="#2E3747"/>
<path d="M23.8659 28.3434L25.9363 26.273C27.0225 25.1869 27.4891 23.9226 26.5218 22.9553C25.8685 22.3019 25.1387 22.3867 24.426 22.828L24.3835 22.7856C24.7739 22.0898 24.6296 21.4364 24.1884 20.9952C23.272 20.0788 22.1349 20.5709 21.0828 21.6231L19.1142 23.5917L23.8659 28.3434ZM22.2198 24.2705L21.1676 23.2183L21.8464 22.5395C22.3725 22.0134 22.7883 21.9879 23.1277 22.3274C23.4502 22.6498 23.4247 23.0656 22.8732 23.6171L22.2198 24.2705ZM24.2393 26.29L23.0513 25.102L23.8065 24.3469C24.3835 23.7699 24.8927 23.7529 25.2321 24.0923C25.5969 24.4572 25.5884 24.9408 25.0199 25.5093L24.2393 26.29Z" fill="#2E3747"/>
<path d="M28.8958 23.3136L30.5759 21.6335C31.7129 20.4965 32.1456 19.2152 30.9662 18.0357C29.8207 16.8902 28.5394 17.323 27.4024 18.46L26.9696 18.8927L25.3914 17.3145L24.144 18.5618L28.8958 23.3136ZM29.1843 21.1074L27.8945 19.8176L28.2509 19.4612C28.8449 18.8673 29.337 18.7994 29.7613 19.2237C30.211 19.6734 30.1346 20.157 29.5407 20.751L29.1843 21.1074ZM33.2572 18.9521L34.5046 17.7048L29.7528 12.953L28.5055 14.2004L33.2572 18.9521Z" fill="#2E3747"/>
<path d="M35.8481 16.3613L36.9851 15.2242L36.179 11.635C36.0517 11.2022 35.865 10.5064 35.7463 10.0652L35.7802 10.0313C36.3233 10.6761 36.8918 11.3634 37.3754 11.8471L38.8688 13.3405L40.0738 12.1356L35.322 7.38384L34.185 8.52087L34.9996 12.1186C35.1353 12.5429 35.305 13.2387 35.4238 13.6799L35.3984 13.7054C34.8468 13.086 34.2783 12.3817 33.8031 11.9065L32.3012 10.4046L31.0963 11.6095L35.8481 16.3613ZM32.4794 8.69906C33.5825 7.59598 33.4213 6.46743 32.5558 5.53405L31.58 6.50986C32.0976 7.0614 32.2843 7.55355 31.8091 8.02872C31.3339 8.5039 30.8502 8.30874 30.2987 7.79114L29.3229 8.76695C30.2478 9.64093 31.3848 9.79366 32.4794 8.69906Z" fill="#2E3747"/>
<path d="M20.9531 51.8755L22.1665 50.6621L20.8682 49.3639L20.13 48.7105C20.5967 48.6172 20.9955 48.422 21.301 48.1165C22.2683 47.1492 22.2089 45.3249 20.5797 43.6957C19.1202 42.2362 17.4996 41.9393 16.4219 43.0169C16.0825 43.3563 15.8619 43.8654 15.7516 44.3321L15.0643 43.5599L13.5709 42.0665L12.3575 43.2799L13.8509 44.7733L14.5891 45.4267C14.1818 45.5116 13.7745 45.6643 13.4012 46.0376C12.4593 46.9795 12.5272 48.8123 14.0715 50.3567C15.6328 51.9179 17.2789 52.1386 18.3905 51.027C18.7129 50.7046 18.8911 50.2379 18.9845 49.8221L19.6548 50.5773L20.9531 51.8755ZM17.6693 49.6948C17.1262 50.2379 16.3286 50.0512 15.3443 49.0669C14.3939 48.1165 14.2497 47.2426 14.6994 46.7928C14.9115 46.5807 15.1916 46.4195 15.5479 46.3855L18.0172 48.8548C18.0172 49.2281 17.8984 49.4657 17.6693 49.6948ZM19.9942 47.3698C19.8245 47.5395 19.553 47.7092 19.1712 47.7517L16.6935 45.274C16.7444 44.8667 16.8801 44.6121 17.0923 44.4C17.6438 43.8484 18.4075 44.086 19.3154 44.994C20.3506 46.0292 20.4864 46.8777 19.9942 47.3698Z" fill="#2E3747"/>
<path d="M26.1982 43.2193C27.3861 42.0314 27.5643 40.0204 25.986 38.4421C24.4078 36.8639 22.3968 37.0421 21.2088 38.23C20.0209 39.4179 19.8427 41.4289 21.4209 43.0072C22.9992 44.5855 25.0102 44.4073 26.1982 43.2193ZM25.1799 42.2011C24.535 42.846 23.5932 42.6339 22.6937 41.7344C21.8028 40.8435 21.5822 39.8931 22.227 39.2482C22.8719 38.6033 23.8223 38.824 24.7132 39.7149C25.6127 40.6144 25.8248 41.5562 25.1799 42.2011Z" fill="#2E3747"/>
<path d="M31.2297 41.5989L32.4771 40.3515L31.0346 38.909L30.2115 38.1708C30.9073 38.1369 31.4928 37.9247 31.9086 37.5089C32.9522 36.4653 32.9862 34.5476 31.357 32.9184C29.8975 31.4589 28.2429 31.1959 27.0719 32.3669C26.5628 32.876 26.3422 33.6397 26.2828 34.3779L26.2574 34.4033L25.6719 34.0045L24.6536 35.0228L31.2297 41.5989ZM30.6018 36.7622C30.3473 37.0168 29.9485 37.2289 29.3884 37.2629L27.301 35.1755C27.2926 34.5221 27.4198 34.0724 27.7423 33.75C28.3956 33.0966 29.1848 33.3087 30.0927 34.2167C31.1279 35.2519 31.1788 36.1852 30.6018 36.7622Z" fill="#2E3747"/>
<path d="M34.8661 34.3138L35.9607 33.2192L34.4928 31.7512C34.0091 31.2676 32.9909 30.436 32.4309 29.9439L32.4648 29.9099C32.9909 30.1645 33.6697 30.4699 34.1958 30.7245L36.5632 31.7682L37.2675 31.0639L36.2068 28.7135C35.9523 28.1874 35.6638 27.5256 35.3922 26.9825L35.4347 26.9401C35.9098 27.5171 36.7499 28.5268 37.2335 29.0105L38.7015 30.4784L39.8131 29.3669L35.0613 24.6151L33.6443 26.0321L34.7813 28.4759C35.0528 28.985 35.2734 29.4602 35.5025 29.9269L35.4601 29.9693C35.0019 29.7317 34.5352 29.5026 34.0176 29.2396L31.5314 28.145L30.1144 29.562L34.8661 34.3138Z" fill="#2E3747"/>
<path d="M42.4453 26.9722C42.9883 26.4292 43.192 25.6825 43.2514 24.9103L43.2853 24.8764L43.8793 25.3006L44.8975 24.2824L42.1228 21.5077C40.7482 20.1331 39.4076 20.0313 38.2026 21.2362C37.4559 21.9829 37.0571 22.9417 36.845 23.8496L38.1178 24.223C38.3045 23.5272 38.5336 22.9078 38.9748 22.4665C39.5603 21.881 40.1203 22.0338 40.6125 22.475C38.8984 24.5963 38.6099 25.954 39.6282 26.9722C40.4343 27.7783 41.5968 27.8207 42.4453 26.9722ZM41.8768 25.5891C41.5119 25.954 41.0876 26.0558 40.7143 25.6825C40.29 25.2582 40.3579 24.5454 41.3761 23.2387L42.335 24.1975C42.3265 24.8 42.2332 25.2327 41.8768 25.5891Z" fill="#2E3747"/>
<path d="M47.0466 22.1334L48.2854 20.8945L44.5179 17.127L45.9774 15.6676L44.9931 14.6833L40.8438 18.8326L41.8281 19.8169L43.2791 18.3659L47.0466 22.1334Z" fill="#2E3747"/>
<path d="M49.0139 15.8894L49.8285 15.0749L46.8756 11.7656L45.7386 10.5437L44.4827 11.7995L45.7046 12.9366L49.0139 15.8894ZM51.6783 17.7392C52.1195 17.298 52.1025 16.6022 51.6443 16.144C51.1776 15.6773 50.4903 15.6688 50.0491 16.1101C49.6079 16.5513 49.6248 17.2301 50.0915 17.6968C50.5497 18.155 51.237 18.1805 51.6783 17.7392Z" fill="#2E3747"/>
</svg>
