<svg width="310" height="80" viewBox="0 0 310 80" fill="none" xmlns="http://www.w3.org/2000/svg">
<path d="M118.129 54.2517C119.857 54.2517 121.279 53.5677 122.377 52.2897L120.973 50.6337C120.253 51.4077 119.371 51.9477 118.219 51.9477C116.113 51.9477 114.745 50.2017 114.745 47.3037C114.745 44.4417 116.257 42.7137 118.273 42.7137C119.281 42.7137 120.055 43.1817 120.739 43.8297L122.125 42.1377C121.261 41.2377 119.911 40.4277 118.219 40.4277C114.853 40.4277 112.027 43.0017 112.027 47.3937C112.027 51.8397 114.763 54.2517 118.129 54.2517Z" fill="#FFC700"/>
<path d="M124.307 53.9997H126.629V50.8857C126.629 49.8597 126.431 47.8977 126.359 46.7817H126.431C126.719 47.6097 127.115 48.6537 127.403 49.4817L128.807 53.0997H130.301L131.669 49.4817C131.957 48.6537 132.353 47.6457 132.641 46.7817H132.731C132.623 47.8977 132.443 49.8597 132.443 50.8857V53.9997H134.801V43.9197H131.795L130.409 47.7177C130.157 48.5457 129.887 49.2837 129.635 50.0217H129.545C129.311 49.2837 129.059 48.5457 128.789 47.7177L127.313 43.9197H124.307V53.9997Z" fill="#FFC700"/>
<path d="M141.861 54.2517C144.381 54.2517 146.703 52.3077 146.703 48.9597C146.703 45.6117 144.381 43.6677 141.861 43.6677C139.341 43.6677 137.019 45.6117 137.019 48.9597C137.019 52.3077 139.341 54.2517 141.861 54.2517ZM141.861 52.0917C140.493 52.0917 139.719 50.8677 139.719 48.9597C139.719 47.0697 140.493 45.8277 141.861 45.8277C143.229 45.8277 144.003 47.0697 144.003 48.9597C144.003 50.8677 143.229 52.0917 141.861 52.0917Z" fill="#FFC700"/>
<path d="M150.603 53.9997H153.231V46.0077H156.327V43.9197H147.525V46.0077H150.603V53.9997Z" fill="#FFC700"/>
<path d="M158.268 57.8697H160.914V54.8097L160.824 53.1537C161.598 53.8557 162.444 54.2517 163.326 54.2517C165.54 54.2517 167.61 52.2537 167.61 48.7977C167.61 45.7017 166.134 43.6677 163.65 43.6677C162.57 43.6677 161.526 44.2437 160.68 44.9637H160.626L160.428 43.9197H158.268V57.8697ZM162.732 52.0737C162.192 52.0737 161.544 51.8757 160.914 51.3177V46.8897C161.598 46.1877 162.21 45.8457 162.894 45.8457C164.28 45.8457 164.892 46.9077 164.892 48.8337C164.892 51.0297 163.956 52.0737 162.732 52.0737Z" fill="#FFC700"/>
<path d="M174.244 54.2517C175.486 54.2517 176.764 53.8197 177.754 53.1357L176.854 51.5157C176.134 51.9657 175.414 52.2177 174.586 52.2177C173.092 52.2177 172.012 51.3537 171.796 49.6977H178.006C178.078 49.4637 178.132 48.9777 178.132 48.4737C178.132 45.7017 176.692 43.6677 173.92 43.6677C171.526 43.6677 169.222 45.7017 169.222 48.9597C169.222 52.2897 171.418 54.2517 174.244 54.2517ZM171.76 47.9337C171.958 46.4757 172.894 45.7197 173.956 45.7197C175.252 45.7197 175.864 46.5837 175.864 47.9337H171.76Z" fill="#FFC700"/>
<path d="M182.296 53.9997H184.924V46.0077H188.02V43.9197H179.218V46.0077H182.296V53.9997Z" fill="#FFC700"/>
<path d="M189.961 53.9997H193.939C196.369 53.9997 198.169 53.0997 198.169 50.5977C198.169 48.1677 196.369 47.2677 193.939 47.2677H192.607V43.9197H189.961V53.9997ZM192.607 51.9657V49.2297H193.795C195.037 49.2297 195.631 49.6797 195.631 50.5797C195.631 51.5337 195.037 51.9657 193.795 51.9657H192.607Z" fill="#FFC700"/>
<path d="M155.699 9.88277C153.952 9.88277 152.537 11.3417 152.537 13.1415C152.537 14.9412 153.952 16.4003 155.699 16.4003C157.445 16.4003 158.861 14.9413 158.861 13.1415C158.861 11.3417 157.445 9.88277 155.699 9.88277ZM155.699 14.8484C154.784 14.8484 154.042 14.0842 154.042 13.1414C154.042 12.1987 154.784 11.4345 155.699 11.4345C156.614 11.4345 157.355 12.1987 157.355 13.1414C157.355 14.0842 156.614 14.8484 155.699 14.8484Z" fill="#FFC700"/>
<path d="M168.31 2.43417L147.756 0.0289797C146.958 -0.0878977 146.15 0.152095 145.535 0.688513C144.92 1.17993 144.526 1.90837 144.443 2.7058L144.067 5.88696H142.9C141.243 5.88696 140.001 7.3999 140.001 9.10688V24.9738C139.959 26.6015 141.206 27.956 142.785 27.999C142.824 28 142.862 28.0002 142.9 27.9997H163.567C165.223 27.9997 166.729 26.6807 166.729 24.9738V24.3531C167.242 24.2508 167.729 24.0394 168.159 23.7324C168.769 23.2032 169.16 22.4537 169.251 21.6375L170.983 5.88696C171.159 4.17605 169.968 2.63696 168.31 2.43417ZM165.223 24.9738C165.223 25.8272 164.395 26.4479 163.567 26.4479H142.9C142.152 26.4706 141.527 25.8639 141.505 25.0929C141.504 25.0532 141.505 25.0135 141.507 24.9738V22.103L147.342 17.6804C148.043 17.1258 149.03 17.1751 149.676 17.7968L153.779 21.5211C154.402 22.0602 155.187 22.3616 156 22.3745C156.636 22.3826 157.262 22.208 157.807 21.8702L165.223 17.4476V24.9738H165.223ZM165.223 15.6243L157.016 20.5512C156.312 20.9814 155.42 20.9036 154.795 20.3573L150.654 16.5942C149.468 15.5432 147.733 15.4788 146.476 16.439L141.507 20.1632V9.10688C141.507 8.25339 142.071 7.43874 142.9 7.43874H163.567C164.451 7.47653 165.166 8.19621 165.223 9.10688V15.6243ZM169.478 5.67748C169.478 5.68261 169.477 5.68781 169.477 5.69293L167.708 21.4435C167.711 21.8519 167.53 22.2387 167.218 22.4909C167.068 22.6461 166.729 22.7237 166.729 22.8013V9.10688C166.669 7.33953 165.282 5.92698 163.567 5.88696H145.572L145.911 2.86099C145.985 2.46915 146.184 2.11406 146.476 1.85231C146.806 1.61707 147.205 1.5074 147.605 1.54193L168.122 3.98595C168.95 4.06697 169.557 4.82429 169.478 5.67748Z" fill="#FFC700"/>
</svg>
