<svg width="38" height="38" viewBox="0 0 38 38" fill="none" xmlns="http://www.w3.org/2000/svg">
<path d="M37.6668 14.388L34.2028 10.924C33.7908 10.5119 33.1343 10.4777 32.6816 10.8447C31.1166 12.1136 28.8604 11.9942 27.4331 10.567C26.0059 9.13984 25.8868 6.88352 27.1554 5.31853C27.5224 4.86589 27.4882 4.20926 27.0763 3.79725L23.6123 0.333279C23.1679 -0.111047 22.4472 -0.111138 22.003 0.333279L0.333311 22.003C-0.111104 22.4473 -0.111104 23.168 0.333311 23.6123L3.79726 27.0762C3.79762 27.0766 3.79808 27.0771 3.79835 27.0773C4.24268 27.5218 4.96329 27.5218 5.40761 27.0773C5.44896 27.0359 5.48656 26.992 5.52033 26.9462C5.59801 26.853 5.67952 26.7635 5.7634 26.6796C7.29562 25.1474 9.78841 25.1474 11.3205 26.6794C12.8526 28.2115 12.8526 30.7046 11.3204 32.2366C11.2241 32.3331 11.1202 32.4263 11.0118 32.5142C10.7614 32.7175 10.609 33.0171 10.5921 33.3389C10.5753 33.6608 10.6959 33.9748 10.924 34.2027L14.3877 37.6667C14.8321 38.1111 15.5527 38.1111 15.9971 37.6667L37.6665 15.9971C38.1112 15.5529 38.1111 14.8324 37.6668 14.388ZM23.0343 21.5943C23.0343 21.6835 22.991 21.767 22.9184 21.8185C22.8712 21.852 22.8153 21.8694 22.759 21.8694C22.7287 21.8694 22.6981 21.8642 22.6687 21.8541L19.1315 20.621C19.099 21.7233 19.0085 22.7401 18.8695 23.5499C18.8443 23.6968 18.8176 23.8347 18.7899 23.9641L20.6317 24.9875C20.6792 25.0139 20.7086 25.0638 20.7086 25.1182V25.7415C20.7086 25.7898 20.6851 25.8351 20.6458 25.8633C20.6202 25.8814 20.5898 25.8909 20.5592 25.8909C20.5426 25.8909 20.5261 25.8881 20.5101 25.8826L18.3573 25.1321C18.2584 25.2566 18.1228 25.3611 17.9424 25.3611C17.7619 25.3611 17.6263 25.2566 17.5274 25.1321L15.3746 25.8826C15.3288 25.8985 15.2783 25.8913 15.2389 25.8633C15.1994 25.8351 15.1761 25.7897 15.1761 25.7415V25.1182C15.1761 25.0638 15.2054 25.0137 15.2529 24.9875L17.0947 23.9641C17.0669 23.8347 17.0403 23.6968 17.0151 23.5499C16.8761 22.7401 16.7858 21.7233 16.7531 20.621L13.2159 21.8541C13.1318 21.8833 13.0387 21.8702 12.9661 21.8185C12.8936 21.767 12.8504 21.6835 12.8504 21.5943V20.4471C12.8504 20.3471 12.9045 20.255 12.9918 20.2065L13.7908 19.7627V19.4013C13.7908 19.1583 13.9878 18.9613 14.2307 18.9613C14.4327 18.9613 14.6024 19.0975 14.6542 19.2828L15.3266 18.9093V18.5763C15.3266 18.3332 15.5235 18.1362 15.7665 18.1362C15.9596 18.1362 16.1232 18.2607 16.1826 18.4336L16.7791 18.1021C16.8233 17.2481 16.9035 16.4648 17.0151 15.8146C17.1038 15.2989 17.2084 14.8901 17.3264 14.5995C17.3863 14.452 17.5684 14.0033 17.9425 14.0033C18.3165 14.0033 18.4987 14.4521 18.5586 14.5995C18.6766 14.89 18.7812 15.2988 18.8698 15.8146C18.9815 16.4647 19.0617 17.2481 19.1059 18.1021L19.7023 18.4336C19.7615 18.2607 19.9251 18.1362 20.1183 18.1362C20.3613 18.1362 20.5583 18.3332 20.5583 18.5763V18.9093L21.2305 19.2828C21.2823 19.0975 21.4523 18.9613 21.6542 18.9613C21.8972 18.9613 22.094 19.1583 22.094 19.4013V19.7627L22.8932 20.2065C22.9803 20.255 23.0346 20.3471 23.0346 20.4471V21.5943H23.0343V21.5943ZM30.4963 18.5616C30.033 19.025 29.2815 19.025 28.8183 18.5616L19.4386 9.18201C18.9753 8.7186 18.9753 7.96732 19.4386 7.50392C19.9019 7.04052 20.6533 7.04052 21.1166 7.50392L30.4966 16.8838C30.9597 17.3472 30.9597 18.0985 30.4963 18.5616Z" fill="#FFC700"/>
</svg>
