<svg width="148" height="164" viewBox="0 0 148 164" fill="none" xmlns="http://www.w3.org/2000/svg">
<path fill-rule="evenodd" clip-rule="evenodd" d="M49.2711 3.72791C47.0132 4.43913 44.7981 5.24659 42.6304 6.14549L41.8643 4.29804C44.0859 3.3768 46.3561 2.54924 48.6701 1.82031L49.2711 3.72791ZM104.642 6.14549C102.474 5.24659 100.259 4.43913 98.0009 3.72791L98.6018 1.82031C100.916 2.54925 103.186 3.3768 105.408 4.29804L104.642 6.14549ZM117.161 12.6754C115.18 11.4101 113.139 10.2288 111.045 9.13635L111.97 7.3631C114.116 8.4826 116.207 9.69314 118.238 10.9896L117.161 12.6754ZM36.2273 9.13635C34.133 10.2288 32.0924 11.4101 30.1105 12.6754L29.0343 10.9896C31.0651 9.69314 33.1562 8.4826 35.3023 7.3631L36.2273 9.13635ZM128.359 21.2793C126.623 19.6877 124.817 18.1708 122.947 16.7337L124.166 15.1479C126.082 16.6203 127.932 18.1744 129.71 19.8051L128.359 21.2793ZM24.325 16.7337C22.4549 18.1708 20.6494 19.6877 18.9134 21.2793L17.5618 19.8051C19.3404 18.1744 21.1903 16.6203 23.1064 15.1479L24.325 16.7337ZM137.902 31.6886C136.465 29.8185 134.948 28.0129 133.356 26.2769L134.83 24.9254C136.461 26.704 138.015 28.5539 139.488 30.4699L137.902 31.6886ZM13.9157 26.2769C12.3241 28.0129 10.8072 29.8185 9.37014 31.6886L7.7843 30.4699C9.25671 28.5539 10.8108 26.704 12.4415 24.9254L13.9157 26.2769ZM145.499 43.5909C144.407 41.4966 143.225 39.456 141.96 37.4741L143.646 36.3979C144.942 38.4287 146.153 40.5198 147.272 42.6659L145.499 43.5909ZM5.31178 37.4741C4.04654 39.456 2.8652 41.4966 1.77276 43.5909L-0.000488281 42.6659C1.11901 40.5198 2.32955 38.4287 3.626 36.3979L5.31178 37.4741ZM141.96 124.525C143.225 122.543 144.407 120.503 145.499 118.408L147.272 119.333C146.153 121.479 144.942 123.57 143.646 125.601L141.96 124.525ZM1.77276 118.408C2.86521 120.503 4.04654 122.543 5.31178 124.525L3.626 125.601C2.32955 123.57 1.11901 121.479 -0.000484467 119.333L1.77276 118.408ZM9.37014 130.311C10.8072 132.181 12.3241 133.986 13.9157 135.722L12.4415 137.074C10.8108 135.295 9.25671 133.445 7.78431 131.529L9.37014 130.311ZM133.356 135.722C134.948 133.986 136.465 132.181 137.902 130.311L139.488 131.529C138.015 133.445 136.461 135.295 134.83 137.074L133.356 135.722ZM18.9134 140.72C20.6494 142.311 22.4549 143.828 24.325 145.265L23.1064 146.851C21.1903 145.379 19.3404 143.825 17.5618 142.194L18.9134 140.72ZM122.947 145.265C124.817 143.828 126.623 142.311 128.359 140.72L129.71 142.194C127.932 143.825 126.082 145.379 124.166 146.851L122.947 145.265ZM30.1105 149.324C32.0924 150.589 34.133 151.77 36.2273 152.863L35.3023 154.636C33.1562 153.517 31.0651 152.306 29.0343 151.01L30.1105 149.324ZM111.045 152.863C113.139 151.77 115.18 150.589 117.161 149.324L118.238 151.01C116.207 152.306 114.116 153.517 111.97 154.636L111.045 152.863ZM42.6304 155.854C44.7981 156.753 47.0132 157.56 49.271 158.271L48.6701 160.179C46.3561 159.45 44.0859 158.622 41.8643 157.701L42.6304 155.854ZM98.0009 158.271C100.259 157.56 102.474 156.753 104.642 155.854L105.408 157.701C103.186 158.622 100.916 159.45 98.6018 160.179L98.0009 158.271ZM56.0958 160.096C58.3808 160.6 60.7022 161.008 63.0554 161.315L62.7967 163.298C60.3854 162.984 58.0065 162.566 55.6647 162.049L56.0958 160.096ZM84.2166 161.315C86.5698 161.008 88.8911 160.6 91.1762 160.096L91.6073 162.049C89.2654 162.566 86.8866 162.984 84.4753 163.298L84.2166 161.315ZM70.0985 161.924C71.2713 161.974 72.4506 162 73.636 162C74.8213 162 76.0006 161.974 77.1734 161.924L77.2593 163.922C76.0579 163.973 74.8499 164 73.636 164C72.422 164 71.2141 163.973 70.0127 163.922L70.0985 161.924Z" fill="#FFC700"/>
<path d="M86.2087 6.41205L84.4055 0H61.8267L60.0236 6.41205H49.6357V35.6139H64.5315C63.3947 34.9573 62.3363 34.1847 61.3955 33.2963H51.9877V8.72966H59.3572L58.534 11.7425H58.8084C60.2588 9.54082 62.2187 7.72536 64.5315 6.41205H62.4539L63.5907 2.31761H82.6024L83.7392 6.41205H81.6616C83.9744 7.72536 85.8951 9.54082 87.3847 11.7425H87.6591L86.8751 8.72966H94.2838V33.2963H84.8759C83.9352 34.1847 82.8768 34.9573 81.74 35.6139H96.6357V6.41205H86.2087Z" fill="#FFC700"/>
<path d="M88.3647 20.9742C88.3647 12.6694 81.5048 5.94835 73.1162 5.94835C64.7275 5.94835 57.8676 12.708 57.8676 20.9742C57.8676 29.2789 64.7275 36 73.1162 36C81.5048 36 88.3647 29.2789 88.3647 20.9742ZM73.1162 33.721C65.9819 33.721 60.2196 28.0043 60.2196 20.9742C60.2196 13.9441 66.0211 8.26596 73.1162 8.26596C80.2113 8.26596 86.0128 13.9827 86.0128 20.9742C86.0128 28.0043 80.2505 33.721 73.1162 33.721Z" fill="#FFC700"/>
<path d="M73.1162 10.5836C67.2755 10.5836 62.5323 15.2574 62.5323 21.0128C62.5323 26.7682 67.2755 31.4421 73.1162 31.4421C78.9569 31.4421 83.7 26.7682 83.7 21.0128C83.7 15.2574 78.9569 10.5836 73.1162 10.5836ZM74.5273 15.7596C73.7434 15.7596 73.1162 15.1416 73.1162 14.369C73.1162 13.5965 73.7434 12.9785 74.5273 12.9785C75.3113 12.9785 75.9385 13.5965 75.9385 14.369C75.9385 15.1416 75.3113 15.7596 74.5273 15.7596ZM78.8001 21.7854C77.3497 21.7854 76.1737 20.6266 76.1737 19.1974C76.1737 17.7682 77.3497 16.6094 78.8001 16.6094C80.2504 16.6094 81.4264 17.7682 81.4264 19.1974C81.3872 20.6266 80.2112 21.7854 78.8001 21.7854Z" fill="#FFC700"/>
</svg>
