<svg width="148" height="174" viewBox="0 0 148 174" fill="none" xmlns="http://www.w3.org/2000/svg">
<path fill-rule="evenodd" clip-rule="evenodd" d="M117.162 22.6755C115.18 21.4103 113.139 20.229 111.045 19.1365L111.97 17.3633C114.116 18.4828 116.207 19.6933 118.238 20.9898L117.162 22.6755ZM36.2278 19.1365C34.1335 20.229 32.0929 21.4103 30.111 22.6755L29.0348 20.9898C31.0656 19.6933 33.1567 18.4828 35.3028 17.3633L36.2278 19.1365ZM128.359 31.2795C126.623 29.6879 124.817 28.171 122.947 26.7339L124.166 25.1481C126.082 26.6205 127.932 28.1746 129.711 29.8053L128.359 31.2795ZM24.3255 26.7339C22.4554 28.171 20.6498 29.6879 18.9138 31.2795L17.5623 29.8053C19.3409 28.1746 21.1908 26.6205 23.1068 25.1481L24.3255 26.7339ZM137.902 41.6888C136.465 39.8187 134.948 38.0131 133.357 36.2771L134.831 34.9256C136.462 36.7042 138.016 38.5541 139.488 40.4701L137.902 41.6888ZM13.9162 36.2771C12.3246 38.0131 10.8077 39.8187 9.37063 41.6888L7.78479 40.4701C9.25719 38.5541 10.8113 36.7042 12.442 34.9256L13.9162 36.2771ZM145.5 53.5911C144.407 51.4968 143.226 49.4562 141.961 47.4743L143.646 46.3981C144.943 48.4289 146.153 50.5199 147.273 52.6661L145.5 53.5911ZM5.31226 47.4743C4.04703 49.4562 2.86569 51.4968 1.77325 53.5911L0 52.6661C1.1195 50.52 2.33004 48.4289 3.62649 46.3981L5.31226 47.4743ZM141.961 134.525C143.226 132.543 144.407 130.503 145.5 128.408L147.273 129.333C146.153 131.48 144.943 133.571 143.646 135.601L141.961 134.525ZM1.77325 128.408C2.86569 130.503 4.04703 132.543 5.31227 134.525L3.62649 135.601C2.33004 133.571 1.1195 131.48 3.8147e-06 129.333L1.77325 128.408ZM9.37063 140.311C10.8077 142.181 12.3246 143.986 13.9162 145.722L12.442 147.074C10.8113 145.295 9.2572 143.445 7.78479 141.529L9.37063 140.311ZM133.357 145.722C134.948 143.986 136.465 142.181 137.902 140.311L139.488 141.529C138.016 143.445 136.462 145.295 134.831 147.074L133.357 145.722ZM18.9138 150.72C20.6498 152.312 22.4554 153.829 24.3255 155.266L23.1068 156.851C21.1908 155.379 19.3409 153.825 17.5623 152.194L18.9138 150.72ZM122.947 155.266C124.818 153.829 126.623 152.312 128.359 150.72L129.711 152.194C127.932 153.825 126.082 155.379 124.166 156.851L122.947 155.266ZM30.111 159.324C32.0929 160.589 34.1335 161.771 36.2278 162.863L35.3028 164.636C33.1567 163.517 31.0656 162.306 29.0348 161.01L30.111 159.324ZM111.045 162.863C113.139 161.771 115.18 160.589 117.162 159.324L118.238 161.01C116.207 162.306 114.116 163.517 111.97 164.636L111.045 162.863ZM42.6309 165.854C44.7986 166.753 47.0137 167.56 49.2715 168.271L48.6706 170.179C46.3566 169.45 44.0864 168.623 41.8648 167.701L42.6309 165.854ZM98.0014 168.271C100.259 167.56 102.474 166.753 104.642 165.854L105.408 167.701C103.187 168.623 100.916 169.45 98.6023 170.179L98.0014 168.271ZM56.0963 170.096C58.3813 170.6 60.7027 171.008 63.0559 171.315L62.7972 173.298C60.3859 172.984 58.007 172.566 55.6652 172.049L56.0963 170.096ZM84.2171 171.315C86.5703 171.008 88.8916 170.6 91.1766 170.096L91.6078 172.049C89.2659 172.566 86.8871 172.984 84.4758 173.298L84.2171 171.315ZM70.099 171.924C71.2718 171.974 72.4511 172 73.6365 172C74.8218 172 76.0011 171.974 77.1739 171.924L77.2598 173.922C76.0584 173.974 74.8504 174 73.6365 174C72.4225 174 71.2146 173.974 70.0132 173.922L70.099 171.924Z" fill="#FFC700"/>
<path d="M62 12.3443C62 19.1707 69.7281 38 75 38C79.8525 38 88 19.1138 88 12.3443C87.9401 5.51796 82.129 0 75 0C67.8111 0 62 5.51796 62 12.3443Z" fill="#FFC700"/>
<path d="M69 13.0005C69 16.3127 71.6875 19 75 19C78.3125 19 81 16.3127 81 13.0005C81 9.68833 78.3125 7.00107 75 7.00107C71.6875 6.93857 69 9.62583 69 13.0005Z" fill="white"/>
</svg>
