<svg width="652" height="176" viewBox="0 0 652 176" fill="none" xmlns="http://www.w3.org/2000/svg">
<g opacity="0.1">
<path d="M14.9891 7.85001V164.65L0.289062 168.325V172H70.1141V168.325L55.4141 164.65V6.62501H108.089V164.65L93.3891 168.325V172H163.214V168.325L148.514 164.65V7.85001L163.214 4.175V0.5H0.289062V4.175L14.9891 7.85001Z" fill="white"/>
<path d="M259.903 137.7C251.328 158.525 242.753 167.1 235.403 168.325V134.025C235.403 134.025 230.503 132.8 225.603 132.8C214.578 132.8 206.003 141.375 206.003 153.625C206.003 165.875 215.803 175.675 230.503 175.675C243.978 175.675 255.493 164.65 267.253 137.7L322.378 11.525L341.978 4.175V0.5H296.653V4.175L315.028 11.525L279.258 93.11L237.853 21.325C231.483 10.3 221.928 0.5 204.778 0.5H172.928V4.175L185.178 7.85001L259.903 137.7Z" fill="white"/>
<path d="M449.816 172V168.325L435.116 164.65V6.62501H463.291C463.291 32.35 479.216 44.6 479.216 44.6H486.566V0.5H343.241V44.6H350.591C350.591 44.6 366.516 32.35 366.516 6.62501H394.691V164.65L379.991 168.325V172H449.816Z" fill="white"/>
<path d="M560.009 69.1V7.85001L574.709 4.175V0.5H504.884V4.175L519.584 7.85001V164.65L504.884 168.325V172H575.934C632.284 172 651.884 152.4 651.884 120.55C651.884 88.7 632.284 69.1 575.934 69.1H560.009ZM575.934 75.225C595.534 75.225 610.234 89.925 610.234 120.55C610.234 151.175 595.534 165.875 575.934 165.875H560.009V75.225H575.934Z" fill="white"/>
</g>
</svg>
