<svg width="112" height="82" viewBox="0 0 112 82" fill="none" xmlns="http://www.w3.org/2000/svg">
<path d="M32.4713 81.6648C26.4773 81.6648 21.0382 80.0738 16.1542 76.8918C11.2702 73.7098 7.38525 69.0848 4.49925 63.0168C1.68725 56.8748 0.28125 49.5858 0.28125 41.1498C0.28125 32.7138 1.68725 25.4618 4.49925 19.3938C7.38525 13.2518 11.2702 8.58977 16.1542 5.40776C21.0382 2.22577 26.4773 0.634766 32.4713 0.634766C38.4653 0.634766 43.9043 2.22577 48.7883 5.40776C53.6723 8.58977 57.5203 13.2518 60.3323 19.3938C63.2183 25.4618 64.6612 32.7138 64.6612 41.1498C64.6612 49.5858 63.2183 56.8748 60.3323 63.0168C57.5203 69.0848 53.6723 73.7098 48.7883 76.8918C43.9043 80.0738 38.4653 81.6648 32.4713 81.6648ZM32.4713 79.4448C40.9813 79.4448 45.2363 66.6798 45.2363 41.1498C45.2363 15.6198 40.9813 2.85476 32.4713 2.85476C23.9613 2.85476 19.7063 15.6198 19.7063 41.1498C19.7063 66.6798 23.9613 79.4448 32.4713 79.4448Z" fill="#F2F3FA"/>
<path d="M77.4176 79.9998V78.3348L85.1876 76.1148V15.1758L73.5326 23.3898L71.3126 20.6148L91.5146 2.29976H103.503V76.1148L111.273 78.3348V79.9998H77.4176Z" fill="#F2F3FA"/>
</svg>
