<svg width="129" height="82" viewBox="0 0 129 82" fill="none" xmlns="http://www.w3.org/2000/svg">
<path d="M32.581 81.665C26.587 81.665 21.148 80.074 16.264 76.892C11.38 73.71 7.495 69.085 4.609 63.017C1.797 56.875 0.390996 49.586 0.390996 41.15C0.390996 32.714 1.797 25.462 4.609 19.394C7.495 13.252 11.38 8.59 16.264 5.40799C21.148 2.226 26.587 0.634996 32.581 0.634996C38.575 0.634996 44.014 2.226 48.898 5.40799C53.782 8.59 57.63 13.252 60.442 19.394C63.328 25.462 64.771 32.714 64.771 41.15C64.771 49.586 63.328 56.875 60.442 63.017C57.63 69.085 53.782 73.71 48.898 76.892C44.014 80.074 38.575 81.665 32.581 81.665ZM32.581 79.445C41.091 79.445 45.346 66.68 45.346 41.15C45.346 15.62 41.091 2.85499 32.581 2.85499C24.071 2.85499 19.816 15.62 19.816 41.15C19.816 66.68 24.071 79.445 32.581 79.445ZM73.0873 75.005C73.0873 70.639 73.9383 66.68 75.6403 63.128C77.4163 59.502 79.5623 56.357 82.0783 53.693C84.5943 51.029 87.8873 47.884 91.9573 44.258C95.7313 40.928 98.6913 38.153 100.837 35.933C102.983 33.639 104.796 31.086 106.276 28.274C107.756 25.388 108.496 22.28 108.496 18.95C108.496 14.066 107.312 10.255 104.944 7.51699C102.576 4.77899 99.5053 3.40999 95.7313 3.40999C93.5853 3.40999 91.4023 3.70599 89.1823 4.298L86.8513 5.075V22.835L85.4083 23.168C84.2243 23.316 83.2253 23.39 82.4113 23.39C79.8953 23.39 77.8603 22.65 76.3063 21.17C74.8263 19.616 74.0863 17.581 74.0863 15.065C74.0863 12.697 74.9743 10.403 76.7503 8.183C78.6003 5.963 81.3013 4.15 84.8533 2.744C88.4793 1.338 92.8453 0.634996 97.9513 0.634996C107.941 0.634996 115.341 2.633 120.151 6.629C124.961 10.625 127.366 16.212 127.366 23.39C127.366 27.904 126.182 31.789 123.814 35.045C121.52 38.301 118.671 41.002 115.267 43.148C111.937 45.294 107.46 47.736 101.836 50.474C97.1003 52.768 93.2523 54.803 90.2923 56.579C87.4063 58.281 84.7053 60.353 82.1893 62.795C79.7473 65.237 78.0083 68.012 76.9723 71.12H118.042C118.56 67.124 119.818 63.794 121.816 61.13C122.63 59.872 123.592 58.762 124.702 57.8H128.032V80H73.0873V75.005Z" fill="#F2F3FA"/>
</svg>
