<svg width="130" height="82" viewBox="0 0 130 82" fill="none" xmlns="http://www.w3.org/2000/svg">
<path d="M32.5377 81.6648C26.5437 81.6648 21.1047 80.0738 16.2207 76.8918C11.3367 73.7098 7.45166 69.0848 4.56566 63.0168C1.75366 56.8748 0.347656 49.5858 0.347656 41.1498C0.347656 32.7138 1.75366 25.4618 4.56566 19.3938C7.45166 13.2518 11.3367 8.58977 16.2207 5.40776C21.1047 2.22577 26.5437 0.634766 32.5377 0.634766C38.5317 0.634766 43.9707 2.22577 48.8547 5.40776C53.7387 8.58977 57.5867 13.2518 60.3987 19.3938C63.2847 25.4618 64.7277 32.7138 64.7277 41.1498C64.7277 49.5858 63.2847 56.8748 60.3987 63.0168C57.5867 69.0848 53.7387 73.7098 48.8547 76.8918C43.9707 80.0738 38.5317 81.6648 32.5377 81.6648ZM32.5377 79.4448C41.0477 79.4448 45.3027 66.6798 45.3027 41.1498C45.3027 15.6198 41.0477 2.85476 32.5377 2.85476C24.0277 2.85476 19.7727 15.6198 19.7727 41.1498C19.7727 66.6798 24.0277 79.4448 32.5377 79.4448Z" fill="#F2F3FA"/>
<path d="M96.354 81.6648C91.248 81.6648 86.882 80.9618 83.256 79.5558C79.704 78.1498 77.003 76.3368 75.153 74.1168C73.377 71.8968 72.489 69.6028 72.489 67.2348C72.489 64.7188 73.229 62.7208 74.709 61.2408C76.263 59.6868 78.298 58.9098 80.814 58.9098C81.406 58.9098 81.998 58.9838 82.59 59.1318C83.182 59.2058 83.589 59.2428 83.811 59.2428L85.254 59.4648V77.2248C85.328 77.2248 86.105 77.5208 87.585 78.1128C89.509 78.6308 91.692 78.8898 94.134 78.8898C99.314 78.8898 103.273 77.3358 106.011 74.2278C108.823 71.0458 110.229 66.3098 110.229 60.0198C110.229 53.5818 108.86 48.7348 106.122 45.4788C103.458 42.2228 99.832 40.5948 95.244 40.5948H89.694V37.8198H95.244C98.574 37.8198 101.349 36.3398 103.569 33.3798C105.789 30.4198 106.899 26.1648 106.899 20.6148C106.899 15.0648 105.752 10.8098 103.458 7.84977C101.164 4.88976 98.241 3.40976 94.689 3.40976C92.765 3.40976 90.915 3.70576 89.139 4.29776C88.917 4.37176 88.177 4.63076 86.919 5.07477V22.8348L85.476 23.1678C84.292 23.3158 83.293 23.3898 82.479 23.3898C79.963 23.3898 77.928 22.6498 76.374 21.1698C74.894 19.6158 74.154 17.5808 74.154 15.0648C74.154 12.7708 75.042 10.5138 76.818 8.29377C78.594 6.07376 81.184 4.26076 84.588 2.85476C88.066 1.37476 92.173 0.634766 96.909 0.634766C103.125 0.634766 108.379 1.55977 112.671 3.40976C117.037 5.18577 120.293 7.59077 122.439 10.6248C124.659 13.6588 125.769 16.9888 125.769 20.6148C125.769 24.8328 124.696 28.1998 122.55 30.7158C120.404 33.1578 117.592 35.1188 114.114 36.5988C110.71 37.9308 106.825 38.7078 102.459 38.9298V39.4848C107.343 39.7068 111.783 40.5578 115.779 42.0378C124.659 45.5898 129.099 51.5838 129.099 60.0198C129.099 66.5318 126.398 71.7858 120.996 75.7818C115.668 79.7038 107.454 81.6648 96.354 81.6648Z" fill="#F2F3FA"/>
</svg>
