<svg width="134" height="82" viewBox="0 0 134 82" fill="none" xmlns="http://www.w3.org/2000/svg">
<path d="M32.2252 81.6648C26.2312 81.6648 20.7922 80.0738 15.9082 76.8918C11.0242 73.7098 7.13916 69.0848 4.25316 63.0168C1.44116 56.8748 0.0351562 49.5858 0.0351562 41.1498C0.0351562 32.7138 1.44116 25.4618 4.25316 19.3938C7.13916 13.2518 11.0242 8.58977 15.9082 5.40776C20.7922 2.22577 26.2312 0.634766 32.2252 0.634766C38.2192 0.634766 43.6582 2.22577 48.5422 5.40776C53.4262 8.58977 57.2742 13.2518 60.0862 19.3938C62.9722 25.4618 64.4152 32.7138 64.4152 41.1498C64.4152 49.5858 62.9722 56.8748 60.0862 63.0168C57.2742 69.0848 53.4262 73.7098 48.5422 76.8918C43.6582 80.0738 38.2192 81.6648 32.2252 81.6648ZM32.2252 79.4448C40.7352 79.4448 44.9902 66.6798 44.9902 41.1498C44.9902 15.6198 40.7352 2.85476 32.2252 2.85476C23.7152 2.85476 19.4602 15.6198 19.4602 41.1498C19.4602 66.6798 23.7152 79.4448 32.2252 79.4448Z" fill="#F2F3FA"/>
<path d="M95.4865 79.9998V78.3348L103.256 76.1148V59.4648H71.6215L69.4015 56.1348L111.026 1.18976H121.571V54.4698H133.227V59.4648H121.571V76.1148L129.341 78.3348V79.9998H95.4865ZM75.5065 54.4698H103.256V17.8398L75.5065 54.4698Z" fill="#F2F3FA"/>
</svg>
