<svg width="129" height="94" viewBox="0 0 129 94" fill="none" xmlns="http://www.w3.org/2000/svg">
<path d="M32.3502 93.6655C26.3562 93.6655 20.9172 92.0745 16.0332 88.8925C11.1492 85.7105 7.26416 81.0855 4.37816 75.0175C1.56616 68.8755 0.160156 61.5865 0.160156 53.1505C0.160156 44.7145 1.56616 37.4625 4.37816 31.3945C7.26416 25.2525 11.1492 20.5905 16.0332 17.4085C20.9172 14.2265 26.3562 12.6355 32.3502 12.6355C38.3442 12.6355 43.7832 14.2265 48.6672 17.4085C53.5512 20.5905 57.3992 25.2525 60.2112 31.3945C63.0972 37.4625 64.5402 44.7145 64.5402 53.1505C64.5402 61.5865 63.0972 68.8755 60.2112 75.0175C57.3992 81.0855 53.5512 85.7105 48.6672 88.8925C43.7832 92.0745 38.3442 93.6655 32.3502 93.6655ZM32.3502 91.4455C40.8602 91.4455 45.1152 78.6805 45.1152 53.1505C45.1152 27.6205 40.8602 14.8555 32.3502 14.8555C23.8402 14.8555 19.5852 27.6205 19.5852 53.1505C19.5852 78.6805 23.8402 91.4455 32.3502 91.4455Z" fill="#F2F3FA"/>
<path d="M97.2765 93.6655C92.1705 93.6655 87.8045 92.9625 84.1785 91.5565C80.6265 90.1505 77.9255 88.3375 76.0755 86.1175C74.2995 83.8975 73.4115 81.6035 73.4115 79.2355C73.4115 76.7195 74.1515 74.7215 75.6315 73.2415C77.1855 71.6875 79.2205 70.9105 81.7365 70.9105C82.3285 70.9105 82.9205 70.9845 83.5125 71.1325C84.1045 71.2065 84.5115 71.2435 84.7335 71.2435L86.1765 71.4655V89.2255C86.2505 89.2255 87.0275 89.5215 88.5075 90.1135C90.4315 90.6315 92.6145 90.8905 95.0565 90.8905C99.4965 90.8905 103.011 89.0775 105.601 85.4515C108.191 81.7515 109.486 75.9795 109.486 68.1355C109.486 60.3655 108.154 54.7415 105.49 51.2635C102.826 47.7115 98.9785 45.9355 93.9465 45.9355C92.0225 45.9355 90.2095 46.2685 88.5075 46.9345C86.8055 47.6005 84.9925 48.4885 83.0685 49.5985C81.5145 50.5605 79.9605 51.7445 78.4065 53.1505L76.1865 51.4855L80.6265 14.3005H113.371C113.889 10.3045 115.147 6.97447 117.145 4.31047C117.959 3.05247 118.921 1.94247 120.031 0.980469H123.361V22.6255H83.0685L80.0715 48.1555C81.1075 47.4155 82.6245 46.6015 84.6225 45.7135C88.7665 44.0115 92.6145 43.1605 96.1665 43.1605C106.97 43.1605 115.036 45.3805 120.364 49.8205C125.692 54.1865 128.356 60.2915 128.356 68.1355C128.356 76.1275 125.729 82.3805 120.475 86.8945C115.221 91.4085 107.488 93.6655 97.2765 93.6655Z" fill="#F2F3FA"/>
</svg>
