<svg width="134" height="82" viewBox="0 0 134 82" fill="none" xmlns="http://www.w3.org/2000/svg">
<path d="M32.5884 81.6648C26.5944 81.6648 21.1554 80.0738 16.2714 76.8918C11.3874 73.7098 7.50244 69.0848 4.61644 63.0168C1.80444 56.8748 0.398438 49.5858 0.398438 41.1498C0.398438 32.7138 1.80444 25.4618 4.61644 19.3938C7.50244 13.2518 11.3874 8.58977 16.2714 5.40776C21.1554 2.22577 26.5944 0.634766 32.5884 0.634766C38.5824 0.634766 44.0214 2.22577 48.9054 5.40776C53.7894 8.58977 57.6374 13.2518 60.4494 19.3938C63.3354 25.4618 64.7784 32.7138 64.7784 41.1498C64.7784 49.5858 63.3354 56.8748 60.4494 63.0168C57.6374 69.0848 53.7894 73.7098 48.9054 76.8918C44.0214 80.0738 38.5824 81.6648 32.5884 81.6648ZM32.5884 79.4448C41.0984 79.4448 45.3534 66.6798 45.3534 41.1498C45.3534 15.6198 41.0984 2.85476 32.5884 2.85476C24.0784 2.85476 19.8234 15.6198 19.8234 41.1498C19.8234 66.6798 24.0784 79.4448 32.5884 79.4448Z" fill="#F2F3FA"/>
<path d="M105.285 81.6648C95.9608 81.6648 88.6348 78.3348 83.3068 71.6748C77.9788 65.0148 75.3148 54.8398 75.3148 41.1498C75.3148 27.8298 78.2008 17.7658 83.9728 10.9578C89.8188 4.07577 97.8478 0.634766 108.06 0.634766C112.426 0.634766 116.237 1.37476 119.493 2.85476C122.823 4.26076 125.339 6.07376 127.041 8.29377C128.817 10.5138 129.705 12.7708 129.705 15.0648C129.705 17.5808 128.928 19.6158 127.374 21.1698C125.894 22.6498 123.896 23.3898 121.38 23.3898C120.344 23.3898 119.308 23.3158 118.272 23.1678L116.94 22.8348V5.07477L114.831 4.29776C113.203 3.70576 111.686 3.40976 110.28 3.40976C106.654 3.40976 103.657 4.37176 101.289 6.29576C98.9948 8.21977 97.2188 11.7718 95.9608 16.9518C94.7768 22.1318 94.1848 29.4578 94.1848 38.9298C94.9988 37.6718 95.9978 36.5618 97.1818 35.5998C99.9938 33.3798 103.25 32.2698 106.95 32.2698C112.352 32.2698 117.051 33.3058 121.047 35.3778C125.117 37.3758 128.225 40.1878 130.371 43.8138C132.517 47.4398 133.59 51.5468 133.59 56.1348C133.59 64.0528 131.111 70.3058 126.153 74.8938C121.269 79.4078 114.313 81.6648 105.285 81.6648ZM105.285 79.4448C106.765 79.4448 108.208 78.7048 109.614 77.2248C111.094 75.7448 112.315 73.3398 113.277 70.0098C114.239 66.6798 114.72 62.4248 114.72 57.2448C114.72 52.0648 114.202 47.8098 113.166 44.4798C112.204 41.1498 110.946 38.7448 109.392 37.2648C107.912 35.7848 106.358 35.0448 104.73 35.0448C101.696 35.0448 99.2538 36.5248 97.4038 39.4848C95.6278 42.4448 94.7398 47.0698 94.7398 53.3598C94.7398 62.7578 95.7388 69.4548 97.7368 73.4508C99.8088 77.4468 102.325 79.4448 105.285 79.4448Z" fill="#F2F3FA"/>
</svg>
