<svg width="148" height="172" viewBox="0 0 148 172" fill="none" xmlns="http://www.w3.org/2000/svg">
<path fill-rule="evenodd" clip-rule="evenodd" d="M117.162 20.6755C115.18 19.4103 113.139 18.229 111.045 17.1365L111.97 15.3633C114.116 16.4828 116.207 17.6933 118.238 18.9898L117.162 20.6755ZM36.2278 17.1365C34.1335 18.229 32.0929 19.4103 30.111 20.6755L29.0348 18.9898C31.0656 17.6933 33.1567 16.4828 35.3028 15.3633L36.2278 17.1365ZM128.359 29.2795C126.623 27.6879 124.817 26.171 122.947 24.7339L124.166 23.1481C126.082 24.6205 127.932 26.1746 129.711 27.8053L128.359 29.2795ZM24.3255 24.7339C22.4554 26.171 20.6498 27.6879 18.9138 29.2795L17.5623 27.8053C19.3409 26.1746 21.1908 24.6205 23.1068 23.1481L24.3255 24.7339ZM137.902 39.6888C136.465 37.8187 134.948 36.0131 133.357 34.2771L134.831 32.9256C136.462 34.7042 138.016 36.5541 139.488 38.4701L137.902 39.6888ZM13.9162 34.2771C12.3246 36.0131 10.8077 37.8187 9.37063 39.6888L7.78479 38.4701C9.25719 36.5541 10.8113 34.7042 12.442 32.9256L13.9162 34.2771ZM145.5 51.5911C144.407 49.4968 143.226 47.4562 141.961 45.4743L143.646 44.3981C144.943 46.4289 146.153 48.5199 147.273 50.6661L145.5 51.5911ZM5.31226 45.4743C4.04703 47.4562 2.86569 49.4968 1.77325 51.5911L0 50.6661C1.1195 48.52 2.33004 46.4289 3.62649 44.3981L5.31226 45.4743ZM141.961 132.525C143.226 130.543 144.407 128.503 145.5 126.408L147.273 127.333C146.153 129.48 144.943 131.571 143.646 133.601L141.961 132.525ZM1.77325 126.408C2.86569 128.503 4.04703 130.543 5.31227 132.525L3.62649 133.601C2.33004 131.571 1.1195 129.48 3.8147e-06 127.333L1.77325 126.408ZM9.37063 138.311C10.8077 140.181 12.3246 141.986 13.9162 143.722L12.442 145.074C10.8113 143.295 9.2572 141.445 7.78479 139.529L9.37063 138.311ZM133.357 143.722C134.948 141.986 136.465 140.181 137.902 138.311L139.488 139.529C138.016 141.445 136.462 143.295 134.831 145.074L133.357 143.722ZM18.9138 148.72C20.6498 150.312 22.4554 151.829 24.3255 153.266L23.1068 154.851C21.1908 153.379 19.3409 151.825 17.5623 150.194L18.9138 148.72ZM122.947 153.266C124.818 151.829 126.623 150.312 128.359 148.72L129.711 150.194C127.932 151.825 126.082 153.379 124.166 154.851L122.947 153.266ZM30.111 157.324C32.0929 158.589 34.1335 159.771 36.2278 160.863L35.3028 162.636C33.1567 161.517 31.0656 160.306 29.0348 159.01L30.111 157.324ZM111.045 160.863C113.139 159.771 115.18 158.589 117.162 157.324L118.238 159.01C116.207 160.306 114.116 161.517 111.97 162.636L111.045 160.863ZM42.6309 163.854C44.7986 164.753 47.0137 165.56 49.2715 166.271L48.6706 168.179C46.3566 167.45 44.0864 166.623 41.8648 165.701L42.6309 163.854ZM98.0014 166.271C100.259 165.56 102.474 164.753 104.642 163.854L105.408 165.701C103.187 166.623 100.916 167.45 98.6023 168.179L98.0014 166.271ZM56.0963 168.096C58.3813 168.6 60.7027 169.008 63.0559 169.315L62.7972 171.298C60.3859 170.984 58.007 170.566 55.6652 170.049L56.0963 168.096ZM84.2171 169.315C86.5703 169.008 88.8916 168.6 91.1766 168.096L91.6078 170.049C89.2659 170.566 86.8871 170.984 84.4758 171.298L84.2171 169.315ZM70.099 169.924C71.2718 169.974 72.4511 170 73.6365 170C74.8218 170 76.0011 169.974 77.1739 169.924L77.2598 171.922C76.0584 171.974 74.8504 172 73.6365 172C72.4225 172 71.2146 171.974 70.0132 171.922L70.099 169.924Z" fill="#FFC700"/>
<path d="M93.7395 29.3733C94.625 28.2439 95.0496 27.0332 94.9954 25.7863C94.9412 24.413 94.3268 23.3378 93.8208 22.6782C94.4081 21.2145 94.634 18.9106 92.6734 17.1216C91.2368 15.8115 88.7973 15.2242 85.4181 15.3869C83.0419 15.4953 81.0542 15.938 80.9728 15.9561H80.9638C80.512 16.0374 80.0332 16.1368 79.5453 16.2452C79.5091 15.667 79.6085 14.2304 80.6747 10.9958C81.9396 7.14681 81.8673 4.20135 80.4398 2.23168C78.9399 0.162633 76.5456 0 75.8409 0C75.1632 0 74.5398 0.28009 74.0971 0.795094C73.0942 1.96063 73.2116 4.11099 73.3381 5.10486C72.1455 8.30331 68.8025 16.1458 65.9745 18.3233C65.9203 18.3594 65.8751 18.4046 65.8299 18.4498C64.9987 19.3262 64.4385 20.2749 64.059 21.1061C63.526 20.817 62.9206 20.6544 62.2701 20.6544H56.7586C54.6805 20.6544 53 22.3439 53 24.413V39.0951C53 41.1732 54.6896 42.8537 56.7586 42.8537H62.2701C63.0742 42.8537 63.8241 42.6007 64.4385 42.1671L66.5618 42.42C66.887 42.4652 72.6695 43.1971 78.6056 43.0796C79.6808 43.1609 80.6927 43.2061 81.6324 43.2061C83.2497 43.2061 84.6592 43.0796 85.8338 42.8266C88.5985 42.2393 90.4869 41.0648 91.4446 39.3391C92.1764 38.0199 92.1764 36.7098 92.059 35.8786C93.857 34.2523 94.1732 32.4543 94.11 31.1894C94.0738 30.4575 93.9112 29.8341 93.7395 29.3733ZM56.7586 40.4142C56.0268 40.4142 55.4395 39.8179 55.4395 39.0951V24.4039C55.4395 23.6721 56.0358 23.0848 56.7586 23.0848H62.2701C63.0019 23.0848 63.5892 23.6811 63.5892 24.4039V39.0861C63.5892 39.8179 62.9929 40.4052 62.2701 40.4052H56.7586V40.4142ZM91.4265 28.3162C91.047 28.7137 90.9748 29.3191 91.2639 29.7889C91.2639 29.7979 91.6343 30.4304 91.6795 31.2978C91.7427 32.4814 91.1735 33.5295 89.9809 34.4239C89.5562 34.7492 89.3846 35.3094 89.5653 35.8153C89.5653 35.8244 89.9538 37.017 89.3213 38.1464C88.716 39.2306 87.3697 40.0077 85.3278 40.4413C83.6924 40.7937 81.4698 40.857 78.7412 40.6401C78.705 40.6401 78.6598 40.6401 78.6147 40.6401C72.8051 40.7666 66.9322 40.0077 66.869 39.9986H66.8599L65.9474 39.8902C66.0016 39.6372 66.0287 39.3662 66.0287 39.0951V24.4039C66.0287 24.0154 65.9654 23.636 65.857 23.2836C66.0197 22.6782 66.4714 21.332 67.5376 20.1845C71.5943 16.968 75.5608 6.1168 75.7324 5.64697C75.8047 5.45723 75.8228 5.24942 75.7867 5.04162C75.6331 4.02968 75.6873 2.79186 75.9041 2.42142C76.383 2.43046 77.675 2.56598 78.452 3.64117C79.3736 4.91512 79.3375 7.19198 78.3436 10.2097C76.8257 14.8086 76.6992 17.23 77.9009 18.2962C78.4972 18.8293 79.2923 18.8564 79.8706 18.6486C80.4217 18.5221 80.9457 18.4136 81.4427 18.3323C81.4788 18.3233 81.524 18.3143 81.5601 18.3052C84.3339 17.6999 89.3032 17.3294 91.029 18.9015C92.4927 20.2387 91.4536 22.0096 91.3362 22.1994C91.0019 22.7053 91.1012 23.3649 91.553 23.7715C91.562 23.7805 92.5107 24.675 92.5559 25.8767C92.592 26.6808 92.2126 27.503 91.4265 28.3162Z" fill="#FFC700"/>
</svg>
