<svg width="346" height="180" viewBox="0 0 346 180" fill="none" xmlns="http://www.w3.org/2000/svg">
<path d="M79.793 179.674C63.7863 179.674 49.7396 176.244 37.653 169.384C25.7296 162.361 16.5013 152.153 9.96797 138.759C3.43464 125.366 0.167969 109.196 0.167969 90.2492C0.167969 71.3026 3.43464 55.1326 9.96797 41.7392C16.5013 28.3459 25.7296 18.2192 37.653 11.3592C49.7396 4.33588 63.7863 0.824219 79.793 0.824219C95.7996 0.824219 109.765 4.33588 121.688 11.3592C133.775 18.2192 143.085 28.3459 149.618 41.7392C156.151 55.1326 159.418 71.3026 159.418 90.2492C159.418 109.196 156.151 125.366 149.618 138.759C143.085 152.153 133.775 162.361 121.688 169.384C109.765 176.244 95.7996 179.674 79.793 179.674ZM79.793 174.774C86.163 174.774 92.043 172.079 97.433 166.689C102.986 161.299 107.56 152.316 111.153 139.739C114.746 127.163 116.543 110.666 116.543 90.2492C116.543 69.8326 114.746 53.3359 111.153 40.7592C107.56 28.1826 102.986 19.1992 97.433 13.8092C92.043 8.41921 86.163 5.72421 79.793 5.72421C73.423 5.72421 67.4613 8.41921 61.908 13.8092C56.518 19.1992 52.0263 28.1826 48.433 40.7592C44.8396 53.3359 43.043 69.8326 43.043 90.2492C43.043 110.666 44.8396 127.163 48.433 139.739C52.0263 152.316 56.518 161.299 61.908 166.689C67.4613 172.079 73.423 174.774 79.793 174.774Z" fill="#F2F3FA"/>
<path d="M204.8 46.1492V164.974L224.4 172.324V175.999H177.85V172.324L197.45 164.974V13.0742L180.3 8.17421V4.49921H206.025C214.682 4.49921 221.46 6.05088 226.36 9.15421C231.26 12.2575 235.915 16.4225 240.325 21.6492L318.725 113.524V15.5242L299.125 8.17421V4.49921H345.675V8.17421L326.075 15.5242V179.674H318.725L204.8 46.1492Z" fill="#F2F3FA"/>
</svg>
