<svg width="865" height="180" viewBox="0 0 865 180" fill="none" xmlns="http://www.w3.org/2000/svg">
<g opacity="0.1">
<path d="M0.481934 172.325L15.1819 168.65V11.8502L0.481934 8.17519V4.50019H70.3069V8.17519L55.6069 11.8502V81.6752H67.8569C80.1069 81.6752 88.2736 73.9169 92.3569 58.4002L100.932 26.5502C102.892 19.0369 106.077 13.0752 110.487 8.6652C115.06 4.2552 120.45 2.05019 126.657 2.05019C133.844 2.05019 139.724 4.17353 144.297 8.4202C148.87 12.5035 151.157 17.7302 151.157 24.1002C151.157 30.3069 149.279 35.3702 145.522 39.2902C141.765 43.0469 137.11 44.9252 131.557 44.9252C129.27 44.9252 126.984 44.7619 124.697 44.4352L121.757 43.7002V9.4002C118.98 10.0535 116.367 11.9319 113.917 15.0352C111.467 17.9752 109.589 21.8135 108.282 26.5502L99.7069 58.4002C97.2569 67.3835 93.9903 73.9169 89.9069 78.0002C88.1103 79.9602 86.0686 81.5935 83.7819 82.9002H89.9069C109.834 82.9002 122.084 89.8419 126.657 103.725L148.707 168.65L160.957 172.325V176H131.557C122.9 176 116.204 174.204 111.467 170.61C106.73 167.017 103.219 161.872 100.932 155.175L77.6569 87.8002H55.6069V168.65L70.3069 172.325V176H0.481934V172.325Z" fill="white"/>
<path d="M205.047 172.325L219.747 168.65V10.6252H191.572C191.572 20.5885 188.877 30.1435 183.487 39.2902C181.201 43.0469 178.587 46.1502 175.647 48.6002H168.297V4.50019H311.622V48.6002H304.272C301.169 46.1502 298.474 43.0469 296.187 39.2902C290.961 30.4702 288.347 20.9152 288.347 10.6252H260.172V168.65L274.872 172.325V176H205.047V172.325Z" fill="white"/>
<path d="M403.555 179.675C387.548 179.675 373.501 176.245 361.415 169.385C349.491 162.362 340.263 152.154 333.73 138.76C327.196 125.367 323.93 109.197 323.93 90.2502C323.93 71.3035 327.196 55.1335 333.73 41.7402C340.263 28.3469 349.491 18.2202 361.415 11.3602C373.501 4.33686 387.548 0.825195 403.555 0.825195C419.561 0.825195 433.526 4.33686 445.45 11.3602C457.536 18.2202 466.846 28.3469 473.38 41.7402C479.913 55.1335 483.18 71.3035 483.18 90.2502C483.18 109.197 479.913 125.367 473.38 138.76C466.846 152.154 457.536 162.362 445.45 169.385C433.526 176.245 419.561 179.675 403.555 179.675ZM403.555 174.775C409.925 174.775 415.805 172.08 421.195 166.69C426.748 161.3 431.321 152.317 434.915 139.74C438.508 127.164 440.305 110.667 440.305 90.2502C440.305 69.8335 438.508 53.3369 434.915 40.7602C431.321 28.1835 426.748 19.2002 421.195 13.8102C415.805 8.42019 409.925 5.72519 403.555 5.72519C397.185 5.72519 391.223 8.42019 385.67 13.8102C380.28 19.2002 375.788 28.1835 372.195 40.7602C368.601 53.3369 366.805 69.8335 366.805 90.2502C366.805 110.667 368.601 127.164 372.195 139.74C375.788 152.317 380.28 161.3 385.67 166.69C391.223 172.08 397.185 174.775 403.555 174.775Z" fill="white"/>
<path d="M564.154 172.325L576.404 168.65L598.454 119.65C602.701 110.177 610.214 103.725 620.994 100.295C625.404 98.8252 630.549 97.9269 636.429 97.6002V96.3752C626.139 96.2119 616.748 94.4152 608.254 90.9852C600.088 88.0452 593.309 83.3902 587.919 77.0202C582.693 70.6502 580.079 62.4019 580.079 52.2752C580.079 37.0852 586.123 25.3252 598.209 16.9952C610.459 8.66519 630.549 4.50019 658.479 4.50019H723.404V8.17519L708.704 11.8502V168.65L723.404 172.325V176H651.129V172.325L668.279 168.65V100.05H651.129L626.629 155.175C620.423 169.059 610.623 176 597.229 176H564.154V172.325ZM668.279 93.9252V10.6252H658.479C647.046 10.6252 638.063 14.2185 631.529 21.4052C624.996 28.5919 621.729 38.8819 621.729 52.2752C621.729 65.6685 624.996 75.9585 631.529 83.1452C638.063 90.3319 647.046 93.9252 658.479 93.9252H668.279Z" fill="white"/>
<path d="M790.798 100.05C800.762 96.1302 808.357 90.4135 813.583 82.9002C818.81 75.3869 821.423 64.7702 821.423 51.0502C821.423 35.3702 818.565 24.1002 812.848 17.2402C807.295 10.3802 798.72 6.95019 787.123 6.95019C782.387 6.95019 777.568 7.60353 772.668 8.91019L767.523 10.6252V49.8252L764.338 50.5602C761.725 50.8869 759.52 51.0502 757.723 51.0502C752.17 51.0502 747.678 49.4169 744.248 46.1502C740.982 42.7202 739.348 38.2285 739.348 32.6752C739.348 27.4485 741.308 22.3852 745.228 17.4852C749.312 12.5852 755.273 8.58353 763.113 5.48019C771.117 2.37686 780.753 0.825195 792.023 0.825195C815.87 0.825195 833.837 5.4802 845.923 14.7902C858.173 24.1002 864.298 36.1869 864.298 51.0502C864.298 64.9335 859.153 76.4485 848.863 85.5952C838.737 94.7419 823.465 100.785 803.048 103.725L801.823 123.325H792.023L790.798 100.05ZM795.698 178.45C790.798 178.45 786.47 176.572 782.713 172.815C779.12 168.895 777.323 164.24 777.323 158.85C777.323 153.46 779.12 148.887 782.713 145.13C786.47 141.21 790.798 139.25 795.698 139.25C800.598 139.25 804.845 141.21 808.438 145.13C812.195 148.887 814.073 153.46 814.073 158.85C814.073 164.24 812.195 168.895 808.438 172.815C804.845 176.572 800.598 178.45 795.698 178.45Z" fill="white"/>
</g>
</svg>
