<svg width="453" height="218" viewBox="0 0 453 218" fill="none" xmlns="http://www.w3.org/2000/svg">
<path d="M0.547363 172.325L15.2474 168.65V11.8502L0.547363 8.17519V4.50019H131.622V48.6002H124.272C121.169 46.1502 118.474 43.0469 116.187 39.2902C110.961 30.4702 108.347 20.9152 108.347 10.6252H55.6724V87.8002H83.8474C84.9907 81.5935 87.114 75.7952 90.2174 70.4052C91.524 67.9552 93.0757 65.5869 94.8724 63.3002H102.222V118.425H94.8724C93.0757 116.139 91.524 113.77 90.2174 111.32C87.114 105.93 84.9907 100.132 83.8474 93.9252H55.6724V168.65L70.3724 172.325V176H0.547363V172.325Z" fill="#F2F3FA"/>
<path d="M115.707 172.325L135.307 164.975L202.682 2.05019H210.032L279.857 168.65L292.107 172.325V176H262.707C254.214 176 247.272 174.122 241.882 170.365C236.492 166.445 232.49 161.382 229.877 155.175L217.382 125.775H158.827L142.657 164.975L161.032 172.325V176H115.707V172.325ZM161.277 119.65H214.932L187.982 55.2152L161.277 119.65Z" fill="#F2F3FA"/>
<path d="M397.495 217.65C388.675 217.65 380.917 215.854 374.22 212.26C367.524 208.83 362.379 204.012 358.785 197.805C355.192 191.762 353.395 184.902 353.395 177.225C334.612 173.305 319.912 163.914 309.295 149.05C298.679 134.024 293.37 114.424 293.37 90.2502C293.37 71.3035 296.637 55.1335 303.17 41.7402C309.704 28.3469 318.932 18.2202 330.855 11.3602C342.942 4.33686 356.989 0.825195 372.995 0.825195C389.002 0.825195 402.967 4.33686 414.89 11.3602C426.977 18.2202 436.287 28.3469 442.82 41.7402C449.354 55.1335 452.62 71.3035 452.62 90.2502C452.62 114.424 447.312 134.024 436.695 149.05C426.079 163.914 411.379 173.305 392.595 177.225C392.595 199.275 396.679 210.3 404.845 210.3C407.132 210.3 408.929 209.892 410.235 209.075C410.399 209.075 411.052 208.667 412.195 207.85L414.645 213.975C413.992 214.465 412.685 215.119 410.725 215.935C407.785 217.079 403.375 217.65 397.495 217.65ZM372.995 174.775C379.365 174.775 385.245 172.08 390.635 166.69C396.189 161.3 400.762 152.317 404.355 139.74C407.949 127.164 409.745 110.667 409.745 90.2502C409.745 69.8335 407.949 53.3369 404.355 40.7602C400.762 28.1835 396.189 19.2002 390.635 13.8102C385.245 8.42019 379.365 5.72519 372.995 5.72519C366.625 5.72519 360.664 8.42019 355.11 13.8102C349.72 19.2002 345.229 28.1835 341.635 40.7602C338.042 53.3369 336.245 69.8335 336.245 90.2502C336.245 110.667 338.042 127.164 341.635 139.74C345.229 152.317 349.72 161.3 355.11 166.69C360.664 172.08 366.625 174.775 372.995 174.775Z" fill="#F2F3FA"/>
</svg>
