<svg width="847" height="376" viewBox="0 0 847 376" fill="none" xmlns="http://www.w3.org/2000/svg">
<g opacity="0.1">
<path d="M137.921 172.325L152.621 168.65V155.175C134.818 154.359 119.546 150.929 106.806 144.885C94.0659 138.679 84.4292 130.675 77.8959 120.875C71.3626 110.912 68.0959 99.8869 68.0959 87.8002C68.0959 75.7135 71.3626 64.7702 77.8959 54.9702C84.4292 45.0069 94.0659 37.0035 106.806 30.9602C119.546 24.7535 134.818 21.2419 152.621 20.4252V8.17519L137.921 4.50019V0.825195H207.746V4.50019L193.046 8.17519V20.4252C210.849 21.2419 226.121 24.7535 238.861 30.9602C251.601 37.0035 261.238 45.0069 267.771 54.9702C274.304 64.7702 277.571 75.7135 277.571 87.8002C277.571 99.8869 274.304 110.912 267.771 120.875C261.238 130.675 251.601 138.679 238.861 144.885C226.121 150.929 210.849 154.359 193.046 155.175V168.65L207.746 172.325V176H137.921V172.325ZM152.621 25.3252C140.698 26.7952 130.734 32.8385 122.731 43.4552C114.891 53.9085 110.971 68.6902 110.971 87.8002C110.971 106.91 114.891 121.774 122.731 132.39C130.734 142.844 140.698 148.805 152.621 150.275V25.3252ZM193.046 150.275C204.969 148.805 214.851 142.844 222.691 132.39C230.694 121.774 234.696 106.91 234.696 87.8002C234.696 68.6902 230.694 53.9085 222.691 43.4552C214.851 32.8385 204.969 26.7952 193.046 25.3252V150.275Z" fill="white"/>
<path d="M377.791 179.675C361.785 179.675 347.738 176.245 335.651 169.385C323.728 162.362 314.5 152.154 307.966 138.76C301.433 125.367 298.166 109.197 298.166 90.2502C298.166 71.3035 301.433 55.1335 307.966 41.7402C314.5 28.3469 323.728 18.2202 335.651 11.3602C347.738 4.33686 361.785 0.825195 377.791 0.825195C393.798 0.825195 407.763 4.33686 419.686 11.3602C431.773 18.2202 441.083 28.3469 447.616 41.7402C454.15 55.1335 457.416 71.3035 457.416 90.2502C457.416 109.197 454.15 125.367 447.616 138.76C441.083 152.154 431.773 162.362 419.686 169.385C407.763 176.245 393.798 179.675 377.791 179.675ZM377.791 174.775C384.161 174.775 390.041 172.08 395.431 166.69C400.985 161.3 405.558 152.317 409.151 139.74C412.745 127.164 414.541 110.667 414.541 90.2502C414.541 69.8335 412.745 53.3369 409.151 40.7602C405.558 28.1835 400.985 19.2002 395.431 13.8102C390.041 8.42019 384.161 5.72519 377.791 5.72519C371.421 5.72519 365.46 8.42019 359.906 13.8102C354.516 19.2002 350.025 28.1835 346.431 40.7602C342.838 53.3369 341.041 69.8335 341.041 90.2502C341.041 110.667 342.838 127.164 346.431 139.74C350.025 152.317 354.516 161.3 359.906 166.69C365.46 172.08 371.421 174.775 377.791 174.775Z" fill="white"/>
<path d="M506.588 172.325L521.289 168.65V10.6252H493.113C493.113 20.5885 490.418 30.1435 485.028 39.2902C482.742 43.0469 480.128 46.1502 477.188 48.6002H469.838V4.50019H613.164V48.6002H605.814C602.71 46.1502 600.015 43.0469 597.729 39.2902C592.502 30.4702 589.888 20.9152 589.888 10.6252H561.714V168.65L576.414 172.325V176H506.588V172.325Z" fill="white"/>
<path d="M705.096 179.675C689.089 179.675 675.043 176.245 662.956 169.385C651.033 162.362 641.804 152.154 635.271 138.76C628.738 125.367 625.471 109.197 625.471 90.2502C625.471 71.3035 628.738 55.1335 635.271 41.7402C641.804 28.3469 651.033 18.2202 662.956 11.3602C675.043 4.33686 689.089 0.825195 705.096 0.825195C721.103 0.825195 735.068 4.33686 746.991 11.3602C759.078 18.2202 768.388 28.3469 774.921 41.7402C781.454 55.1335 784.721 71.3035 784.721 90.2502C784.721 109.197 781.454 125.367 774.921 138.76C768.388 152.154 759.078 162.362 746.991 169.385C735.068 176.245 721.103 179.675 705.096 179.675ZM705.096 174.775C711.466 174.775 717.346 172.08 722.736 166.69C728.289 161.3 732.863 152.317 736.456 139.74C740.049 127.164 741.846 110.667 741.846 90.2502C741.846 69.8335 740.049 53.3369 736.456 40.7602C732.863 28.1835 728.289 19.2002 722.736 13.8102C717.346 8.42019 711.466 5.72519 705.096 5.72519C698.726 5.72519 692.764 8.42019 687.211 13.8102C681.821 19.2002 677.329 28.1835 673.736 40.7602C670.143 53.3369 668.346 69.8335 668.346 90.2502C668.346 110.667 670.143 127.164 673.736 139.74C677.329 152.317 681.821 161.3 687.211 166.69C692.764 172.08 698.726 174.775 705.096 174.775Z" fill="white"/>
<path d="M0.15625 372.325L19.7563 364.975L87.1313 202.05H94.4813L164.306 368.65L176.556 372.325V376H147.156C138.663 376 131.721 374.122 126.331 370.365C120.941 366.445 116.94 361.382 114.326 355.175L101.831 325.775H43.2763L27.1063 364.975L45.4813 372.325V376H0.15625V372.325ZM45.7263 319.65H99.3813L72.4313 255.215L45.7263 319.65Z" fill="white"/>
<path d="M183.83 372.325L198.53 368.65V211.85L183.83 208.175V204.5H252.43C279.543 204.5 298.98 208.992 310.74 217.975C322.5 226.795 328.38 239.862 328.38 257.175C328.38 274.489 322.5 287.637 310.74 296.62C298.98 305.44 279.543 309.85 252.43 309.85H238.955V368.65L253.655 372.325V376H183.83V372.325ZM252.43 303.725C262.72 303.725 270.968 299.805 277.175 291.965C283.545 284.125 286.73 272.529 286.73 257.175C286.73 241.985 283.545 230.47 277.175 222.63C270.968 214.627 262.72 210.625 252.43 210.625H238.955V303.725H252.43Z" fill="white"/>
<path d="M335.797 372.325L355.397 364.975L397.047 303.48L343.147 211.85L330.897 208.175V204.5H366.422C374.588 204.5 381.04 206.215 385.777 209.645C390.677 213.075 395.25 218.302 399.497 225.325L423.017 265.505L457.072 215.525L438.697 208.175V204.5H485.247V208.175L465.647 215.525L427.182 272.12L484.022 368.65L496.272 372.325V376H460.747C452.743 376 446.292 374.285 441.392 370.855C436.492 367.425 431.918 362.199 427.672 355.175L401.212 310.34L363.972 364.975L382.347 372.325V376H335.797V372.325Z" fill="white"/>
<path d="M507.306 376V372.325L522.006 368.65V211.85L507.306 208.175V204.5H577.131V208.175L562.431 211.85V335.575L620.006 230.225V211.85L605.306 208.175V204.5H675.131V208.175L660.431 211.85V368.65L675.131 372.325V376H605.306V372.325L620.006 368.65V244.925L562.431 350.275V368.65L577.131 372.325V376H507.306Z" fill="white"/>
<path d="M699.67 372.325L714.37 368.65V211.85L699.67 208.175V204.5H765.82C790.646 204.5 808.858 208.502 820.455 216.505C832.215 224.345 838.095 234.635 838.095 247.375C838.095 256.195 835.563 263.3 830.5 268.69C825.436 274.08 818.985 278.082 811.145 280.695C802.815 283.635 793.831 285.187 784.195 285.35V286.575C796.118 287.065 806.49 288.862 815.31 291.965C824.293 294.905 831.725 299.479 837.605 305.685C843.648 311.892 846.67 319.814 846.67 329.45C846.67 343.987 840.708 355.42 828.785 363.75C816.861 371.917 797.506 376 770.72 376H699.67V372.325ZM765.82 282.9C771.21 282.9 776.191 281.43 780.765 278.49C785.501 275.387 789.258 271.14 792.035 265.75C794.975 260.197 796.445 254.072 796.445 247.375C796.445 240.189 794.975 233.819 792.035 228.265C789.258 222.712 785.501 218.384 780.765 215.28C776.191 212.177 771.21 210.625 765.82 210.625H754.795V282.9H765.82ZM770.72 369.875C780.846 369.875 789.095 366.282 795.465 359.095C801.835 351.909 805.02 342.027 805.02 329.45C805.02 316.874 801.835 306.992 795.465 299.805C789.095 292.619 780.846 289.025 770.72 289.025H754.795V369.875H770.72Z" fill="white"/>
</g>
</svg>
