<svg width="1016" height="176" viewBox="0 0 1016 176" fill="none" xmlns="http://www.w3.org/2000/svg">
<path d="M0.299805 172.325L19.8998 164.975L87.2748 2.05019H94.6248L164.45 168.65L176.7 172.325V176H147.3C138.806 176 131.865 174.122 126.475 170.365C121.085 166.445 117.083 161.382 114.47 155.175L101.975 125.775H43.4198L27.2498 164.975L45.6248 172.325V176H0.299805V172.325ZM45.8698 119.65H99.5248L72.5748 55.2152L45.8698 119.65Z" fill="#F2F3FA"/>
<path d="M241.663 172.325L256.363 168.65V155.175C238.56 154.359 223.288 150.929 210.548 144.885C197.808 138.679 188.171 130.675 181.638 120.875C175.105 110.912 171.838 99.8869 171.838 87.8002C171.838 75.7135 175.105 64.7702 181.638 54.9702C188.171 45.0069 197.808 37.0035 210.548 30.9602C223.288 24.7535 238.56 21.2419 256.363 20.4252V8.17519L241.663 4.50019V0.825195H311.488V4.50019L296.788 8.17519V20.4252C314.591 21.2419 329.863 24.7535 342.603 30.9602C355.343 37.0035 364.98 45.0069 371.513 54.9702C378.046 64.7702 381.313 75.7135 381.313 87.8002C381.313 99.8869 378.046 110.912 371.513 120.875C364.98 130.675 355.343 138.679 342.603 144.885C329.863 150.929 314.591 154.359 296.788 155.175V168.65L311.488 172.325V176H241.663V172.325ZM256.363 25.3252C244.44 26.7952 234.476 32.8385 226.473 43.4552C218.633 53.9085 214.713 68.6902 214.713 87.8002C214.713 106.91 218.633 121.774 226.473 132.39C234.476 142.844 244.44 148.805 256.363 150.275V25.3252ZM296.788 150.275C308.711 148.805 318.593 142.844 326.433 132.39C334.436 121.774 338.438 106.91 338.438 87.8002C338.438 68.6902 334.436 53.9085 326.433 43.4552C318.593 32.8385 308.711 26.7952 296.788 25.3252V150.275Z" fill="#F2F3FA"/>
<path d="M398.348 176V172.325L413.048 168.65V11.8502L398.348 8.17519V4.50019H468.173V8.17519L453.473 11.8502V135.575L511.048 30.2252V11.8502L496.348 8.17519V4.50019H566.173V8.17519L551.473 11.8502V168.65L566.173 172.325V176H496.348V172.325L511.048 168.65V44.9252L453.473 150.275V168.65L468.173 172.325V176H398.348Z" fill="#F2F3FA"/>
<path d="M590.712 176V172.325L605.412 168.65V11.8502L590.712 8.17519V4.50019H660.537V8.17519L645.837 11.8502V169.875H691.162V11.8502L676.462 8.17519V4.50019H746.287V8.17519L731.587 11.8502V169.875H776.912V11.8502L762.212 8.17519V4.50019H832.037V8.17519L817.337 11.8502V168.65L832.037 172.325V176H590.712Z" fill="#F2F3FA"/>
<path d="M839.377 172.325L858.977 164.975L926.352 2.05019H933.702L1003.53 168.65L1015.78 172.325V176H986.377C977.884 176 970.942 174.122 965.552 170.365C960.162 166.445 956.16 161.382 953.547 155.175L941.052 125.775H882.497L866.327 164.975L884.702 172.325V176H839.377V172.325ZM884.947 119.65H938.602L911.652 55.2152L884.947 119.65Z" fill="#F2F3FA"/>
</svg>
