<svg width="992" height="180" viewBox="0 0 992 180" fill="none" xmlns="http://www.w3.org/2000/svg">
<path d="M65.4489 0.824219C43.3989 0.824219 27.4739 16.7492 27.4739 16.7492C22.5739 8.17421 13.9989 3.27422 13.9989 3.27422H7.87393V49.8242H17.6739C17.6739 49.8242 28.6989 6.94921 60.5489 6.94921C76.4739 6.94921 88.7239 19.1992 88.7239 44.9242C88.7239 70.6492 76.4739 82.8992 59.3239 82.8992H42.1739V89.0242H61.7739C81.3739 89.0242 96.0739 103.724 96.0739 131.899C96.0739 158.849 81.3739 173.549 56.8739 173.549C28.6989 173.549 6.64893 151.499 6.64893 126.999H0.523926C0.523926 155.174 25.0239 179.674 61.7739 179.674C115.674 179.674 137.724 157.624 137.724 131.899C137.724 85.3492 72.7989 85.3492 72.7989 85.3492C72.7989 85.3492 130.374 85.3492 130.374 44.9242C130.374 22.8742 108.324 0.824219 65.4489 0.824219Z" fill="#F2F3FA"/>
<path d="M162.396 164.974L178.566 125.774H237.121L249.616 155.174C254.271 166.199 264.071 175.999 282.446 175.999H311.846V172.324L299.596 168.649L229.771 2.04922H222.421L155.046 164.974L135.446 172.324V175.999H180.771V172.324L162.396 164.974ZM207.721 55.2142L234.671 119.649H181.016L207.721 55.2142Z" fill="#F2F3FA"/>
<path d="M395.07 100.049H412.22V168.649L395.07 172.324V175.999H467.345V172.324L452.645 168.649V11.8492L467.345 8.17421V4.49921H402.42C343.62 4.49921 324.02 24.0992 324.02 52.2742C324.02 97.5992 380.37 97.5992 380.37 97.5992C380.37 97.5992 352.195 97.5992 342.395 119.649L320.345 168.649L308.095 172.324V175.999H341.17C355.87 175.999 365.18 167.424 370.57 155.174L395.07 100.049ZM402.42 93.9242C380.37 93.9242 365.67 79.2242 365.67 52.2742C365.67 25.3242 380.37 10.6242 402.42 10.6242H412.22V93.9242H402.42Z" fill="#F2F3FA"/>
<path d="M506.564 11.8492V168.649L491.864 172.324V175.999H562.914C619.264 175.999 638.864 156.399 638.864 129.449C638.864 85.3492 572.714 85.3492 572.714 85.3492C572.714 85.3492 630.289 85.3492 630.289 47.3742C630.289 24.0992 610.689 4.49921 558.014 4.49921H491.864V8.17421L506.564 11.8492ZM562.914 89.0242C582.514 89.0242 597.214 103.724 597.214 129.449C597.214 155.174 582.514 169.874 562.914 169.874H546.989V89.0242H562.914ZM546.989 10.6242H558.014C573.939 10.6242 588.639 25.3242 588.639 47.3742C588.639 68.1992 573.939 82.8992 558.014 82.8992H546.989V10.6242Z" fill="#F2F3FA"/>
<path d="M741.687 82.8992C741.687 82.8992 752.467 77.9992 757.612 58.3992L766.187 26.5492C768.882 16.7492 774.517 10.6242 779.662 9.39922V43.6992C779.662 43.6992 784.562 44.9242 789.462 44.9242C800.487 44.9242 809.062 36.3492 809.062 24.0992C809.062 11.8492 799.262 2.04922 784.562 2.04922C772.312 2.04922 762.757 11.8492 758.837 26.5492L750.262 58.3992C746.342 73.0992 738.012 81.6742 725.762 81.6742H713.512V11.8492L728.212 8.17421V4.49921H658.387V8.17421L673.087 11.8492V168.649L658.387 172.324V175.999H728.212V172.324L713.512 168.649V87.7992H735.562L758.837 155.174C763.002 167.424 771.087 175.999 789.462 175.999H818.862V172.324L806.612 168.649L784.562 103.724C780.887 92.6992 771.087 82.8992 747.812 82.8992H741.687Z" fill="#F2F3FA"/>
<path d="M842.128 164.974L858.298 125.774H916.853L929.348 155.174C934.003 166.199 943.803 175.999 962.178 175.999H991.578V172.324L979.328 168.649L909.503 2.04922H902.153L834.778 164.974L815.178 172.324V175.999H860.503V172.324L842.128 164.974ZM887.453 55.2142L914.403 119.649H860.748L887.453 55.2142Z" fill="#F2F3FA"/>
</svg>
