<svg width="1122" height="180" viewBox="0 0 1122 180" fill="none" xmlns="http://www.w3.org/2000/svg">
<path d="M116.834 90.2502C116.834 155.175 97.2345 174.775 80.0845 174.775C62.9345 174.775 43.3345 155.175 43.3345 90.2502C43.3345 25.3252 62.9345 5.72519 80.0845 5.72519C97.2345 5.72519 116.834 25.3252 116.834 90.2502ZM159.709 90.2502C159.709 32.6752 127.859 0.825195 80.0845 0.825195C32.3095 0.825195 0.459473 32.6752 0.459473 90.2502C0.459473 147.825 32.3095 179.675 80.0845 179.675C127.859 179.675 159.709 147.825 159.709 90.2502Z" fill="#F2F3FA"/>
<path d="M278.707 176V172.325L264.007 168.65V10.6252H292.182C292.182 36.3502 308.107 48.6002 308.107 48.6002H315.457V4.50019H172.132V48.6002H179.482C179.482 48.6002 195.407 36.3502 195.407 10.6252H223.582V168.65L208.882 172.325V176H278.707Z" fill="#F2F3FA"/>
<path d="M390.182 0.825195C368.132 0.825195 352.207 16.7502 352.207 16.7502C347.307 8.17519 338.732 3.27519 338.732 3.27519H332.607V49.8252H342.407C342.407 49.8252 353.432 6.95019 385.282 6.95019C401.207 6.95019 413.457 19.2002 413.457 44.9252C413.457 70.6502 401.207 82.9002 384.057 82.9002H366.907V89.0252H386.507C406.107 89.0252 420.807 103.725 420.807 131.9C420.807 158.85 406.107 173.55 381.607 173.55C353.432 173.55 331.382 151.5 331.382 127H325.257C325.257 155.175 349.757 179.675 386.507 179.675C440.407 179.675 462.457 157.625 462.457 131.9C462.457 85.3502 397.532 85.3502 397.532 85.3502C397.532 85.3502 455.107 85.3502 455.107 44.9252C455.107 22.8752 433.057 0.825195 390.182 0.825195Z" fill="#F2F3FA"/>
<path d="M651.164 11.8502V168.65L636.464 172.325V176H706.289V172.325L691.589 168.65V11.8502L706.289 8.17519V4.50019H636.464V8.17519L651.164 11.8502ZM537.239 73.1002V11.8502L551.939 8.17519V4.50019H482.114V8.17519L496.814 11.8502V168.65L482.114 172.325V176H553.164C609.514 176 629.114 156.4 629.114 124.55C629.114 92.7002 609.514 73.1002 553.164 73.1002H537.239ZM553.164 79.2252C572.764 79.2252 587.464 93.9252 587.464 124.55C587.464 155.175 572.764 169.875 553.164 169.875H537.239V79.2252H553.164Z" fill="#F2F3FA"/>
<path d="M745.403 11.8502V168.65L730.703 172.325V176H801.753C858.103 176 877.703 156.4 877.703 129.45C877.703 85.3502 811.553 85.3502 811.553 85.3502C811.553 85.3502 869.128 85.3502 869.128 47.3752C869.128 24.1002 849.528 4.50019 796.853 4.50019H730.703V8.17519L745.403 11.8502ZM801.753 89.0252C821.353 89.0252 836.053 103.725 836.053 129.45C836.053 155.175 821.353 169.875 801.753 169.875H785.828V89.0252H801.753ZM785.828 10.6252H796.853C812.778 10.6252 827.478 25.3252 827.478 47.3752C827.478 68.2002 812.778 82.9002 796.853 82.9002H785.828V10.6252Z" fill="#F2F3FA"/>
<path d="M1066.28 11.8502V168.65L1051.58 172.325V176H1121.4V172.325L1106.7 168.65V11.8502L1121.4 8.17519V4.50019H1051.58V8.17519L1066.28 11.8502ZM952.351 73.1002V11.8502L967.051 8.17519V4.50019H897.226V8.17519L911.926 11.8502V168.65L897.226 172.325V176H968.276C1024.63 176 1044.23 156.4 1044.23 124.55C1044.23 92.7002 1024.63 73.1002 968.276 73.1002H952.351ZM968.276 79.2252C987.876 79.2252 1002.58 93.9252 1002.58 124.55C1002.58 155.175 987.876 169.875 968.276 169.875H952.351V79.2252H968.276Z" fill="#F2F3FA"/>
</svg>
