<svg width="947" height="180" viewBox="0 0 947 180" fill="none" xmlns="http://www.w3.org/2000/svg">
<g opacity="0.1">
<path d="M64.2903 179.674C52.6937 179.674 41.832 177.061 31.7053 171.834C27.132 169.548 23.2937 166.853 20.1903 163.749C17.9037 167.506 15.0453 170.854 11.6153 173.794C8.67533 175.918 7.042 177.061 6.71533 177.224H0.590332V130.674H10.3903C12.8403 138.678 16.2703 145.864 20.6803 152.234C30.6437 166.444 43.547 173.549 59.3903 173.549C68.7003 173.549 76.132 170.773 81.6853 165.219C87.2387 159.666 90.0153 152.234 90.0153 142.924C90.0153 137.534 88.382 132.716 85.1153 128.469C82.012 124.223 78.092 120.466 73.3553 117.199C68.6187 113.933 62.0037 109.849 53.5103 104.949C42.7303 98.9059 33.992 93.4342 27.2953 88.5342C20.5987 83.6342 14.882 77.5092 10.1453 70.1592C5.40867 62.6459 3.04033 53.8259 3.04033 43.6992C3.04033 35.6959 5.24533 28.5092 9.65533 22.1392C14.2287 15.6059 21.007 10.4609 29.9903 6.70422C38.9737 2.78422 49.9987 0.824219 63.0653 0.824219C72.5387 0.824219 82.012 3.51922 91.4853 8.90922C95.0787 10.8692 98.672 13.4826 102.265 16.7492C105.042 12.5025 107.9 9.15421 110.84 6.70422C113.78 4.58088 115.414 3.43755 115.74 3.27422H121.865V49.8242H112.065C109.942 41.9842 106.757 34.8792 102.51 28.5092C98.5903 22.3025 93.6903 17.1576 87.8103 13.0742C82.0937 8.99088 75.4787 6.94921 67.9653 6.94921C61.5953 6.94921 56.1237 9.48088 51.5503 14.5442C46.977 19.6076 44.6903 26.0592 44.6903 33.8992C44.6903 39.9425 46.4053 45.4142 49.8353 50.3142C53.4287 55.0509 57.757 59.2159 62.8203 62.8092C68.047 66.4026 75.0703 70.7309 83.8903 75.7942C94.1803 81.6742 102.51 86.9009 108.88 91.4742C115.25 96.0476 120.64 101.764 125.05 108.624C129.46 115.321 131.665 123.079 131.665 131.899C131.665 140.719 129.134 148.804 124.07 156.154C119.007 163.341 111.412 169.058 101.285 173.304C91.1587 177.551 78.827 179.674 64.2903 179.674Z" fill="white"/>
<path d="M149.973 172.324L164.673 168.649V11.8492L149.973 8.17421V4.49922H281.048V48.5992H273.698C270.595 46.1492 267.9 43.0459 265.613 39.2892C260.387 30.4692 257.773 20.9142 257.773 10.6242H205.098V87.7992H233.273C234.417 81.5926 236.54 75.7942 239.643 70.4042C240.95 67.9542 242.502 65.5859 244.298 63.2992H251.648V118.424H244.298C242.502 116.138 240.95 113.769 239.643 111.319C236.54 105.929 234.417 100.131 233.273 93.9242H205.098V169.874H262.673C262.673 159.584 265.287 150.029 270.513 141.209C272.8 137.453 275.495 134.349 278.598 131.899H285.948V175.999H149.973V172.324Z" fill="white"/>
<path d="M387.566 179.674C361.433 179.674 341.016 171.916 326.316 156.399C311.616 140.883 304.266 118.833 304.266 90.2492C304.266 71.4659 307.451 55.3776 313.821 41.9842C320.354 28.4275 329.419 18.2192 341.016 11.3592C352.776 4.33588 366.333 0.824219 381.686 0.824219C390.996 0.824219 400.388 3.51922 409.861 8.90922C413.454 10.8692 417.048 13.4826 420.641 16.7492C423.418 12.5025 426.276 9.15421 429.216 6.70422C432.156 4.58088 433.789 3.43755 434.116 3.27422H440.241V49.8242H430.441C428.318 41.9842 425.133 34.8792 420.886 28.5092C416.966 22.3025 412.066 17.1576 406.186 13.0742C400.469 8.99088 393.854 6.94921 386.341 6.94921C375.071 6.94921 365.679 13.4825 358.166 26.5492C350.816 39.6159 347.141 60.8492 347.141 90.2492C347.141 120.139 351.143 141.536 359.146 154.439C367.313 167.179 378.419 173.549 392.466 173.549C400.143 173.549 407.411 171.426 414.271 167.179C421.294 162.769 426.929 156.971 431.176 149.784C435.586 142.598 437.791 135.003 437.791 126.999H443.916C443.916 136.309 441.384 145.048 436.321 153.214C431.421 161.218 424.643 167.669 415.986 172.569C407.493 177.306 398.019 179.674 387.566 179.674Z" fill="white"/>
<path d="M549.362 179.674C525.188 179.674 506.895 174.039 494.482 162.769C482.068 151.336 475.862 135.329 475.862 114.749V11.8492L461.162 8.17421V4.49922H530.987V8.17421L516.287 11.8492V114.749C516.287 135.819 519.553 150.928 526.087 160.074C532.62 169.058 542.012 173.549 554.262 173.549C561.775 173.549 568.88 171.181 575.577 166.444C582.437 161.544 587.908 154.684 591.992 145.864C596.238 136.881 598.362 126.509 598.362 114.749V15.5242L578.762 8.17421V4.49922H625.312V8.17421L605.712 15.5242V114.749C605.712 127.979 603.262 139.494 598.362 149.294C593.462 159.094 586.765 166.608 578.272 171.834C569.778 177.061 560.142 179.674 549.362 179.674Z" fill="white"/>
<path d="M638.777 172.324L653.477 168.649V11.8492L638.777 8.17421V4.49922H703.702C731.469 4.49922 751.477 8.74589 763.727 17.2392C775.977 25.5692 782.102 37.2476 782.102 52.2742C782.102 62.4009 779.407 70.6492 774.017 77.0192C768.627 83.2259 761.685 87.8809 753.192 90.9842C744.209 94.4142 734.654 96.2109 724.527 96.3742V97.5992C730.57 97.9259 735.879 98.8242 740.452 100.294C751.885 103.888 759.644 110.339 763.727 119.649L785.777 168.649L798.027 172.324V175.999H763.727C750.334 175.999 740.534 169.058 734.327 155.174L709.827 100.049H693.902V168.649L711.052 172.324V175.999H638.777V172.324ZM703.702 93.9242C715.135 93.9242 724.119 90.3309 730.652 83.1442C737.185 75.9576 740.452 65.6676 740.452 52.2742C740.452 38.8809 737.185 28.5909 730.652 21.4042C724.119 14.2176 715.135 10.6242 703.702 10.6242H693.902V93.9242H703.702Z" fill="white"/>
<path d="M810.325 172.324L825.025 168.649V11.8492L810.325 8.17421V4.49922H941.4V48.5992H934.05C930.947 46.1492 928.252 43.0459 925.965 39.2892C920.738 30.4692 918.125 20.9142 918.125 10.6242H865.45V87.7992H893.625C894.768 81.5926 896.892 75.7942 899.995 70.4042C901.302 67.9542 902.853 65.5859 904.65 63.2992H912V118.424H904.65C902.853 116.138 901.302 113.769 899.995 111.319C896.892 105.929 894.768 100.131 893.625 93.9242H865.45V169.874H923.025C923.025 159.584 925.638 150.029 930.865 141.209C933.152 137.453 935.847 134.349 938.95 131.899H946.3V175.999H810.325V172.324Z" fill="white"/>
</g>
</svg>
