<svg width="148" height="177" viewBox="0 0 148 177" fill="none" xmlns="http://www.w3.org/2000/svg">
<path fill-rule="evenodd" clip-rule="evenodd" d="M117.162 25.6755C115.18 24.4103 113.139 23.229 111.045 22.1365L111.97 20.3633C114.116 21.4828 116.207 22.6933 118.238 23.9898L117.162 25.6755ZM36.2278 22.1365C34.1335 23.229 32.0929 24.4103 30.111 25.6755L29.0348 23.9898C31.0656 22.6933 33.1567 21.4828 35.3028 20.3633L36.2278 22.1365ZM128.359 34.2795C126.623 32.6879 124.817 31.171 122.947 29.7339L124.166 28.1481C126.082 29.6205 127.932 31.1746 129.711 32.8053L128.359 34.2795ZM24.3255 29.7339C22.4554 31.171 20.6498 32.6879 18.9138 34.2795L17.5623 32.8053C19.3409 31.1746 21.1908 29.6205 23.1068 28.1481L24.3255 29.7339ZM137.902 44.6888C136.465 42.8187 134.948 41.0131 133.357 39.2771L134.831 37.9256C136.462 39.7042 138.016 41.5541 139.488 43.4701L137.902 44.6888ZM13.9162 39.2771C12.3246 41.0131 10.8077 42.8187 9.37063 44.6888L7.78479 43.4701C9.25719 41.5541 10.8113 39.7042 12.442 37.9256L13.9162 39.2771ZM145.5 56.5911C144.407 54.4968 143.226 52.4562 141.961 50.4743L143.646 49.3981C144.943 51.4289 146.153 53.5199 147.273 55.6661L145.5 56.5911ZM5.31226 50.4743C4.04703 52.4562 2.86569 54.4968 1.77325 56.5911L0 55.6661C1.1195 53.52 2.33004 51.4289 3.62649 49.3981L5.31226 50.4743ZM141.961 137.525C143.226 135.543 144.407 133.503 145.5 131.408L147.273 132.333C146.153 134.48 144.943 136.571 143.646 138.601L141.961 137.525ZM1.77325 131.408C2.86569 133.503 4.04703 135.543 5.31227 137.525L3.62649 138.601C2.33004 136.571 1.1195 134.48 3.8147e-06 132.333L1.77325 131.408ZM9.37063 143.311C10.8077 145.181 12.3246 146.986 13.9162 148.722L12.442 150.074C10.8113 148.295 9.2572 146.445 7.78479 144.529L9.37063 143.311ZM133.357 148.722C134.948 146.986 136.465 145.181 137.902 143.311L139.488 144.529C138.016 146.445 136.462 148.295 134.831 150.074L133.357 148.722ZM18.9138 153.72C20.6498 155.312 22.4554 156.829 24.3255 158.266L23.1068 159.851C21.1908 158.379 19.3409 156.825 17.5623 155.194L18.9138 153.72ZM122.947 158.266C124.818 156.829 126.623 155.312 128.359 153.72L129.711 155.194C127.932 156.825 126.082 158.379 124.166 159.851L122.947 158.266ZM30.111 162.324C32.0929 163.589 34.1335 164.771 36.2278 165.863L35.3028 167.636C33.1567 166.517 31.0656 165.306 29.0348 164.01L30.111 162.324ZM111.045 165.863C113.139 164.771 115.18 163.589 117.162 162.324L118.238 164.01C116.207 165.306 114.116 166.517 111.97 167.636L111.045 165.863ZM42.6309 168.854C44.7986 169.753 47.0137 170.56 49.2715 171.271L48.6706 173.179C46.3566 172.45 44.0864 171.623 41.8648 170.701L42.6309 168.854ZM98.0014 171.271C100.259 170.56 102.474 169.753 104.642 168.854L105.408 170.701C103.187 171.623 100.916 172.45 98.6023 173.179L98.0014 171.271ZM56.0963 173.096C58.3813 173.6 60.7027 174.008 63.0559 174.315L62.7972 176.298C60.3859 175.984 58.007 175.566 55.6652 175.049L56.0963 173.096ZM84.2171 174.315C86.5703 174.008 88.8916 173.6 91.1766 173.096L91.6078 175.049C89.2659 175.566 86.8871 175.984 84.4758 176.298L84.2171 174.315ZM70.099 174.924C71.2718 174.974 72.4511 175 73.6365 175C74.8218 175 76.0011 174.974 77.1739 174.924L77.2598 176.922C76.0584 176.974 74.8504 177 73.6365 177C72.4225 177 71.2146 176.974 70.0132 176.922L70.099 174.924Z" fill="#FFC700"/>
<path d="M72.5479 17.8409C75.0542 17.8409 77.086 15.8091 77.086 13.3028C77.086 10.7964 75.0542 8.76465 72.5479 8.76465C70.0415 8.76465 68.0098 10.7964 68.0098 13.3028C68.0098 15.8091 70.0415 17.8409 72.5479 17.8409Z" fill="#FFC700"/>
<path d="M90.0109 41.5862C83.2744 33.1485 83.7636 33.7232 83.4554 33.4713L80.344 20.8193L89.273 8.69744C89.9902 7.72372 89.7823 6.3529 88.8086 5.63575C87.8349 4.91861 86.4641 5.12647 85.747 6.10009L76.7215 18.3531C76.6769 18.3619 76.6322 18.3714 76.5876 18.3825C70.8112 19.8031 71.1697 19.704 70.9004 19.8083L59.8368 8.54518C58.9894 7.68255 57.603 7.67005 56.7402 8.51759C55.8775 9.36502 55.8651 10.7515 56.7126 11.6142L69.2837 24.4116L72.7608 38.5503L71.7471 42.1389L62.9005 40.573C61.4716 40.3207 60.1081 41.2734 59.8552 42.7025C59.6024 44.1314 60.5557 45.4949 61.9847 45.7478L73.1717 47.7279C74.5015 47.9631 75.7917 47.1525 76.1583 45.8547C78.6689 36.9669 78.5101 37.5899 78.547 37.2552L79.6286 36.9891C79.7384 37.1493 79.2921 36.5834 84.5448 43.1623L77.9416 50.8314C76.9948 51.9311 77.1187 53.5902 78.2184 54.537C79.3182 55.4842 80.9774 55.3598 81.924 54.2603L89.9489 44.94C90.7731 43.9826 90.7993 42.5737 90.0109 41.5862Z" fill="#FFC700"/>
<path d="M97.2291 9.43457C96.6174 9.43457 96.0923 9.80193 95.86 10.3275C95.6276 9.80182 95.1025 9.43457 94.4909 9.43457C93.664 9.43457 92.9937 10.1049 92.9937 10.9318C92.9937 12.5547 95.0702 14.1887 95.6883 14.6392C95.7907 14.7139 95.9293 14.7138 96.0316 14.6391C96.65 14.1884 98.7262 12.5545 98.7262 10.9318C98.7263 10.1049 98.0559 9.43457 97.2291 9.43457Z" fill="#FFC700"/>
<path d="M58.2916 20.335C57.6799 20.335 57.1548 20.7023 56.9225 21.2279C56.6901 20.7022 56.165 20.335 55.5534 20.335C54.7265 20.335 54.0562 21.0052 54.0562 21.8322C54.0562 23.4551 56.1327 25.0891 56.7508 25.5396C56.8532 25.6143 56.9918 25.6141 57.0941 25.5395C57.7126 25.0888 59.7887 23.4548 59.7887 21.8322C59.7887 21.0051 59.1184 20.335 58.2916 20.335Z" fill="#FFC700"/>
<path d="M51.0499 11.1006C50.5569 11.1006 50.1339 11.3965 49.9466 11.8201C49.7594 11.3965 49.3361 11.1006 48.8432 11.1006C48.1769 11.1006 47.6367 11.6407 47.6367 12.3071C47.6367 13.6147 49.31 14.9316 49.8082 15.2947C49.8906 15.3549 50.0024 15.3548 50.0849 15.2946C50.5832 14.9315 52.2563 13.6147 52.2563 12.3071C52.2563 11.6407 51.7162 11.1006 51.0499 11.1006Z" fill="#FFC700"/>
<path d="M60.3356 0C59.8426 0 59.4195 0.29591 59.2322 0.719517C59.0449 0.29591 58.6217 0 58.1288 0C57.4626 0 56.9224 0.540096 56.9224 1.20649C56.9225 2.51416 58.5959 3.83099 59.094 4.19404C59.1764 4.25417 59.2881 4.25406 59.3707 4.19393C59.869 3.83078 61.5421 2.51405 61.5421 1.20638C61.5419 0.540096 61.0019 0 60.3356 0Z" fill="#FFC700"/>
<path d="M93.3072 0.498047C92.93 0.498047 92.6062 0.724452 92.4631 1.0486C92.3198 0.724452 91.996 0.498047 91.6189 0.498047C91.1091 0.498047 90.6958 0.911309 90.6958 1.42112C90.6958 2.42157 91.9761 3.42913 92.3573 3.70694C92.4204 3.75295 92.5059 3.75295 92.5689 3.70683C92.9503 3.42892 94.2302 2.42157 94.2302 1.42112C94.2302 0.911416 93.817 0.498047 93.3072 0.498047Z" fill="#FFC700"/>
<path d="M81.042 3.74121C80.6649 3.74121 80.341 3.96762 80.1979 4.29176C80.0546 3.96762 79.7309 3.74121 79.3537 3.74121C78.8439 3.74121 78.4307 4.15447 78.4307 4.66429C78.4308 5.66484 79.711 6.67241 80.0921 6.9501C80.1553 6.99612 80.2407 6.99612 80.3038 6.95C80.685 6.67219 81.9651 5.66474 81.9651 4.66429C81.9651 4.15458 81.5518 3.74121 81.042 3.74121Z" fill="#FFC700"/>
</svg>
