<svg width="21" height="18" viewBox="0 0 21 18" fill="none" xmlns="http://www.w3.org/2000/svg">
<path d="M19.5633 7.40016L19.5948 7.40703H6.12922L10.3623 3.16463C10.5696 2.95751 10.6833 2.67693 10.6833 2.38245C10.6833 2.08796 10.5696 1.80934 10.3623 1.60173L9.70363 0.942738C9.49651 0.735616 9.22051 0.621094 8.92619 0.621094C8.6317 0.621094 8.35554 0.734798 8.14842 0.94192L0.892119 8.19756C0.68418 8.4055 0.570475 8.68248 0.571293 8.97713C0.570475 9.27342 0.68418 9.55056 0.892119 9.75817L8.14842 17.0145C8.35554 17.2214 8.63154 17.3353 8.92619 17.3353C9.22051 17.3353 9.49651 17.2213 9.70363 17.0145L10.3623 16.3555C10.5696 16.1487 10.6833 15.8725 10.6833 15.578C10.6833 15.2837 10.5696 15.0221 10.3623 14.8151L6.08145 10.549H19.5784C20.1849 10.549 20.6945 10.0263 20.6945 9.42017V8.48812C20.6945 7.88197 20.1698 7.40016 19.5633 7.40016Z" fill="white"/>
</svg>
