<svg width="1920" height="263" viewBox="0 0 1920 263" fill="none"  xmlns="http://www.w3.org/2000/svg">
<path fill-rule="evenodd" clip-rule="evenodd" d="M0 253.476L80 215.476C160 176.476 320 100.476 480 52.4761C640 4.47611 800 -15.5239 960 13.4761C1120 42.4761 1280 119.476 1440 138.476C1600 157.476 1760 119.476 1840 100.476L1920 80.4761V262.476H1840C1760 262.476 1600 262.476 1440 262.476C1280 262.476 1120 262.476 960 262.476C800 262.476 640 262.476 480 262.476C320 262.476 160 262.476 80 262.476H0V253.476Z" fill="white"/>
</svg>
