<svg width="97" height="111" viewBox="0 0 97 111" fill="none" xmlns="http://www.w3.org/2000/svg">
<path d="M72.1497 0H1.84993C0.828814 0 0 0.828814 0 1.84993V109.15C0 110.173 0.828814 111 1.84993 111H72.1499C77.2503 111 81.4 106.85 81.4 101.75V9.25006C81.3998 4.14949 77.2503 0 72.1497 0ZM77.6997 101.75C77.6997 104.81 75.2096 107.3 72.1497 107.3H3.69985V3.70007H72.1497C75.2096 3.70007 77.6997 6.1902 77.6997 9.25006V101.75Z" fill="#067885"/>
<path d="M86.9476 0H75.8477V3.70007H86.9476C90.0075 3.70007 92.4976 6.1902 92.4976 9.25006V101.75C92.4976 104.81 90.0075 107.3 86.9476 107.3H75.8477V111H86.9476C92.048 111 96.1977 106.85 96.1977 101.75V9.25006C96.1977 4.14949 92.048 0 86.9476 0Z" fill="#067885"/>
<path d="M79.5492 0H68.4492V3.70007H79.5492C82.6091 3.70007 85.0992 6.1902 85.0992 9.25006V101.75C85.0992 104.81 82.6091 107.3 79.5492 107.3H68.4492V111H79.5492C84.6496 111 88.7993 106.85 88.7993 101.75V9.25006C88.7991 4.14949 84.6496 0 79.5492 0Z" fill="#067885"/>
<path d="M49.9514 81.4004H31.4515C30.4304 81.4004 29.6016 82.2273 29.6016 83.2503V98.0504C29.6016 99.0734 30.4304 99.9003 31.4515 99.9003H49.9514C50.9745 99.9003 51.8013 99.0734 51.8013 98.0504V83.2503C51.8015 82.2273 50.9745 81.4004 49.9514 81.4004ZM48.1015 96.2002H33.3014V85.1002H48.1015V96.2002Z" fill="#067885"/>
<path d="M36.9992 88.8008H31.4492V92.5008H36.9992V88.8008Z" fill="#067885"/>
<path d="M49.9484 88.8008H44.3984V92.5008H49.9484V88.8008Z" fill="#067885"/>
<path d="M40.7015 12.9492C24.3808 12.9492 11.1016 26.2285 11.1016 42.5491C11.1016 58.8698 24.3808 72.1492 40.7015 72.1492C57.0221 72.1492 70.3014 58.87 70.3014 42.5493C70.3014 26.2287 57.0221 12.9492 40.7015 12.9492ZM40.7015 68.4492C26.4196 68.4492 14.8014 56.8313 14.8014 42.5491C14.8014 28.267 26.4193 16.6493 40.7015 16.6493C54.9836 16.6493 66.6015 28.2672 66.6015 42.5493C66.6015 56.8315 54.9834 68.4492 40.7015 68.4492Z" fill="#067885"/>
<path d="M42.5516 14.8008H38.8516V70.3007H42.5516V14.8008Z" fill="#067885"/>
<path d="M68.4492 40.6992H12.9492V44.3993H68.4492V40.6992Z" fill="#067885"/>
<path d="M33.1022 17.4779L29.7943 15.8203C21.4175 32.5572 21.4175 52.5409 29.7943 69.2761L33.1022 67.6222C25.2453 51.923 25.2453 33.1771 33.1022 17.4779Z" fill="#067885"/>
<path d="M51.6065 15.8203L48.2969 17.4779C56.1538 33.1771 56.1538 51.923 48.2969 67.6222L51.6065 69.2778C59.9813 52.5426 59.9813 32.559 51.6065 15.8203Z" fill="#067885"/>
<path d="M62.9 24.0488H18.5V27.7489H62.9V24.0488Z" fill="#067885"/>
<path d="M62.9 57.3496H18.5V61.0497H62.9V57.3496Z" fill="#067885"/>
</svg>
