<svg width="111" height="112" viewBox="0 0 111 112" fill="none" xmlns="http://www.w3.org/2000/svg">
<path d="M110.263 0.374843C109.799 0.0251504 109.198 -0.0858495 108.641 0.0732792L89.216 5.62327L90.2317 9.18091L107.3 4.30428V100.356L83.2332 107.233L55.9771 99.9639C55.6625 99.8806 55.3352 99.8806 55.0226 99.9639L27.7665 107.232L3.69985 100.356V4.30428L27.2412 11.0291C27.5648 11.1234 27.9052 11.1234 28.2271 11.0384L55.4997 3.76619L71.6723 8.08045L72.6269 4.50439L55.9769 0.0643906C55.6623 -0.0188594 55.335 -0.0188594 55.0224 0.0643906L27.7665 7.33272L2.35875 0.0732792C1.8018 -0.0858495 1.20062 0.0251504 0.736242 0.374843C0.271863 0.724537 0 1.27021 0 1.85123V101.751C0 102.576 0.547629 103.303 1.34132 103.531L27.2414 110.931C27.5651 111.023 27.9054 111.025 28.2274 110.938L55.5 103.666L82.7725 110.938C82.9297 110.979 83.0889 111.001 83.2499 111.001C83.4221 111.001 83.5922 110.977 83.7568 110.931L109.657 103.531C110.452 103.303 111 102.576 111 101.751V1.85101C111 1.27021 110.728 0.724537 110.263 0.374843Z" fill="#067885"/>
<path d="M23.3835 55.5C21.0545 55.5 18.7991 56.1827 16.8623 57.4759C14.2538 59.2168 12.4778 61.8714 11.8636 64.948C11.2494 68.0265 11.8709 71.1603 13.6118 73.7688L21.8442 86.1269C22.1866 86.6411 22.7656 86.95 23.3835 86.95C24.0033 86.95 24.5804 86.6411 24.9228 86.1269L33.1552 73.7688C34.4464 71.8319 35.1311 69.5766 35.1311 67.2476C35.1311 60.7705 29.8603 55.5 23.3835 55.5ZM30.0769 71.717L23.3835 81.7645L16.6901 71.717C15.4969 69.928 15.0696 67.7822 15.4912 65.6732C15.9112 63.5642 17.1285 61.7474 18.9155 60.5542C20.2439 59.6681 21.7885 59.2001 23.3833 59.2001C27.8213 59.2001 31.4308 62.8095 31.4308 67.2476C31.431 68.8421 30.9629 70.387 30.0769 71.717Z" fill="#067885"/>
<path d="M23.3837 70.3005C25.4272 70.3005 27.0837 68.644 27.0837 66.6005C27.0837 64.557 25.4272 62.9004 23.3837 62.9004C21.3402 62.9004 19.6836 64.557 19.6836 66.6005C19.6836 68.644 21.3402 70.3005 23.3837 70.3005Z" fill="#067885"/>
<path d="M81.3991 0C79.0681 0 76.8148 0.684427 74.8798 1.97589C69.4927 5.57233 68.033 12.8797 71.6275 18.2671L79.8599 30.6251C80.2039 31.1413 80.7813 31.4503 81.3991 31.4503C82.017 31.4503 82.5961 31.1413 82.9401 30.6251L91.1726 18.269C92.4657 16.3322 93.1484 14.0768 93.1484 11.7478C93.1467 5.27054 87.8762 0 81.3991 0ZM88.0925 16.2153L81.3991 26.2628L74.7058 16.2136C72.2434 12.5228 73.2424 7.51678 76.9331 5.05245C78.2595 4.16813 79.8024 3.70007 81.3989 3.70007C85.837 3.70007 89.4464 7.31125 89.4464 11.7458C89.4466 13.3404 88.9786 14.885 88.0925 16.2153Z" fill="#067885"/>
<path d="M81.3993 14.8005C83.4428 14.8005 85.0994 13.144 85.0994 11.1005C85.0994 9.05697 83.4428 7.40039 81.3993 7.40039C79.3558 7.40039 77.6992 9.05697 77.6992 11.1005C77.6992 13.144 79.3558 14.8005 81.3993 14.8005Z" fill="#067885"/>
<path d="M94.3492 46.2504H88.7992C85.7393 46.2504 83.2492 43.7603 83.2492 40.7004V35.1504H79.5491V40.7004C79.5491 45.8007 83.6986 49.9504 88.7992 49.9504H94.3492C97.409 49.9504 99.8991 52.4406 99.8991 55.5004C99.8991 58.5603 97.409 61.0504 94.3492 61.0504H55.4992C50.3988 61.0504 46.2491 65.1999 46.2491 70.3005C46.2491 75.4009 50.3986 79.5506 55.4992 79.5506H73.9991C77.059 79.5506 79.5491 82.0407 79.5491 85.1006C79.5491 88.1604 77.059 90.6506 73.9991 90.6506H22.1992V94.3504H73.9991C79.0995 94.3504 83.2492 90.2009 83.2492 85.1003C83.2492 80 79.0997 75.8503 73.9991 75.8503H55.4992C52.4393 75.8503 49.9492 73.3602 49.9492 70.3003C49.9492 67.2404 52.4393 64.7503 55.4992 64.7503H94.3492C99.4495 64.7503 103.599 60.6008 103.599 55.5002C103.599 50.4001 99.4495 46.2504 94.3492 46.2504Z" fill="#067885"/>
<path d="M99.3586 31.9925L95.6587 28.2924C94.9353 27.5692 93.7661 27.5692 93.0428 28.2924L89.3428 31.9925C88.995 32.3385 88.8008 32.8103 88.8008 33.3004V38.8504C88.8008 39.8715 89.6276 40.7004 90.6507 40.7004H98.0506C99.0737 40.7004 99.9006 39.8715 99.9006 38.8504V33.3004C99.9008 32.8103 99.7065 32.3385 99.3586 31.9925ZM96.2007 37.0005H92.5006V34.0664L94.3506 32.2164L96.2005 34.0664V37.0005H96.2007Z" fill="#067885"/>
<path d="M68.3527 27.1643L64.6527 16.0643C64.4029 15.3076 63.6962 14.7988 62.8988 14.7988C62.1014 14.7988 61.3966 15.3077 61.1432 16.0623L57.4431 27.1623C57.2545 27.7266 57.3488 28.3462 57.6965 28.8293C58.0462 29.314 58.6049 29.5989 59.1987 29.5989H66.5986C67.1924 29.5989 67.7511 29.314 68.0991 28.8312C68.447 28.3484 68.5433 27.7286 68.3527 27.1643ZM61.7669 25.899L62.899 22.4988L64.0331 25.899H61.7669Z" fill="#067885"/>
<path d="M64.7509 27.75H61.0508V33.3H64.7509V27.75Z" fill="#067885"/>
<path d="M99.8019 88.215L96.1019 77.1151C95.8521 76.3584 95.1454 75.8496 94.348 75.8496C93.5506 75.8496 92.8458 76.3584 92.5924 77.1151L88.8923 88.215C88.7037 88.7774 88.798 89.399 89.1457 89.882C89.4954 90.3648 90.0541 90.6497 90.6479 90.6497H98.0478C98.6416 90.6497 99.2003 90.3648 99.5483 89.882C99.8962 89.4009 99.9925 88.7794 99.8019 88.215ZM93.2159 86.9498L94.348 83.5496L95.4821 86.9498H93.2159Z" fill="#067885"/>
<path d="M96.2001 88.8008H92.5V94.3508H96.2001V88.8008Z" fill="#067885"/>
<path d="M31.0802 32.1896C30.3828 31.2571 28.8177 31.2571 28.1203 32.1896L22.5703 39.5895L25.5302 41.8095L29.6002 36.3835L33.6701 41.8095L36.63 39.5895L31.0802 32.1896Z" fill="#067885"/>
<path d="M21.8294 28.4894C21.4687 28.0103 20.8876 27.7291 20.2975 27.7512C19.6981 27.7679 19.1431 28.0749 18.8101 28.5744L11.4102 39.6744L14.4885 41.7261L20.438 32.8017L24.4193 38.1093L27.3792 35.8893L21.8294 28.4894Z" fill="#067885"/>
<path d="M60.5072 46.7915L56.8071 43.0914C56.0837 42.368 54.9145 42.368 54.1913 43.0914L50.4912 46.7915C50.1435 47.1375 49.9492 47.6092 49.9492 48.0994V53.6494C49.9492 54.6705 50.778 55.4993 51.7991 55.4993H59.1991C60.2221 55.4993 61.049 54.6705 61.049 53.6494V48.0994C61.0494 47.609 60.8552 47.1373 60.5072 46.7915ZM57.3494 51.7993H53.6493V48.8651L55.4992 47.0152L57.3491 48.8651V51.7993H57.3494Z" fill="#067885"/>
<path d="M53.5563 27.1643L49.8563 16.0643C49.6046 15.3076 48.898 14.7988 48.1007 14.7988C47.3033 14.7988 46.5985 15.3077 46.345 16.0623L42.645 27.1623C42.4581 27.7266 42.5524 28.3462 42.9004 28.8293C43.2481 29.314 43.8068 29.5989 44.4008 29.5989H51.8007C52.3945 29.5989 52.9532 29.314 53.3012 28.8312C53.6491 28.3484 53.7452 27.7286 53.5563 27.1643ZM46.9666 25.899L48.1007 22.4988L49.2347 25.899H46.9666Z" fill="#067885"/>
<path d="M49.9501 27.75H46.25V33.3H49.9501V27.75Z" fill="#067885"/>
</svg>
