<svg width="111" height="78" viewBox="0 0 111 78" fill="none" xmlns="http://www.w3.org/2000/svg">
<path d="M105.746 26.6913L23.5009 0.363312C19.6389 -0.876981 15.5636 1.15505 14.2305 4.98542L5.16406 30.9425L8.66446 32.1643L17.7309 6.20533C18.3984 4.29015 20.4324 3.26665 22.368 3.89515L104.646 30.2325C106.606 30.8202 107.719 32.893 107.12 34.8919L100.204 56.9572L103.742 58.0659L110.683 35.9171C111.859 32.0013 109.63 27.8575 105.746 26.6913Z" fill="#067885"/>
<path d="M78.811 21.0027L77.625 24.5078L81.1371 25.6962L82.3231 22.1911L78.811 21.0027Z" fill="#067885"/>
<path d="M76.4399 28.0339L75.2539 31.5391L78.766 32.7274L79.952 29.2223L76.4399 28.0339Z" fill="#067885"/>
<path d="M13.5608 9.06109L12.4023 12.584L75.4466 33.3156L76.605 29.7927L13.5608 9.06109Z" fill="#067885"/>
<path d="M20.7841 19.0675L19.6016 22.582L35.4173 27.9035L36.5999 24.3889L20.7841 19.0675Z" fill="#067885"/>
<path d="M43.6307 26.7594L42.4297 30.2676L51.311 33.3081L52.5121 29.7999L43.6307 26.7594Z" fill="#067885"/>
<path d="M102.559 39.0619L101.387 42.5781L106.949 44.4319L108.121 40.9157L102.559 39.0619Z" fill="#067885"/>
<path d="M94.558 29.7012H9.27044C4.15859 29.7012 0 33.8598 0 38.9716V68.6368C0 73.7484 4.15859 77.9072 9.27044 77.9072H94.558C99.6697 77.9072 103.828 73.7486 103.828 68.6368V38.9716C103.828 33.8598 99.6697 29.7012 94.558 29.7012ZM100.12 68.6368C100.12 71.7034 97.6246 74.1989 94.558 74.1989H9.27044C6.20385 74.1989 3.70831 71.7034 3.70831 68.6368V38.9716C3.70831 35.905 6.20385 33.4095 9.27044 33.4095H94.558C97.6246 33.4095 100.12 35.905 100.12 38.9716V68.6368Z" fill="#067885"/>
<path d="M70.4542 33.4082H66.7461V37.1163H70.4542V33.4082Z" fill="#067885"/>
<path d="M70.4542 40.8242H66.7461V44.5323H70.4542V40.8242Z" fill="#067885"/>
<path d="M70.4542 48.2422H66.7461V51.9503H70.4542V48.2422Z" fill="#067885"/>
<path d="M70.4542 55.6582H66.7461V59.3663H70.4542V55.6582Z" fill="#067885"/>
<path d="M70.4542 63.0742H66.7461V66.7823H70.4542V63.0742Z" fill="#067885"/>
<path d="M70.4542 70.4902H66.7461V74.1983H70.4542V70.4902Z" fill="#067885"/>
<path d="M101.976 42.6797H1.85547V46.3878H101.976V42.6797Z" fill="#067885"/>
<path d="M12.9776 57.5122V55.6582H9.26953V61.2203H29.6642V57.5122H12.9776Z" fill="#067885"/>
<path d="M96.4125 50.0957H88.9961V53.8038H96.4125V50.0957Z" fill="#067885"/>
<path d="M96.4125 57.5117H88.9961V61.2198H96.4125V57.5117Z" fill="#067885"/>
<path d="M96.4125 64.9277H88.9961V68.6358H96.4125V64.9277Z" fill="#067885"/>
<path d="M85.2885 50.0957H74.1641V53.8038H85.2885V50.0957Z" fill="#067885"/>
<path d="M81.5805 57.5117H74.1641V61.2198H81.5805V57.5117Z" fill="#067885"/>
<path d="M85.2885 64.9277H74.1641V68.6358H85.2885V64.9277Z" fill="#067885"/>
<path d="M59.3296 50.0957H35.2266V53.8038H59.3296V50.0957Z" fill="#067885"/>
<path d="M59.3296 57.5117H35.2266V61.2198H59.3296V57.5117Z" fill="#067885"/>
<path d="M51.9132 64.9277H35.2266V68.6358H51.9132V64.9277Z" fill="#067885"/>
<path d="M18.1696 50.8379L15.2031 53.0609L19.931 59.3647L15.2031 65.6705L18.1696 67.8935L24.5661 59.3647L18.1696 50.8379Z" fill="#067885"/>
</svg>
