<svg width="464" height="180" viewBox="0 0 464 180" fill="none" xmlns="http://www.w3.org/2000/svg">
<g opacity="0.1">
<path d="M79.9336 179.674C63.9269 179.674 49.8803 176.244 37.7936 169.384C25.8703 162.361 16.6419 152.153 10.1086 138.759C3.57526 125.366 0.308594 109.196 0.308594 90.2492C0.308594 71.3026 3.57526 55.1326 10.1086 41.7392C16.6419 28.3459 25.8703 18.2192 37.7936 11.3592C49.8803 4.33588 63.9269 0.824219 79.9336 0.824219C95.9403 0.824219 109.905 4.33588 121.829 11.3592C133.915 18.2192 143.225 28.3459 149.759 41.7392C156.292 55.1326 159.559 71.3026 159.559 90.2492C159.559 109.196 156.292 125.366 149.759 138.759C143.225 152.153 133.915 162.361 121.829 169.384C109.905 176.244 95.9403 179.674 79.9336 179.674ZM79.9336 174.774C86.3036 174.774 92.1836 172.079 97.5736 166.689C103.127 161.299 107.7 152.316 111.294 139.739C114.887 127.163 116.684 110.666 116.684 90.2492C116.684 69.8326 114.887 53.3359 111.294 40.7592C107.7 28.1826 103.127 19.1992 97.5736 13.8092C92.1836 8.41921 86.3036 5.72421 79.9336 5.72421C73.5636 5.72421 67.6019 8.41921 62.0486 13.8092C56.6586 19.1992 52.1669 28.1826 48.5736 40.7592C44.9803 53.3359 43.1836 69.8326 43.1836 90.2492C43.1836 110.666 44.9803 127.163 48.5736 139.739C52.1669 152.316 56.6586 161.299 62.0486 166.689C67.6019 172.079 73.5636 174.774 79.9336 174.774Z" fill="white"/>
<path d="M182.891 172.324L197.591 168.649V11.8492L182.891 8.17421V4.49922H313.966V48.5992H306.616C303.513 46.1492 300.818 43.0459 298.531 39.2892C293.304 30.4692 290.691 20.9142 290.691 10.6242H238.016V87.7992H266.191C267.334 81.5926 269.458 75.7942 272.561 70.4042C273.868 67.9542 275.419 65.5859 277.216 63.2992H284.566V118.424H277.216C275.419 116.138 273.868 113.769 272.561 111.319C269.458 105.929 267.334 100.131 266.191 93.9242H238.016V168.649L252.716 172.324V175.999H182.891V172.324Z" fill="white"/>
<path d="M332.427 172.324L347.127 168.649V11.8492L332.427 8.17421V4.49922H463.502V48.5992H456.152C453.049 46.1492 450.354 43.0459 448.067 39.2892C442.841 30.4692 440.227 20.9142 440.227 10.6242H387.552V87.7992H415.727C416.871 81.5926 418.994 75.7942 422.097 70.4042C423.404 67.9542 424.955 65.5859 426.752 63.2992H434.102V118.424H426.752C424.955 116.138 423.404 113.769 422.097 111.319C418.994 105.929 416.871 100.131 415.727 93.9242H387.552V168.649L402.252 172.324V175.999H332.427V172.324Z" fill="white"/>
</g>
</svg>
