<svg width="122" height="176" viewBox="0 0 122 176" fill="none" xmlns="http://www.w3.org/2000/svg">
<path opacity="0.1" d="M120.194 51.0492C120.194 20.4242 100.594 0.824219 55.2687 0.824219C19.7437 0.824219 2.59367 17.9742 2.59367 32.6742C2.59367 43.6992 9.94367 51.0492 20.9687 51.0492C25.8687 51.0492 30.7687 49.8242 30.7687 49.8242V10.6242C30.7687 10.6242 38.1187 6.94921 50.3687 6.94921C66.2937 6.94921 78.5437 19.1992 78.5437 41.2492C78.5437 91.4742 0.388672 104.949 0.388672 164.974V175.999H121.664V126.999H114.314C114.314 126.999 102.064 136.799 99.6137 156.399H8.96367C26.1137 107.399 120.194 109.849 120.194 51.0492Z" fill="white"/>
</svg>
