<svg width="126" height="180" viewBox="0 0 126 180" fill="none" xmlns="http://www.w3.org/2000/svg">
<path opacity="0.1" d="M53.1423 179.674C104.592 179.674 125.417 158.849 125.417 131.899C125.417 86.5742 65.3923 85.3492 65.3923 85.3492C65.3923 85.3492 118.067 84.1242 118.067 44.9242C118.067 21.6492 97.2423 0.824219 54.3673 0.824219C21.2923 0.824219 4.14229 17.9742 4.14229 32.6742C4.14229 43.6992 11.4923 51.0492 22.5173 51.0492C27.4173 51.0492 32.3173 49.8242 32.3173 49.8242V10.6242C32.3173 10.6242 39.6673 6.94921 49.4673 6.94921C64.1673 6.94921 76.4173 19.1992 76.4173 44.9242C76.4173 70.6492 64.1673 82.8992 50.6923 82.8992H38.4423V89.0242H50.6923C70.2923 89.0242 83.7673 102.499 83.7673 131.899C83.7673 160.074 70.2923 173.549 48.2423 173.549C35.9923 173.549 28.6423 169.874 28.6423 169.874V130.674C28.6423 130.674 23.7423 129.449 18.8423 129.449C7.81729 129.449 0.467285 136.799 0.467285 147.824C0.467285 162.524 17.6173 179.674 53.1423 179.674Z" fill="white"/>
</svg>
