<svg width="122" height="205" viewBox="0 0 122 205" fill="none" xmlns="http://www.w3.org/2000/svg">
<path opacity="0.1" d="M48.4869 198.55C36.2369 198.55 28.8869 194.875 28.8869 194.875V155.675C28.8869 155.675 23.9869 154.45 19.0869 154.45C8.06191 154.45 0.711914 161.8 0.711914 172.825C0.711914 187.525 17.8619 204.675 53.3869 204.675C99.9369 204.675 121.987 182.625 121.987 148.325C121.987 115.25 99.9369 93.1996 50.9369 93.1996C30.1119 93.1996 15.4119 104.225 15.4119 104.225L22.0269 47.8746H110.962V0.0996094H103.612C103.612 0.0996094 91.3619 9.89961 88.9119 29.4996H16.6369L6.83692 111.575L11.7369 115.25C11.7369 115.25 27.6619 99.3246 46.0369 99.3246C67.3519 99.3246 80.3369 112.8 80.3369 148.325C80.3369 185.075 66.8619 198.55 48.4869 198.55Z" fill="white"/>
</svg>
