<svg width="129" height="180" viewBox="0 0 129 180" fill="none" xmlns="http://www.w3.org/2000/svg">
<path opacity="0.1" d="M66.4357 174.774C55.4106 174.774 43.1606 162.524 43.1606 117.199C43.1606 87.7992 52.9606 76.7742 65.2106 76.7742C75.0106 76.7742 87.2607 89.0242 87.2607 125.774C87.2607 162.524 75.0107 174.774 66.4357 174.774ZM77.4606 6.94921C84.8106 6.94921 92.1606 10.6242 92.1606 10.6242V49.8242C92.1606 49.8242 97.0607 51.0492 101.961 51.0492C112.986 51.0492 120.336 43.6992 120.336 32.6742C120.336 17.9742 103.186 0.824219 72.5607 0.824219C28.4606 0.824219 0.285645 30.2242 0.285645 90.2492C0.285645 152.724 27.2356 179.674 66.4357 179.674C106.861 179.674 128.911 157.624 128.911 123.324C128.911 92.6992 106.861 70.6492 70.1106 70.6492C50.5107 70.6492 41.9356 85.3492 41.9356 85.3492C41.9356 20.4242 55.4106 6.94921 77.4606 6.94921Z" fill="white"/>
</svg>
