<svg width="91" height="108" viewBox="0 0 91 108" fill="none" xmlns="http://www.w3.org/2000/svg">
<path d="M69.8664 44.2848C69.601 44.2848 69.3291 44.2243 69.075 44.096C68.2078 43.658 67.8601 42.6004 68.2989 41.7331L73.8089 30.8262L62.067 19.0843L55.618 23.1276C54.7959 23.6471 53.7109 23.3946 53.1954 22.5734C52.6783 21.7505 52.9276 20.6655 53.7504 20.1508L61.3845 15.3612C62.0791 14.9224 62.9802 15.024 63.5618 15.6065L77.1955 29.2393C77.7328 29.7766 77.8635 30.5979 77.5215 31.2755L71.4371 43.3191C71.1297 43.9306 70.5086 44.2848 69.8664 44.2848Z" fill="#067885"/>
<path d="M75.9529 32.2417C75.4898 32.2417 75.0405 32.0594 74.7089 31.7262L61.0769 18.0934C60.6969 17.7166 60.5114 17.185 60.5711 16.6526C60.634 16.1209 60.9317 15.645 61.385 15.3618L69.0013 10.5844C69.6935 10.1471 70.6003 10.2496 71.1787 10.8304L81.3548 21.0089C81.892 21.5462 82.0235 22.3666 81.6807 23.0451L77.5212 31.2777C77.2679 31.7811 76.7871 32.1312 76.2304 32.2208C76.1377 32.2345 76.0457 32.2417 75.9529 32.2417ZM65.1234 17.1681L75.4794 27.5224L77.9681 22.5941L69.6822 14.3066L65.1234 17.1681Z" fill="#067885"/>
<path d="M80.1115 24.0108C79.6493 24.0108 79.1999 23.8285 78.8683 23.4953L68.6923 13.3185C68.3131 12.9409 68.1276 12.4093 68.1873 11.8777C68.2494 11.3452 68.5487 10.8693 69.0021 10.5861L76.616 5.81029C77.3089 5.37223 78.2125 5.47227 78.7933 6.05634L85.5142 12.7756C86.0514 13.3128 86.1829 14.1341 85.8409 14.8125L81.6806 23.046C81.4273 23.5502 80.9465 23.8995 80.3898 23.9891C80.2979 24.0036 80.2043 24.0108 80.1115 24.0108ZM72.7404 12.3924L79.6371 19.2915L82.1275 14.3616L77.2968 9.53333L72.7404 12.3924Z" fill="#067885"/>
<path d="M84.2712 15.7772C83.809 15.7772 83.3604 15.5949 83.0273 15.2617L76.3064 8.5417C75.9289 8.16416 75.7417 7.63414 75.8022 7.1017C75.8627 6.56926 76.162 6.09329 76.6162 5.81013L84.0276 1.16177C85.6346 0.152554 87.6684 0.330034 89.0737 1.61354C90.4806 2.89381 90.8493 4.89611 89.9909 6.59668L85.8411 14.8124C85.5862 15.315 85.1054 15.6651 84.5487 15.7546C84.456 15.77 84.364 15.7772 84.2712 15.7772ZM80.3538 7.61719L83.7969 11.0579L86.8519 5.00985C87.0512 4.61537 86.8447 4.34027 86.7043 4.21119C86.5341 4.0555 86.2542 3.9119 85.8952 4.1394L80.3538 7.61719ZM88.4218 5.80287H88.4388H88.4218Z" fill="#067885"/>
<path d="M14.8799 52.2594C14.3853 52.2594 13.8932 52.0488 13.5439 51.6447C7.95492 45.1126 5.67591 39.1428 6.77306 33.9031C7.98154 28.1366 12.9671 24.6395 16.9378 22.7211C17.8115 22.3008 18.8627 22.667 19.2854 23.5399C19.7081 24.4144 19.3419 25.4656 18.4658 25.8875C15.2082 27.4622 11.1302 30.2567 10.2162 34.6235C9.35378 38.7394 11.3714 43.6968 16.2166 49.3576C16.8483 50.0965 16.7603 51.205 16.023 51.8367C15.6922 52.1206 15.2856 52.2594 14.8799 52.2594Z" fill="#067885"/>
<path d="M5.18627 60.8275C4.55138 60.8275 3.93827 60.4822 3.62364 59.8796C-0.452747 52.035 1.10666 45.0068 8.01304 40.0922C8.80686 39.5307 9.90562 39.7163 10.4647 40.5044C11.0286 41.2958 10.8447 42.393 10.0524 42.9561C4.52153 46.8929 3.43971 51.8987 6.74487 58.2581C7.19179 59.1205 6.857 60.1821 5.99542 60.6299C5.73565 60.7638 5.45895 60.8275 5.18627 60.8275Z" fill="#067885"/>
<path d="M14.8829 85.4441C14.5908 85.4441 14.2996 85.3731 14.035 85.2271C5.13278 80.3214 0.619141 74.7816 0.619141 68.7594C0.619141 58.6527 13.4872 51.4486 14.035 51.1469C14.5787 50.8476 15.2403 50.8589 15.7775 51.1727C16.314 51.4906 16.6415 52.065 16.6415 52.6869V83.6862C16.6415 84.3082 16.314 84.8834 15.7775 85.2005C15.5016 85.3618 15.1927 85.4441 14.8829 85.4441ZM13.125 55.9139C9.7045 58.3486 4.13405 63.1744 4.13728 68.7666C4.14131 72.8495 7.16169 76.825 13.125 80.6086V55.9139Z" fill="#067885"/>
<path d="M24.9946 104.383C24.8123 104.383 24.6267 104.356 24.4452 104.296C6.05908 98.2378 6.29222 87.2268 8.06863 81.203C8.34131 80.272 9.31825 79.7291 10.2508 80.013C11.1826 80.2873 11.7158 81.2651 11.4408 82.1952C8.92618 90.7312 13.6705 97.0422 25.5431 100.954C26.4685 101.258 26.9694 102.252 26.6653 103.175C26.4209 103.915 25.7327 104.383 24.9946 104.383Z" fill="#067885"/>
<path d="M88.7374 107.386H27.193C26.6074 107.386 26.0588 107.094 25.7329 106.606C2.73471 72.3141 16.5806 34.8159 18.9531 29.0228C12.1274 14.0225 19.3323 7.91799 19.6477 7.66226C19.9059 7.4509 20.2213 7.3186 20.5521 7.27907C31.4994 5.98588 38.9366 14.3775 40.9445 16.9501C66.7977 18.4764 70.8571 35.3233 71.488 40.8316C82.1828 41.673 90.6284 50.6543 90.6284 61.5726C90.6284 68.0651 88.7923 73.1911 85.1725 76.8036C80.6145 81.3527 74.2922 82.4152 70.2472 82.6612C75.4014 88.23 80.2579 91.2432 83.6099 92.8324C87.7927 94.8121 90.4953 99.1499 90.4953 103.881V105.627C90.4953 106.598 89.7095 107.386 88.7374 107.386ZM28.1377 103.869H86.9796C86.9739 100.495 85.0628 97.4106 82.1061 96.0085C77.9039 94.0183 71.5453 89.9911 65.1019 82.0973C64.6873 81.5891 64.5881 80.8921 64.8478 80.2894C65.1076 79.6868 65.6812 79.2802 66.3354 79.2318C66.5242 79.2189 66.8388 79.2197 67.2777 79.2165C69.902 79.2189 77.7579 79.2359 82.6886 74.3148C85.6235 71.3848 87.1119 67.0987 87.1119 61.5726C87.1119 52.0395 79.3673 44.2852 69.8463 44.2852C69.3752 44.2852 68.9218 44.0948 68.5902 43.7568C68.2611 43.4196 68.0788 42.963 68.0892 42.4911C68.1013 41.648 68.0731 21.6985 39.9474 20.4198C39.3988 20.3932 38.893 20.1125 38.58 19.6607C38.509 19.5623 31.7365 9.94853 21.554 10.7141C20.4496 11.9879 17.1566 17.0816 22.4656 28.233C22.6891 28.7017 22.6931 29.2478 22.4761 29.7198C22.2986 30.1078 5.14763 68.6492 28.1377 103.869Z" fill="#067885"/>
<path d="M48.7567 53.9529C43.6122 53.9529 39.4277 49.7684 39.4277 44.6239C39.4277 43.6518 40.2135 42.8652 41.1856 42.8652C42.1577 42.8652 42.9443 43.6518 42.9443 44.6239C42.9443 47.8274 45.5532 50.4364 48.7567 50.4364C51.9635 50.4364 54.5716 47.8274 54.5716 44.6239C54.5716 43.6518 55.359 42.8652 56.3303 42.8652C57.3024 42.8652 58.0881 43.6518 58.0881 44.6239C58.0881 49.7684 53.902 53.9529 48.7567 53.9529Z" fill="#067885"/>
<path d="M33.6126 24.1559C32.8955 24.1559 32.2202 23.7122 31.9605 22.9974C31.0884 20.6007 29.9194 19.0824 28.4835 18.4846C27.0072 17.8699 25.6446 18.4419 25.6317 18.4467C24.7524 18.8589 23.7068 18.4725 23.2978 17.59C22.8888 16.709 23.2736 15.6635 24.1546 15.2561C24.4313 15.1262 26.9426 14.0387 29.8347 15.2367C32.2154 16.2282 34.0426 18.4346 35.2648 21.7954C35.598 22.707 35.1285 23.717 34.2136 24.0478C34.016 24.1212 33.8119 24.1559 33.6126 24.1559Z" fill="#067885"/>
</svg>
