<svg width="170" height="93" viewBox="0 0 170 93" fill="none" xmlns="http://www.w3.org/2000/svg">
<path d="M169.426 81.1009C142.551 76.5342 136.357 81.7062 120.685 80.1106C99.3033 77.9098 106.628 50.7847 118.638 49.2442C124.401 48.5289 123.809 45.5578 123.108 43.6871C123.485 43.302 123.755 42.8618 124.347 42.8618C127.686 42.6968 135.927 51.5 138.404 42.1465C138.727 41.0461 137.758 39.8907 138.135 38.7353C139.427 36.0943 142.228 36.6995 145.782 34.4987C147.775 33.2333 147.237 30.2071 146.752 28.6666C155.962 24.375 146.806 13.9211 142.012 9.84961C122.301 -6.87657 93.4867 -0.439194 72.2129 15.3516C46.5767 34.4437 33.9202 73.7832 0.151415 68.5563C-0.0101582 68.5563 -0.0640158 68.7764 0.0975571 68.8314C22.8793 75.2688 39.3059 55.2414 52.3933 39.3955C59.9334 30.2071 67.635 21.5139 77.491 14.9115C96.772 2.03672 121.816 -3.02515 139.643 11.7753C143.143 14.6364 152.138 22.8344 145.944 26.7409C141.258 18.6529 130.379 15.9018 121.277 15.0215C121.17 15.0215 121.116 15.1866 121.277 15.2416C142.497 19.038 150.199 32.463 142.174 34.0035C139.858 34.4437 138.135 34.8288 137.435 37.1947C136.25 35.324 134.472 33.6734 133.018 32.628C132.911 32.573 132.803 32.683 132.857 32.7931C134.58 35.5441 139.266 41.0461 135.496 43.9622C132.426 46.3831 125.101 37.2497 121.654 41.2662C120.523 39.7257 118.961 38.4602 117.292 37.6899C117.076 37.5799 116.861 37.855 117.022 38.02C117.561 38.5702 126.071 46.4932 118.369 46.9333C117.184 46.9883 113.953 45.2277 113.953 45.2277C111.637 44.4574 108.944 47.3185 106.628 47.3185C99.7342 47.1534 95.7487 42.5317 95.7487 42.5317C95.2102 43.247 95.6949 44.9526 95.9103 46.108C88.4241 47.5936 80.0223 39.5056 75.5521 43.0819C77.0601 42.9168 79.3222 44.0723 80.8302 44.4024C63.9727 48.9691 70.3818 76.8094 81.261 84.7873C91.871 92.5452 110.075 97.1119 137.542 87.8134C147.29 84.5122 156.608 80.3307 166.679 82.2013C169.965 83.0266 170.665 81.321 169.426 81.1009ZM110.183 48.3638C100.165 56.0667 99.4649 70.7021 108.836 78.515C97.3645 72.6278 98.1185 53.9209 110.183 48.3638ZM98.8725 48.3638C91.2247 57.9374 94.2946 72.3527 103.774 78.68C107.328 81.1009 110.021 81.8712 113.252 82.9166C91.9787 80.6058 88.2625 57.7173 98.8725 48.3638ZM81.638 47.8136C73.1285 62.5591 77.0063 80.4407 95.3179 87.0431C99.034 88.2536 99.8958 88.3636 101.835 88.8038C76.1984 86.9331 69.7894 62.9442 81.638 47.8136ZM89.1242 48.3638C80.6686 60.6884 85.1388 81.9813 110.99 85.5026C113.683 85.7777 113.36 85.9427 120.793 86.2178C83.7923 89.354 78.1373 60.7984 89.1242 48.3638Z" fill="#067885"/>
<path d="M80.7743 19.4787C90.5764 11.1706 104.956 7.4292 117.99 8.2545C122.514 8.5296 126.392 8.74969 130.216 11.5007C130.7 11.8858 131.4 11.1706 131.077 10.6754C129.031 7.15409 124.668 6.65891 121.006 6.43883C106.087 5.50348 91.3304 8.30952 80.7204 19.4236C80.6127 19.4787 80.7204 19.5337 80.7743 19.4787Z" fill="#067885"/>
</svg>
