<svg width="97" height="110" viewBox="0 0 97 110" fill="none" xmlns="http://www.w3.org/2000/svg">
<path d="M47.7978 3C42.4637 3.18701 44.5153 8.61037 44.5153 8.61037H47.7978H51.0803C51.0803 8.61037 53.1319 3.18701 47.7978 3Z" stroke="#067885" stroke-width="5" stroke-miterlimit="10" stroke-linecap="round" stroke-linejoin="round"/>
<path d="M66.262 31.3891C66.262 31.3891 68.1644 8.72324 47.7979 8.64844C27.4314 8.72324 29.3338 31.3891 29.3338 31.3891C29.3338 31.3891 26.387 32.586 26.9092 37.4483C27.4314 42.3107 30.8631 42.6473 30.8631 42.6473C30.8631 42.6473 29.4084 47.5844 34.556 55.1023C39.7408 62.6202 47.7606 63.4056 47.7606 63.4056C47.7606 63.4056 55.7804 62.6202 60.9653 55.1023C66.1501 47.5844 64.6581 42.6473 64.6581 42.6473C64.6581 42.6473 68.1271 42.3107 68.612 37.4483C69.1715 32.586 66.262 31.3891 66.262 31.3891ZM47.7979 55.4389C43.8813 55.4389 40.7107 53.12 40.7107 50.24C40.7107 47.36 43.8813 45.041 47.7979 45.041C51.7145 45.041 54.8851 47.36 54.8851 50.24C54.8851 53.12 51.6772 55.4389 47.7979 55.4389ZM55.5193 38.8322C51.5653 39.6177 47.7979 36.7751 47.7979 36.7751C47.7979 36.7751 44.0305 39.6177 40.0765 38.8322C36.1226 38.0468 34.8544 35.9896 35.0036 31.5387C35.1528 27.1253 42.0908 27.2001 44.4035 28.3969C45.8582 29.145 47.7606 30.9029 47.7606 30.9029C47.7606 30.9029 49.663 29.145 51.1177 28.3969C53.4677 27.2001 60.3684 27.1253 60.5176 31.5387C60.7041 35.9896 59.4359 38.0468 55.5193 38.8322Z" fill="#067885"/>
<path d="M40.7108 60.8235L37.6147 67.556C37.6147 67.556 48.4694 76.383 59.6971 67.556L55.5194 60.4121" stroke="#067885" stroke-width="4" stroke-miterlimit="10" stroke-linecap="round" stroke-linejoin="round"/>
<path d="M37.6145 67.555C37.6145 67.555 29.3336 66.9191 14.8234 71.4822C0.313242 76.0079 2.0664 99.5341 2.0664 99.5341C2.0664 99.5341 15.1965 108.548 48.6557 106.79C82.1149 105.07 85.0617 105.593 94.9093 99.6837C94.9093 99.6837 95.9537 83.6006 90.9553 76.1576C85.957 68.7145 59.7342 67.5176 59.7342 67.5176" stroke="#067885" stroke-width="4" stroke-miterlimit="10" stroke-linecap="round" stroke-linejoin="round"/>
</svg>
