<svg width="126" height="128" viewBox="0 0 126 128" fill="none" xmlns="http://www.w3.org/2000/svg">
<path d="M94.7288 53.2008L86.6039 42.5339C86.3487 42.1979 85.9466 42 85.5208 42H62.6084H62.4946H39.4793C39.0535 42 38.6514 42.1979 38.3962 42.5339L30.2712 53.2008C29.8851 53.7061 29.9141 54.4105 30.3401 54.8831L61.4858 89.5495C61.7423 89.836 62.1126 90 62.5001 90C62.8876 90 63.2579 89.8359 63.5145 89.5495L94.6602 54.8831C95.0858 54.4105 95.1149 53.7061 94.7288 53.2008ZM82.7051 44.6667H84.1666V50.0002H80.9623C81.8039 48.8089 82.4977 47.0808 82.7051 44.6667ZM80.0112 44.6667C79.7421 47.2778 78.7539 48.7051 77.9583 49.4127C77.2019 48.1148 75.757 46.2204 73.2329 44.6667H80.0112ZM33.0999 53.9313L40.1563 44.6667H46.6786C43.3954 45.9341 40.3399 47.8035 38.371 50.5679C36.6477 52.9872 35.8709 55.029 35.621 56.7373L33.0999 53.9313ZM50.3001 73.0759C50.6601 72.5824 51.8168 71.3341 54.375 71.3341C57.3421 71.3341 58.8199 74.6882 59.4381 76.6871C57.3593 76.7781 55.3459 76.7726 53.5492 76.6924L50.3001 73.0759ZM62.5 86.6549L55.9978 79.4177C56.163 79.4188 56.3099 79.4216 56.4843 79.4216C60.1275 79.4216 65.7097 79.1591 70.3994 77.8627L62.5 86.6549ZM76.0893 70.984C75.1652 74.3298 68.7798 75.94 62.2051 76.5072C61.5387 74.0534 59.4974 68.6675 54.375 68.6675C51.216 68.6675 49.4052 70.0476 48.4913 71.0626L43.6596 65.6848C44.8589 65.8934 46.1723 66.0007 47.5896 66.0007C47.595 66.0007 47.6002 66.0007 47.6055 66.0007C68.4416 65.9694 74.4824 68.1322 75.8803 69.933C76.1421 70.2691 76.2029 70.5737 76.0893 70.984ZM78.4171 68.9386C78.3055 68.7254 78.1877 68.5136 78.0319 68.3133C75.3593 64.8704 66.0282 63.334 47.7827 63.334C47.7193 63.334 47.6677 63.3327 47.5896 63.334C43.6291 63.334 40.6526 62.399 39.2162 60.7392L39.2157 60.7385C39.0105 60.5014 38.837 60.2496 38.6963 59.9836C37.6741 58.0487 38.3459 55.2479 40.5874 52.0993C43.3004 48.2888 48.7328 46.4311 53.5072 45.5259C51.9478 47.5285 51.6667 49.9106 51.6667 51.3336C51.6667 55.8194 55.2109 58.0005 62.5 58.0005C75.6866 58.0005 82.3521 58.2225 83.9527 62.7771L78.4171 68.9386ZM85.9262 60.5807C82.9757 55.347 74.5623 55.3338 62.5 55.3338C54.375 55.3338 54.375 52.6318 54.375 51.3336C54.375 48.3062 55.7861 44.6928 62.5053 44.6668H62.6059C73.4974 44.6668 76.0113 51.4704 76.1105 51.753C76.2943 52.2987 76.8126 52.6672 77.3959 52.6672H85.5208C86.2693 52.6672 86.875 52.0708 86.875 51.3338V47.3338L91.9002 53.9315L85.9262 60.5807Z" fill="#067885"/>
<path d="M63.0005 11.2304L61.22 7.53261L57.1113 6.98478L59.9874 4.1087L59.3026 0L63.0005 1.91739L66.6983 0L66.0135 4.1087L68.8896 6.98478L64.7809 7.53261L63.0005 11.2304Z" fill="#067885"/>
<path d="M78.4761 13.9697L77.7913 9.99793L73.9565 8.21749L77.6544 6.3001L78.2022 2.19141L81.0783 5.06749L85.187 4.24575L83.4065 7.94358L85.3239 11.6414L81.2152 10.9566L78.4761 13.9697Z" fill="#067885"/>
<path d="M91.2133 20.6801L91.6241 16.5714L88.4741 13.8323L92.5828 13.0106L94.2263 9.17578L96.2806 12.8736L100.389 13.2845L97.5132 16.2975L98.472 20.2693L94.7741 18.6258L91.2133 20.6801Z" fill="#067885"/>
<path d="M101.485 29.7207L103.129 26.0229L100.8 22.462L104.909 22.8729L107.511 19.5859L108.47 23.6946L112.442 25.2012L108.881 27.2555L108.607 31.3642L105.457 28.762L101.485 29.7207Z" fill="#067885"/>
<path d="M109.565 41.3617L112.168 38.0747L110.935 34.103L114.77 35.6095L118.194 33.2812L118.057 37.3899L121.344 39.8552L117.235 40.9508L115.865 44.9226L113.674 41.3617H109.565Z" fill="#067885"/>
<path d="M114.359 55.4682L117.646 53.1399V49.0312L120.933 51.4965L124.905 50.2639L123.535 54.0986L126 57.5226L121.891 57.3856L119.426 60.8095L118.194 56.8378L114.359 55.4682Z" fill="#067885"/>
<path d="M114.359 71.3547L118.194 69.9852L119.426 66.1504L121.891 69.4373L126 69.3004L123.535 72.7243L124.905 76.5591L120.933 75.3265L117.646 77.7917V73.683L114.359 71.3547Z" fill="#067885"/>
<path d="M109.565 85.4613H113.674L115.865 81.9004L117.235 85.8721L121.344 86.9678L118.057 89.433L118.194 93.5417L114.77 91.2134L110.935 92.72L112.168 88.7482L109.565 85.4613Z" fill="#067885"/>
<path d="M101.485 97.1005L105.457 98.0592L108.607 95.457L108.881 99.5657L112.442 101.757L108.47 103.264L107.511 107.235L104.909 104.085L100.8 104.359L103.129 100.935L101.485 97.1005Z" fill="#067885"/>
<path d="M91.2133 106.141L94.7741 108.332L98.472 106.551L97.5132 110.523L100.389 113.673L96.2806 113.947L94.2263 117.645L92.5828 113.81L88.4741 112.988L91.6241 110.249L91.2133 106.141Z" fill="#067885"/>
<path d="M78.4761 112.854L81.2152 115.867L85.3239 115.182L83.4065 118.88L85.187 122.577L81.0783 121.756L78.2022 124.632L77.6544 120.523L73.9565 118.606L77.7913 116.962L78.4761 112.854Z" fill="#067885"/>
<path d="M68.6152 121.206L64.9174 122.986L64.3695 127.095L61.4935 124.219L57.3848 124.903L59.3022 121.206L57.3848 117.508L61.4935 118.193L64.3695 115.316L64.9174 119.425L68.6152 121.206Z" fill="#067885"/>
<path d="M47.5241 112.854L48.2089 116.962L52.0437 118.606L48.3458 120.523L47.798 124.632L44.9219 121.756L40.8132 122.577L42.5937 118.88L40.6763 115.182L44.785 115.867L47.5241 112.854Z" fill="#067885"/>
<path d="M34.7874 106.141L34.3765 110.249L37.5265 112.988L33.4178 113.81L31.7744 117.645L29.72 113.947L25.6113 113.673L28.4874 110.523L27.5287 106.551L31.2265 108.332L34.7874 106.141Z" fill="#067885"/>
<path d="M24.5151 97.1005L22.8716 100.935L25.1999 104.359L21.0912 104.085L18.489 107.235L17.5303 103.264L13.5586 101.757L17.1195 99.5657L17.3934 95.457L20.5434 98.0592L24.5151 97.1005Z" fill="#067885"/>
<path d="M16.4345 85.4613L13.8323 88.7482L15.0649 92.72L11.2302 91.2134L7.80625 93.5417L7.94321 89.433L4.65625 86.9678L8.76495 85.8721L10.1345 81.9004L12.3258 85.4613H16.4345Z" fill="#067885"/>
<path d="M11.6413 71.3547L8.35435 73.683V77.7917L5.06739 75.3265L1.09565 76.5591L2.46522 72.7243L0 69.3004L4.1087 69.4373L6.57391 66.1504L7.80652 69.9852L11.6413 71.3547Z" fill="#067885"/>
<path d="M11.6413 55.4682L7.80652 56.8378L6.57391 60.8095L4.1087 57.3856L0 57.5226L2.46522 54.0986L1.09565 50.2639L5.06739 51.4965L8.35435 49.0312V53.1399L11.6413 55.4682Z" fill="#067885"/>
<path d="M16.4345 41.3617H12.3258L10.1345 44.9226L8.76495 40.9508L4.65625 39.8552L7.94321 37.3899L7.80625 33.2812L11.2302 35.6095L15.0649 34.103L13.8323 38.0747L16.4345 41.3617Z" fill="#067885"/>
<path d="M24.5151 29.7207L20.5434 28.762L17.3934 31.3642L17.1195 27.2555L13.5586 25.2012L17.5303 23.6946L18.489 19.5859L21.0912 22.8729L25.1999 22.462L22.8716 26.0229L24.5151 29.7207Z" fill="#067885"/>
<path d="M34.7874 20.6801L31.2265 18.6258L27.5287 20.2693L28.4874 16.2975L25.6113 13.2845L29.72 12.8736L31.7744 9.17578L33.4178 13.0106L37.5265 13.8323L34.3765 16.5714L34.7874 20.6801Z" fill="#067885"/>
<path d="M47.5241 13.9697L44.785 10.9566L40.6763 11.6414L42.5937 7.94358L40.8132 4.24575L44.9219 5.06749L47.798 2.19141L48.3458 6.3001L52.0437 8.21749L48.2089 9.99793L47.5241 13.9697Z" fill="#067885"/>
<path d="M63.0005 11.2304L61.22 7.53261L57.1113 6.98478L59.9874 4.1087L59.3026 0L63.0005 1.91739L66.6983 0L66.0135 4.1087L68.8896 6.98478L64.7809 7.53261L63.0005 11.2304Z" fill="#067885"/>
</svg>
