<svg width="148" height="165" viewBox="0 0 148 165" fill="none" xmlns="http://www.w3.org/2000/svg">
<path fill-rule="evenodd" clip-rule="evenodd" d="M49.2715 4.72791C47.0137 5.43913 44.7986 6.24659 42.6309 7.14549L41.8648 5.29804C44.0864 4.3768 46.3566 3.54924 48.6706 2.82031L49.2715 4.72791ZM104.642 7.14549C102.474 6.24659 100.259 5.43913 98.0014 4.72791L98.6023 2.82031C100.916 3.54925 103.187 4.3768 105.408 5.29804L104.642 7.14549ZM117.162 13.6754C115.18 12.4101 113.139 11.2288 111.045 10.1363L111.97 8.3631C114.116 9.4826 116.207 10.6931 118.238 11.9896L117.162 13.6754ZM36.2278 10.1364C34.1335 11.2288 32.0929 12.4101 30.111 13.6754L29.0348 11.9896C31.0656 10.6931 33.1567 9.4826 35.3028 8.3631L36.2278 10.1364ZM128.359 22.2793C126.623 20.6877 124.817 19.1708 122.947 17.7337L124.166 16.1479C126.082 17.6203 127.932 19.1744 129.711 20.8051L128.359 22.2793ZM24.3255 17.7337C22.4554 19.1708 20.6498 20.6877 18.9138 22.2793L17.5623 20.8051C19.3409 19.1744 21.1908 17.6203 23.1068 16.1479L24.3255 17.7337ZM137.902 32.6886C136.465 30.8185 134.948 29.0129 133.357 27.2769L134.831 25.9254C136.462 27.704 138.016 29.5539 139.488 31.4699L137.902 32.6886ZM13.9162 27.2769C12.3246 29.0129 10.8077 30.8185 9.37063 32.6886L7.78479 31.4699C9.25719 29.5539 10.8113 27.704 12.442 25.9254L13.9162 27.2769ZM145.5 44.5909C144.407 42.4966 143.226 40.456 141.961 38.4741L143.646 37.3979C144.943 39.4287 146.153 41.5198 147.273 43.6659L145.5 44.5909ZM5.31226 38.4741C4.04703 40.456 2.86569 42.4966 1.77325 44.5909L0 43.6659C1.1195 41.5198 2.33004 39.4287 3.62649 37.3979L5.31226 38.4741ZM141.961 125.525C143.226 123.543 144.407 121.503 145.5 119.408L147.273 120.333C146.153 122.479 144.943 124.57 143.646 126.601L141.961 125.525ZM1.77325 119.408C2.86569 121.503 4.04703 123.543 5.31227 125.525L3.62649 126.601C2.33004 124.57 1.1195 122.479 3.8147e-06 120.333L1.77325 119.408ZM9.37063 131.311C10.8077 133.181 12.3246 134.986 13.9162 136.722L12.442 138.074C10.8113 136.295 9.2572 134.445 7.78479 132.529L9.37063 131.311ZM133.357 136.722C134.948 134.986 136.465 133.181 137.902 131.311L139.488 132.529C138.016 134.445 136.462 136.295 134.831 138.074L133.357 136.722ZM18.9138 141.72C20.6498 143.311 22.4554 144.828 24.3255 146.265L23.1068 147.851C21.1908 146.379 19.3409 144.825 17.5623 143.194L18.9138 141.72ZM122.947 146.265C124.818 144.828 126.623 143.311 128.359 141.72L129.711 143.194C127.932 144.825 126.082 146.379 124.166 147.851L122.947 146.265ZM30.111 150.324C32.0929 151.589 34.1335 152.77 36.2278 153.863L35.3028 155.636C33.1567 154.517 31.0656 153.306 29.0348 152.01L30.111 150.324ZM111.045 153.863C113.139 152.77 115.18 151.589 117.162 150.324L118.238 152.01C116.207 153.306 114.116 154.517 111.97 155.636L111.045 153.863ZM42.6309 156.854C44.7986 157.753 47.0137 158.56 49.2715 159.271L48.6706 161.179C46.3566 160.45 44.0864 159.622 41.8648 158.701L42.6309 156.854ZM98.0014 159.271C100.259 158.56 102.474 157.753 104.642 156.854L105.408 158.701C103.187 159.622 100.916 160.45 98.6023 161.179L98.0014 159.271ZM56.0963 161.096C58.3813 161.6 60.7027 162.008 63.0559 162.315L62.7972 164.298C60.3859 163.984 58.007 163.566 55.6652 163.049L56.0963 161.096ZM84.2171 162.315C86.5703 162.008 88.8916 161.6 91.1766 161.096L91.6078 163.049C89.2659 163.566 86.8871 163.984 84.4758 164.298L84.2171 162.315ZM70.099 162.924C71.2718 162.974 72.4511 163 73.6365 163C74.8218 163 76.0011 162.974 77.1739 162.924L77.2598 164.922C76.0584 164.973 74.8504 165 73.6365 165C72.4225 165 71.2146 164.973 70.0132 164.922L70.099 162.924Z" fill="#FFC700"/>
<path d="M94.8224 31.4118L79.2751 3.33395C78.1237 1.2464 76.0162 0 73.6368 0C71.2574 0 69.1499 1.2464 67.9995 3.33193L52.4502 31.4138C51.335 33.4361 51.3682 35.8313 52.5388 37.8216C53.7094 39.8118 55.7839 41 58.0885 41H89.1854C91.4896 41 93.5642 39.8118 94.7348 37.8216C95.9053 35.8313 95.9386 33.4361 94.8224 31.4118ZM92.5152 36.5088C91.8126 37.7031 90.5678 38.416 89.1854 38.416H58.0885C56.7058 38.416 55.461 37.7031 54.7587 36.5088C54.0565 35.3146 54.0363 33.8777 54.7043 32.6663L70.2537 4.58439C70.9445 3.33159 72.2091 2.58402 73.6368 2.58402C75.0642 2.58402 76.329 3.33159 77.0209 4.58607L92.5682 32.6643C93.2373 33.8774 93.2174 35.3146 92.5152 36.5088Z" fill="#FFC700"/>
<path d="M69.6367 27H77.6367V8H69.6367V27ZM72.3032 10.5334H74.9699V24.4666H72.3032V10.5334Z" fill="#FFC700"/>
<path d="M73.6367 29C71.4309 29 69.6367 30.7942 69.6367 33C69.6367 35.2055 71.4309 37 73.6367 37C75.8425 37 77.6367 35.2055 77.6367 33C77.6367 30.7942 75.8425 29 73.6367 29ZM73.6367 34.3332C72.9013 34.3332 72.3032 33.735 72.3032 33C72.3032 32.2646 72.9013 31.6664 73.6367 31.6664C74.3718 31.6664 74.9699 32.2646 74.9699 33C74.9699 33.735 74.3718 34.3332 73.6367 34.3332Z" fill="#FFC700"/>
</svg>
