<svg width="148" height="168" viewBox="0 0 148 168" fill="none" xmlns="http://www.w3.org/2000/svg">
<path fill-rule="evenodd" clip-rule="evenodd" d="M117.166 16.6755C115.184 15.4103 113.143 14.229 111.049 13.1365L111.974 11.3633C114.12 12.4828 116.211 13.6933 118.242 14.9898L117.166 16.6755ZM36.2317 13.1365C34.1374 14.229 32.0968 15.4103 30.1149 16.6755L29.0387 14.9898C31.0695 13.6933 33.1606 12.4828 35.3067 11.3633L36.2317 13.1365ZM128.363 25.2795C126.627 23.6879 124.821 22.171 122.951 20.7339L124.17 19.1481C126.086 20.6205 127.936 22.1746 129.715 23.8053L128.363 25.2795ZM24.3294 20.7339C22.4593 22.171 20.6537 23.6879 18.9177 25.2795L17.5662 23.8053C19.3448 22.1746 21.1947 20.6205 23.1107 19.1481L24.3294 20.7339ZM137.906 35.6888C136.469 33.8187 134.952 32.0131 133.361 30.2771L134.835 28.9256C136.465 30.7042 138.02 32.5541 139.492 34.4701L137.906 35.6888ZM13.9201 30.2771C12.3285 32.0131 10.8116 33.8187 9.37454 35.6888L7.7887 34.4701C9.2611 32.5541 10.8152 30.7042 12.4459 28.9256L13.9201 30.2771ZM145.504 47.5911C144.411 45.4968 143.23 43.4562 141.965 41.4743L143.65 40.3981C144.947 42.4289 146.157 44.5199 147.277 46.6661L145.504 47.5911ZM5.31617 41.4743C4.05093 43.4562 2.8696 45.4968 1.77715 47.5911L0.00390625 46.6661C1.12341 44.52 2.33395 42.4289 3.63039 40.3981L5.31617 41.4743ZM141.965 128.525C143.23 126.543 144.411 124.503 145.504 122.408L147.277 123.333C146.157 125.48 144.947 127.571 143.65 129.601L141.965 128.525ZM1.77716 122.408C2.8696 124.503 4.05094 126.543 5.31617 128.525L3.6304 129.601C2.33395 127.571 1.12341 125.48 0.00391006 123.333L1.77716 122.408ZM9.37454 134.311C10.8116 136.181 12.3285 137.986 13.9201 139.722L12.4459 141.074C10.8152 139.295 9.2611 137.445 7.7887 135.529L9.37454 134.311ZM133.361 139.722C134.952 137.986 136.469 136.181 137.906 134.311L139.492 135.529C138.02 137.445 136.465 139.295 134.835 141.074L133.361 139.722ZM18.9178 144.72C20.6538 146.312 22.4593 147.829 24.3294 149.266L23.1108 150.851C21.1947 149.379 19.3448 147.825 17.5662 146.194L18.9178 144.72ZM122.951 149.266C124.821 147.829 126.627 146.312 128.363 144.72L129.715 146.194C127.936 147.825 126.086 149.379 124.17 150.851L122.951 149.266ZM30.1149 153.324C32.0968 154.589 34.1374 155.771 36.2317 156.863L35.3067 158.636C33.1606 157.517 31.0695 156.306 29.0387 155.01L30.1149 153.324ZM111.049 156.863C113.143 155.771 115.184 154.589 117.166 153.324L118.242 155.01C116.211 156.306 114.12 157.517 111.974 158.636L111.049 156.863ZM42.6348 159.854C44.8025 160.753 47.0176 161.56 49.2754 162.271L48.6745 164.179C46.3605 163.45 44.0903 162.623 41.8687 161.701L42.6348 159.854ZM98.0053 162.271C100.263 161.56 102.478 160.753 104.646 159.854L105.412 161.701C103.19 162.623 100.92 163.45 98.6062 164.179L98.0053 162.271ZM56.1002 164.096C58.3852 164.6 60.7066 165.008 63.0598 165.315L62.8011 167.298C60.3898 166.984 58.0109 166.566 55.6691 166.049L56.1002 164.096ZM84.221 165.315C86.5742 165.008 88.8955 164.6 91.1805 164.096L91.6117 166.049C89.2698 166.566 86.891 166.984 84.4797 167.298L84.221 165.315ZM70.1029 165.924C71.2757 165.974 72.455 166 73.6404 166C74.8257 166 76.005 165.974 77.1778 165.924L77.2637 167.922C76.0623 167.974 74.8543 168 73.6404 168C72.4264 168 71.2185 167.974 70.0171 167.922L70.1029 165.924Z" fill="#FFC700"/>
<path d="M75.0038 0C62.873 0 53.0039 9.86913 53.0039 22C53.0039 34.131 62.873 44 75.0038 44C87.1346 44 97.0038 34.1309 97.0038 22C97.0038 9.86904 87.1346 0 75.0038 0ZM75.0038 42.4273C63.7402 42.4273 54.5765 33.2638 54.5765 22C54.5765 10.7363 63.7402 1.57257 75.0038 1.57257C86.2675 1.57257 95.4313 10.7362 95.4313 22C95.4313 33.2639 86.2675 42.4273 75.0038 42.4273Z" fill="#FFC700"/>
<path d="M70.7498 14.4427C69.7529 12.7736 67.9974 11.7773 66.0536 11.7773C64.1099 11.7773 62.3544 12.7738 61.3575 14.4427C61.1348 14.8156 61.2565 15.2985 61.6293 15.5212C62.0023 15.7443 62.4848 15.6224 62.7075 15.2495C63.4178 14.0603 64.6687 13.3503 66.0536 13.3503C67.4385 13.3503 68.6895 14.0603 69.3998 15.2495C69.547 15.496 69.8079 15.6327 70.0756 15.6327C70.2128 15.6327 70.3517 15.5968 70.478 15.5212C70.8508 15.2984 70.9724 14.8156 70.7498 14.4427Z" fill="#FFC700"/>
<path d="M88.6482 14.4407C87.6513 12.7718 85.8957 11.7754 83.9521 11.7754C82.0083 11.7754 80.2528 12.7718 79.256 14.4408C79.0332 14.8137 79.1549 15.2966 79.5277 15.5193C79.9007 15.7423 80.3834 15.6204 80.6059 15.2475C81.3162 14.0583 82.5671 13.3483 83.9521 13.3483C85.337 13.3483 86.5879 14.0583 87.2982 15.2475C87.4454 15.4941 87.7063 15.6307 87.974 15.6307C88.1113 15.6307 88.2501 15.5948 88.3765 15.5192C88.7493 15.2964 88.8709 14.8136 88.6482 14.4407Z" fill="#FFC700"/>
<path d="M66.4493 19.752H62.7199C62.2857 19.752 61.9336 20.104 61.9336 20.5383C61.9336 20.9725 62.2857 21.3246 62.7199 21.3246H63.8665C63.6584 21.7252 63.5399 22.1794 63.5399 22.6612C63.5399 24.2653 64.845 25.5703 66.4491 25.5703C68.0532 25.5703 69.3583 24.2653 69.3583 22.6612C69.3584 21.057 68.0534 19.752 66.4493 19.752Z" fill="#FFC700"/>
<path d="M85.2342 19.752H81.5051C81.0708 19.752 80.7188 20.104 80.7188 20.5383C80.7188 20.9725 81.0708 21.3246 81.5051 21.3246H82.6517C82.4436 21.7252 82.3252 22.1794 82.3252 22.6612C82.3252 24.2653 83.6302 25.5703 85.2343 25.5703C86.8384 25.5703 88.1435 24.2653 88.1435 22.6612C88.1434 21.057 86.8383 19.752 85.2342 19.752Z" fill="#FFC700"/>
<path d="M84.7622 27.5529C84.7412 27.1191 84.3714 26.7849 83.9387 26.8056C83.5049 26.8267 83.1703 27.1953 83.1914 27.629C83.235 28.5264 82.9567 29.204 82.3407 29.701C79.6982 31.8327 71.8243 30.346 69.0134 29.5932C68.5934 29.4807 68.1627 29.7299 68.0504 30.1493C67.938 30.5687 68.1868 30.9998 68.6062 31.1123C68.7155 31.1417 71.3204 31.8346 74.4074 32.1838C75.5523 32.3133 76.6052 32.3779 77.5654 32.3779C80.1968 32.3779 82.1287 31.8922 83.3275 30.9255C84.3483 30.1024 84.831 28.9678 84.7622 27.5529Z" fill="#FFC700"/>
<path d="M80.3192 34.2974C80.2736 33.8655 79.8859 33.5522 79.4547 33.598C77.1778 33.8387 74.4321 33.4978 72.5295 33.1698C72.1016 33.0959 71.6948 33.383 71.621 33.811C71.5471 34.2389 71.8342 34.6456 72.2621 34.7195C73.7832 34.9819 75.8239 35.2511 77.7944 35.2511C78.416 35.2511 79.0308 35.2243 79.6199 35.162C80.0518 35.1163 80.3649 34.7293 80.3192 34.2974Z" fill="#FFC700"/>
<path d="M67.2551 23.1019C67.6894 23.1019 68.0414 22.7499 68.0414 22.3156C68.0414 21.8813 67.6894 21.5293 67.2551 21.5293C66.8208 21.5293 66.4688 21.8813 66.4688 22.3156C66.4688 22.7499 66.8208 23.1019 67.2551 23.1019Z" fill="#FFC700"/>
<path d="M86.0207 23.1019C86.455 23.1019 86.807 22.7499 86.807 22.3156C86.807 21.8813 86.455 21.5293 86.0207 21.5293C85.5864 21.5293 85.2344 21.8813 85.2344 22.3156C85.2344 22.7499 85.5864 23.1019 86.0207 23.1019Z" fill="#FFC700"/>
</svg>
