<svg width="1187" height="218" viewBox="0 0 1187 218" fill="none" xmlns="http://www.w3.org/2000/svg">
<path d="M0.582031 169.874H20.182C24.102 166.934 28.1037 162.688 32.187 157.134C40.517 145.211 45.0904 131.083 45.907 114.749L50.807 13.0742L33.657 8.17421V4.49921H162.282V8.17421L147.582 11.8492V169.874H170.857V217.649H163.507C159.587 214.873 156.075 211.279 152.972 206.869C146.112 197.396 142.682 187.106 142.682 175.999H28.757C28.757 186.943 25.2454 197.233 18.222 206.869C15.1187 211.279 11.6887 214.873 7.93203 217.649H0.582031V169.874ZM107.157 169.874V10.6242H58.157L53.257 114.749C52.4404 131.246 48.112 145.374 40.272 157.134C36.6787 162.524 32.8404 166.771 28.757 169.874H107.157Z" fill="#F2F3FA"/>
<path d="M265.23 179.674C249.223 179.674 235.177 176.244 223.09 169.384C211.167 162.361 201.938 152.153 195.405 138.759C188.872 125.366 185.605 109.196 185.605 90.2492C185.605 71.3026 188.872 55.1326 195.405 41.7392C201.938 28.3459 211.167 18.2192 223.09 11.3592C235.177 4.33588 249.223 0.824219 265.23 0.824219C281.237 0.824219 295.202 4.33588 307.125 11.3592C319.212 18.2192 328.522 28.3459 335.055 41.7392C341.588 55.1326 344.855 71.3026 344.855 90.2492C344.855 109.196 341.588 125.366 335.055 138.759C328.522 152.153 319.212 162.361 307.125 169.384C295.202 176.244 281.237 179.674 265.23 179.674ZM265.23 174.774C271.6 174.774 277.48 172.079 282.87 166.689C288.423 161.299 292.997 152.316 296.59 139.739C300.183 127.163 301.98 110.666 301.98 90.2492C301.98 69.8326 300.183 53.3359 296.59 40.7592C292.997 28.1826 288.423 19.1992 282.87 13.8092C277.48 8.41921 271.6 5.72421 265.23 5.72421C258.86 5.72421 252.898 8.41921 247.345 13.8092C241.955 19.1992 237.463 28.1826 233.87 40.7592C230.277 53.3359 228.48 69.8326 228.48 90.2492C228.48 110.666 230.277 127.163 233.87 139.739C237.463 152.316 241.955 161.299 247.345 166.689C252.898 172.079 258.86 174.774 265.23 174.774Z" fill="#F2F3FA"/>
<path d="M368.187 172.324L382.887 168.649V11.8492L368.187 8.17421V4.49921H434.337C459.164 4.49921 477.376 8.50089 488.972 16.5042C500.732 24.3442 506.612 34.6342 506.612 47.3742C506.612 56.1942 504.081 63.2992 499.017 68.6892C493.954 74.0792 487.502 78.0809 479.662 80.6942C471.332 83.6342 462.349 85.1859 452.712 85.3492V86.5742C464.636 87.0642 475.007 88.8609 483.827 91.9642C492.811 94.9042 500.242 99.4776 506.122 105.684C512.166 111.891 515.187 119.813 515.187 129.449C515.187 143.986 509.226 155.419 497.302 163.749C485.379 171.916 466.024 175.999 439.237 175.999H368.187V172.324ZM434.337 82.8992C439.727 82.8992 444.709 81.4292 449.282 78.4892C454.019 75.3859 457.776 71.1392 460.552 65.7492C463.492 60.1959 464.962 54.0709 464.962 47.3742C464.962 40.1876 463.492 33.8176 460.552 28.2642C457.776 22.7109 454.019 18.3826 449.282 15.2792C444.709 12.1759 439.727 10.6242 434.337 10.6242H423.312V82.8992H434.337ZM439.237 169.874C449.364 169.874 457.612 166.281 463.982 159.094C470.352 151.908 473.537 142.026 473.537 129.449C473.537 116.873 470.352 106.991 463.982 99.8042C457.612 92.6175 449.364 89.0242 439.237 89.0242H423.312V169.874H439.237Z" fill="#F2F3FA"/>
<path d="M534.711 172.324L549.411 168.649V11.8492L534.711 8.17421V4.49921H665.786V48.5992H658.436C655.332 46.1492 652.637 43.0459 650.351 39.2892C645.124 30.4692 642.511 20.9142 642.511 10.6242H589.836V87.7992H618.011C619.154 81.5926 621.277 75.7942 624.381 70.4042C625.687 67.9542 627.239 65.5859 629.036 63.2992H636.386V118.424H629.036C627.239 116.138 625.687 113.769 624.381 111.319C621.277 105.929 619.154 100.131 618.011 93.9242H589.836V169.874H647.411C647.411 159.584 650.024 150.029 655.251 141.209C657.537 137.453 660.232 134.349 663.336 131.899H670.686V175.999H534.711V172.324Z" fill="#F2F3FA"/>
<path d="M692.621 172.324L707.321 168.649V11.8492L692.621 8.17421V4.49921H761.221C788.334 4.49921 807.771 8.99088 819.531 17.9742C831.291 26.7942 837.171 39.8609 837.171 57.1742C837.171 74.4876 831.291 87.6359 819.531 96.6192C807.771 105.439 788.334 109.849 761.221 109.849H747.746V168.649L762.446 172.324V175.999H692.621V172.324ZM761.221 103.724C771.511 103.724 779.759 99.8042 785.966 91.9642C792.336 84.1242 795.521 72.5276 795.521 57.1742C795.521 41.9842 792.336 30.4692 785.966 22.6292C779.759 14.6259 771.511 10.6242 761.221 10.6242H747.746V103.724H761.221Z" fill="#F2F3FA"/>
<path d="M857.948 175.999V172.324L872.648 168.649V11.8492L857.948 8.17421V4.49921H927.773V8.17421L913.073 11.8492V135.574L970.648 30.2242V11.8492L955.948 8.17421V4.49921H1025.77V8.17421L1011.07 11.8492V168.649L1025.77 172.324V175.999H955.948V172.324L970.648 168.649V44.9242L913.073 150.274V168.649L927.773 172.324V175.999H857.948Z" fill="#F2F3FA"/>
<path d="M1050.31 172.324L1065.01 168.649V11.8492L1050.31 8.17421V4.49921H1181.39V48.5992H1174.04C1170.93 46.1492 1168.24 43.0459 1165.95 39.2892C1160.72 30.4692 1158.11 20.9142 1158.11 10.6242H1105.44V87.7992H1133.61C1134.75 81.5926 1136.88 75.7942 1139.98 70.4042C1141.29 67.9542 1142.84 65.5859 1144.64 63.2992H1151.99V118.424H1144.64C1142.84 116.138 1141.29 113.769 1139.98 111.319C1136.88 105.929 1134.75 100.131 1133.61 93.9242H1105.44V169.874H1163.01C1163.01 159.584 1165.62 150.029 1170.85 141.209C1173.14 137.453 1175.83 134.349 1178.94 131.899H1186.29V175.999H1050.31V172.324Z" fill="#F2F3FA"/>
</svg>
